<?xml version="1.0" encoding="utf-8"?>
<!-- Generator: Adobe Illustrator 21.0.1, SVG Export Plug-In . SVG Version: 6.00 Build 0)  -->
<svg version="1.1" id="Layer_1" xmlns="http://www.w3.org/2000/svg" xmlns:xlink="http://www.w3.org/1999/xlink" x="0px" y="0px"
	 viewBox="0 0 270 90.4" style="enable-background:new 0 0 270 90.4;" xml:space="preserve">
<title>retail-stat2</title>
<g id="b1d48a6f-f533-4ece-b888-d88fc1e7ef79">
	<g id="_x32_8c3b2e7-6bc6-4151-b1b2-f5584b2dfde6">
		<g>
			<g>
				<path fill="#444444" d="M0.3,77.3V6.6c3.8,0,5.1-2.5,5.1-5.2h6.2v76L0.3,77.3z"/>
				<path fill="#444444" d="M33.5,78.7c-10.5,0-15.6-7.5-15.6-15.8v-8.3h10.1v7.4c0,4.1,1.8,6.3,5.5,6.3s5.6-2.2,5.6-5.8V47.6
					c0-2.4-1.1-4.1-4.3-4.1h-5.2v-9h5.2c3.2,0,4.3-1.7,4.3-4.2V16.4c0-3.6-1.8-5.9-5.6-5.9s-5.5,2.3-5.5,6.3v7.5H17.9V16
					c0-8.4,5-16,15.6-16c10.2,0,16.7,6.6,16.7,16.2v11.8c0,5.5-2.8,9.5-7.5,10.7c4.6,1.6,7.5,5,7.5,10.6v13.2
					C50.2,72.1,43.7,78.7,33.5,78.7z"/>
				<path fill="#444444" d="M54.7,87.1v-3c3.1,0,5.1-2.2,5.1-6.8h-4.4V63.9h9.5v12.2C64.8,82.3,61.3,87.1,54.7,87.1z"/>
				<path fill="#444444" d="M87.3,78.7c-10.3,0-17.1-7-17.1-17.3v-44C70.2,7,77.1,0,87.3,0s17.1,7,17.1,17.3v44C104.5,71.7,97.7,78.7,87.3,78.7z
					 M93.3,16.3c0-3.1-2.3-5.6-5.9-5.6c-3-0.2-5.6,2.2-5.8,5.2c0,0.1,0,0.3,0,0.4v46.1c-0.1,3,2.3,5.6,5.4,5.6c0.1,0,0.3,0,0.4,0
					c3.7,0,5.9-2.5,5.9-5.6V16.3z"/>
				<path fill="#444444" d="M127.2,78.7c-10.3,0-17.1-7-17.1-17.3v-44C110.1,7,117,0,127.2,0s17.1,7,17.1,17.3v44C144.3,71.7,137.6,78.7,127.2,78.7
					z M133.2,16.3c0-3.1-2.3-5.6-5.9-5.6c-3-0.2-5.6,2.2-5.8,5.2c0,0.1,0,0.3,0,0.4v46.1c-0.1,3,2.3,5.6,5.4,5.6c0.1,0,0.3,0,0.4,0
					c3.6,0,5.9-2.5,5.9-5.6V16.3z"/>
				<path fill="#444444" d="M167.1,78.7c-10.3,0-17.1-7-17.1-17.3v-44C150,7,156.8,0,167.1,0s17.1,7,17.1,17.3v44C184.2,71.7,177.5,78.7,167.1,78.7
					z M173,16.3c0-3.1-2.3-5.6-5.9-5.6c-3-0.1-5.6,2.2-5.8,5.2c0,0.1,0,0.2,0,0.3v46.1c-0.1,3,2.4,5.6,5.4,5.6c0.1,0,0.3,0,0.4,0
					c3.6,0,5.9-2.5,5.9-5.6V16.3z"/>
			</g>
			<g>
				<path fill="#444444" d="M203.3,78.3c-6.1,0-9.5-3.9-9.5-10.1V66h6v2.8c0,2.6,1.2,3.7,3.2,3.7c1.6,0.2,3-0.9,3.2-2.5c0-0.2,0-0.5,0-0.7
					c0-3.4-1.7-4.7-5.7-8.4c-3.6-2.7-6.4-6.1-6.4-11.1c0-6.1,3.9-9.8,9.1-9.8c6,0,9.1,4,9.1,9.8v2.3h-5.7v-2.9c0.2-1.6-1-3-2.6-3.2
					c-0.2,0-0.5,0-0.7,0c-1.5-0.1-2.7,1-2.8,2.5c0,0.1,0,0.3,0,0.4c0,2.7,1.5,4.4,4.9,7.3c3.9,3,7.2,6.3,7.2,12
					C212.6,73.8,209.4,78.3,203.3,78.3z"/>
				<path fill="#444444" d="M228.1,90.4V74.3c-1,2.5-3.5,4.1-6.2,4c-3.6,0-6.3-3.6-6.3-8.3V48.8c0-5.2,2.6-8.8,7.2-8.8c2.8-0.1,5.3,1.7,6.3,4.3
					l0.7-3.6h5.3v49.7H228.1z M228.1,49.6c0-2.2-1.2-3.6-2.9-3.6c-1.8,0-2.9,1.3-2.9,3.6v18.9c0,2.4,1.2,3.7,2.9,3.7
					s2.9-1.5,2.9-3.6V49.6z"/>
				<path fill="#444444" d="M262.8,77.7V49.3c0-1.8-0.9-3-2.3-3c-1.9,0-2.6,2.4-2.6,4.2v27.2h-7V49.1c0-1.8-0.9-3-2.2-3c-1.9,0-2.8,2.4-2.8,4.2
					v27.4h-6.9V40.6h6.1l0.5,4.8c1.1-3.6,3.2-5.3,6-5.3s4.7,2.1,5.6,5.2c1.2-3.5,3.5-5.2,6.2-5.2c4,0,6.3,3.1,6.3,8.1v29.6H262.8z"
					/>
			</g>
		</g>
	</g>
</g>
</svg>
