<?xml version="1.0" encoding="utf-8"?><!DOCTYPE svg PUBLIC "-//W3C//DTD SVG 1.1//EN" "http://www.w3.org/Graphics/SVG/1.1/DTD/svg11.dtd"><svg xmlns="http://www.w3.org/2000/svg" xmlns:xlink="http://www.w3.org/1999/xlink"><symbol viewBox="0 0 800 134.84" id="comapny-logo-nokia"><path fill="#1c4598" d="M38.52 133.18H0v-131h66.62l76.43 97.8V2.18h38.52v131H116.3L38.52 33.71v99.47m327.35-40.51c0 18.21-3.22 24.49-8.55 30.51-8.17 8.96-20.06 11.66-42.97 11.66h-65.77c-22.91 0-34.82-2.7-42.98-11.66-5.33-6.02-8.55-12.3-8.55-30.51v-50.5c0-18.2 3.22-24.47 8.55-30.5C213.77 2.7 225.67 0 248.58 0h65.77c22.91 0 34.8 2.7 42.97 11.67 5.33 6.03 8.55 12.3 8.55 30.5v50.5m-53.14 8.98c8.8 0 11.9-.52 14.01-2.44 1.97-1.79 2.84-4.1 2.84-11.8V47.43c0-7.7-.87-9.99-2.84-11.79-2.11-1.93-5.21-2.44-14.01-2.44h-62.54c-8.8 0-11.9.51-14 2.44-1.98 1.8-2.85 4.09-2.85 11.79v39.98c0 7.7.87 10.01 2.85 11.8 2.1 1.92 5.2 2.44 14 2.44h62.54M421.85 2.18v131H381.6v-131h40.25m68 0h53.14l-71.72 61.27 80.89 69.73H495.3l-73.45-68.32 68-62.68m69.73 0h40.26v131h-40.26m193.73 0l-11.91-22.82h-77.89l-11.77 22.81h-44.47L678.62 2.18h50.04l71.34 131h-46.69M677.5 81.91h50.05l-25.03-47.43-25.02 47.43"/></symbol><symbol viewBox="0 0 433.701 433.701" id="company-logo-hp"><path fill="#4987CE" d="M216.85 432.851c-2.147 0-4.285-.039-6.419-.101l44.143-121.318h60.75c10.663 0 22.368-8.197 26.015-18.212l47.892-131.546c7.835-21.537-4.501-39.157-27.418-39.157h-84.279l-70.715 194.316h-.026l-40.089 110.153C71.594 404.375.85 318.878.85 216.851c0-99.086 66.721-182.58 157.683-208.027l-41.365 113.693h-.012L48.389 311.432l45.778.004 58.481-160.531h34.404l-58.481 160.531 45.761.008 54.498-149.77c7.84-21.537-4.497-39.157-27.393-39.157h-38.481l44.186-121.44c3.221-.143 6.454-.227 9.708-.227 119.294 0 216 96.706 216 216.001 0 119.292-96.706 216-216 216zM347.542 150.79h-34.395L264.98 282.948h34.396l48.166-132.158z"/></symbol><symbol viewBox="0 0 295 163.831" id="company-logo-htc"><g transform="matrix(1.92605 0 0 -1.92605 -350.2 206.69)"><path d="M310.012 71.442c-6.764-.044-13.17-.098-14.957.06-3.614.315-6.028 2.679-6.308 6.157-.19 2.283-.19 4.174-.01 5.974.327 3.387 3.16 6.612 6.318 6.768 1.131.06 4.157.054 9.638.03l15.95-.03v6.615s-12.705.014-16.524.03c-5.126.024-7.707.028-9.341-.03-3.597-.138-6.609-1.418-8.95-3.796-2.218-2.245-3.542-5.818-3.738-9.435-.111-1.952-.148-4.502 0-6.018.369-3.89 1.628-6.943 3.739-9.08 2.256-2.297 5.69-3.753 8.952-3.796 2.678-.034 25.862 0 25.862 0v6.612s-7.041-.027-10.631-.061M238.01 96.662v-6.61h15.737V65.006h6.643v25.048h15.737v6.609H238.01zM231.11 84.163c-.047 3.56-1.303 6.613-3.738 9.081-2.54 2.584-6.413 3.657-8.949 3.793-2.205.124-10.894.084-12.934 0-2.874-.122-4.968-.98-6.018-1.763-.01-.007-.02-.004-.02.013v12.026h-6.646V64.89h6.636s-.132 17.364.017 19.255c.263 3.36 2.813 6.001 6.065 6.285 2.607.223 10.431.162 12.887-.003 3.37-.233 5.859-2.867 6.055-6.417.064-1.307-.003-19.12-.003-19.12h6.649s.017 17.746 0 19.272" fill="#8cc751"/><path d="M329.538 33.342c1.374.014 2.658.284 2.654 1.392 0 .189.027.408-.05.658-.186.375-.43.355-.673.32l.088.021s-.871-.24-1.577-.25h-.02c-.726.024-.936.747-.973 1.544-.013.135-.017.28-.013.439.017 1.219.395 3.073.641 4.11.075.368.298.62.73.651 2.097.162 4.7.196 4.64 1.449 0 .003-.003.013 0 .02-.003 1.08-1.057 1.32-1.874 1.34h-.081c-.328-.003-2.192-.212-2.196-.212l-.195-.024.05.193c.193.72.385 1.577.777 2.431.068.152.101.318.101.497.007.378-.131.8-.337 1.114-.2.311-.46.507-.652.514h-.027c-.392-.004-.763-.264-1.192-.95-.55-.918-.851-2.14-1.432-3.508-.058-.2-.23-.348-.54-.372-2.283-.35-2.597-1.175-2.614-1.739v-.027c.02-.885.418-1.175.912-1.195h.014c.152-.004.574.155.87.162h.035a.465.465 0 0 0 .246-.058c.088-.054.125-.162.118-.256a.983.983 0 0 0-.02-.18c-.19-.783-.507-2.735-.523-3.795 0-.101 0-.192.007-.277.047-1.145.28-2.266.756-2.918.547-.712 1.185-1.074 2.256-1.094h.095m-12.546 7.325c-.044-2.425-1.73-3.985-1.858-6.15a9.406 9.406 0 0 1-.02-.412c.014-.631.085-.986.895-1.178a2.4 2.4 0 0 1 .463-.058c.945-.013 1.337.703 1.766 1.615.415.895.827 1.948 1.874 2.387l.183.078.003-.206c.013-2.084 1.246-3.134 2.32-3.148.888-.006 1.705.656 1.735 2.175.003.216-.01.45-.044.7a.273.273 0 0 1-.168.053c-.227.007-.53-.175-.808-.182-.148-.01-.317.118-.34.33.006.44.033.926.04 1.413.01.743-.03 1.485-.253 2.016-.227.53-.588.86-1.32.878-.71.013-1.298-.527-1.585-.807l-.233-.223.003.32.007.304c-.023.497-.108.659-.385 1-.32.28-.658.405-.982.412-.504.007-.99-.274-1.31-.797.013-.176.016-.348.016-.52m-6.967-1.61c-.02-.004-.699-2.19-1.84-2.284 0 0-.79-.128-.773.703-.02.516.49 1.337.75 1.681.32.412.887 1.155 1.79 1.3l.134.02.02-.134c.02-.125.03-.243.038-.355.027-.577-.112-.922-.119-.932m2.59 2.925c-.05.543-.996 1.692-1.644 1.624a.532.532 0 0 1-.182-.037l-.02-.01c-2.243-.574-5.684-3.526-5.499-7.075.017-.375.075-.76.18-1.155.23-.827.894-1.439 2.154-1.385.166.007.344.03.523.061.656.18 1.426.621 1.78 1.125l.247.344v-.425-.112c.054-1.06.864-1.979 1.617-1.945.26.013.524.132.78.412.088.095.095.22.112.361.155 1.257.148 2.381.098 3.448-.044.905-.125 1.773-.166 2.631-.034.716-.044 1.432.02 2.138m-13.227-8.814h.003c.783-.007 1.38.327 1.681 1.036.139.338.2 1.3.703 2.631 1.104 2.158 2.593 6.204 2.593 6.288.237 1.334-.651 2.036-1.749 1.874-1.1-.158-1.097-1.404-1.327-2.67-.483-2.54-2.6-4.911-2.972-7.4v-.03c-.013-.851.409-1.577 1.06-1.73h.008zM291.85 50.21c-2.161-3.455-4.765-9.615-4.846-15.64-.003-.145-.003-.293-.003-.445.003-.608.358-1.027 1.233-1.081.023 0 .047 0 .07-.003.774 0 .926.496 1.091.773.119.182.372 1.661.52 3.05l.003.013c.575 2.732 1.328 7.028 2.925 9.837.503.868 1.432 1.631 1.432 2.52 0 .06-.003.118-.01.175-.081.733-.794 1.226-1.47 1.233-.37.007-.719-.132-.945-.433m6.484 1.054c-1.587-5.23-4.468-10.526-5.025-16.858 0-.594.179-1.07.804-1.196a4.58 4.58 0 0 1 .216-.016c.503-.007.996.175 1.27.52.74.918.432 1.78.709 3.12.408 1.915 1.428 5.1 1.428 5.103 0 .003 1.618 4.98 2.965 7.71.095.209.227.6.23.996.003.459-.135.895-.655 1.145l-.003.003c-.29.145-.554.203-.784.206a1.222 1.222 0 0 1-1.155-.733m7.362.162c-.01-.888.608-1.827 1.534-1.84.287-.007.607.074.955.27.46.33.605.712.612 1.1.016.713-.52 1.46-.612 1.548-.131.135-.402.324-1.006.334-.088 0-.186-.004-.287-.01h-.01c-.834-.149-1.169-.736-1.186-1.402m-23.305-1.888c-.01-.86.696-1.793 1.54-1.81h.024c.946.007 1.435.757 1.452 1.55.003.808-.473 1.594-1.536 1.615-.065 0-.132 0-.206-.01-.93-.19-1.257-.74-1.274-1.345m1.247-6.622c-.311 0-.588-.138-.794-.547-.476-1.976-1.949-4.498-1.982-7.041a5.73 5.73 0 0 1 .06-.963c.051-.354.274-1.127 1.088-1.13h.098c1.003.073 1.155.306 1.182.725-.068.28-.095.557-.091.83.043 2.216 2.05 4.192 2.06 6.16 0 .146-.007.291-.027.436-.085.706-.909 1.523-1.574 1.53h-.02zm-11.327-9.25c1.584-.074 1.8 2.905 2.303 3.904 1.094 2.06 2.53 2.617 4.232 3.046 0 0 .77.304.766 1.115a1.34 1.34 0 0 1-.01.199c-.142.817-.338.956-.861 1.047a3.9 3.9 0 0 1-.524.04c-1.698.03-3.397-.972-3.981-2.026l-.213-.371-.04.425c-.04.595.017 2.04-.807 2.016h-.027c-1.101.027-1.399-1.148-1.496-1.536-.237-1.55-.423-3.205-.443-4.742-.013-.949.037-1.857.176-2.654.263-.456.864-.463.925-.463m-7.5 2.928c-.804-.621-1.682-1.016-2.016-1.023l-.146.003-.02.379c0 1.053.21 1.35.594 1.85.45.581 1.392 1.257 2.064 1.257.138-.004.405-.038.527-.105.165-.081.243-.382.236-.55-.02-.538-.584-1.284-1.24-1.81m2.067 4.73c-.429.15-.82.213-1.178.217-1.544.027-2.584-1.094-3.644-2.057l-.314-.287.091.419c.794 3.61 1.266 7.098 2.02 10.894.01.068.03.206.03.375 0 .625-.152 1.614-1.263 1.672-.037.003-.078.003-.118.003-.882.013-1.273-.659-1.466-1.277-.317-1.07-.338-2.505-.51-3.92-.544-4.228-1.638-9.338-2.137-13.14.182-.895.685-.608 1.452-.912l-.003-.004c.057-.02.057-.043.067-.05.007-.014.007-.017.01-.024.003-.007.003-.01.003-.013l.01-.027c.003-.017.014-.04.024-.071.027-.058.064-.139.132-.223.128-.162.347-.544.766-.399 3.945 1.189 5.667 1.929 7.079 4.127.297.503.439 1.098.445 1.699.024 1.33-.621 2.66-1.496 2.999M232.84 23.677c0-.138.02-.284.054-.425.18-.818 1.402-.909 1.405-.909.304-.023.604-.034.902-.034 6.794 0 11.005 5.856 11.009 12.995a18.57 18.57 0 0 1-.372 3.712v.013c-.007 0-.047.368-.267.581-.27.22-.49.297-.678.297-.473.014-.888-.557-1.25-1.232-.375-.67-.665-1.392-1.128-1.625-.34-.152-.624-.23-.868-.23-.79.014-.99.78-.992 1.679 0 .679.108 1.496.202 2.296.007.051.01.105.01.16-.013.367-.118.88-.827.945h-.085c-.918-.004-1.192-.649-1.313-1.115-.135-.564-.47-1.432-.47-2.664 0-1.23.244-2.168.244-2.168.344-1.142.88-1.57 1.489-1.854.29-.112.59-.162.888-.162 1.064-.119 2.296.34 2.398.756-.119-1.307-.233-2.506-.537-3.711-.466-1.608-1.034-2.445-1.463-3-1.62-1.89-4.18-3.214-6.943-3.214-.094 0-.189 0-.267.003-.891-.084-1.127-.547-1.141-1.094m2.77 25.362c-.572-.335-.656-.936-.93-1.733-.162-.456-2.417-11.1-2.41-12.393v-.02c-.105-1.534.921-1.96.921-1.96.115-.023.487-.033.487-.033.834-.014 1.178.908 1.323 1.405.318 1.128.3 2.475.564 3.856.395 2.07 1.824 7.879 1.925 8.73.048.375.112.689.112 1.016.07.865-.743 1.368-1.213 1.371-.243 0-.51-.08-.78-.24m-9.702-15.527c.905.034 1.475.348 1.482 1.175v.034c-.007.453-.317.74-.723 1.064-.25.206-.435.395-.482 1.202a6.212 6.212 0 0 0-.014.385c.003 1.34.371 3.867.611 4.93.064.369.277.676.73.67.324.003.888.036 1.158.043.29.003 1.067-.02 1.763.138.706.166 1.263.483 1.26 1.149v.023c-.028 1.111-.899 1.152-1.703 1.165-.03 0-2.245-.138-2.245-.138l.064.192c.226.686.506 1.608.962 2.486.193.31.855 2.583-.996 2.583-.527-.07-1.013-.628-1.49-1.648-.56-1.246-.577-1.783-1.242-3.377-.047-.185-.223-.391-.557-.378-.615-.01-1.064-.094-1.52-.094-.152 0-.337-.024-.503.003-.33 0-.679-.243-.679-.243-.118-.145-.334-.247-.398-.804v-.03c.013-.892.365-1.398.797-1.392l1.594-.044a.46.46 0 0 0 .243-.057.299.299 0 0 0 .115-.25 1 1 0 0 0-.024-.182c-.189-.841-.598-3.772-.598-4.782 0-.027 0-.047.003-.068.04-1.817.571-3.768 2.34-3.755l.024.003c.01 0 .02-.003.027-.003m-10.485 5.481l.016.118c.183 1.074 1.314 1.956 1.905 1.976.01 0 .027 0 .047-.004a.542.542 0 0 0 .483-.54v-.04c0-.95-1.222-1.53-1.914-1.56-.061 0-.369.006-.42.016l-.117.034zm5.453-1.628c-.074.135-.192.223-.293.223-.081 0-.213.01-.395-.172-.794-.787-1.382-1.807-2.74-1.81 0 0-.01 0-.026-.004-.96-.01-1.29.48-1.466 1.3l-.03.122.121.04c.868.136 3.654.987 3.634 3.216 0 .34-.06.719-.203 1.138-.314.922-1.094 1.307-2.02 1.31-1.607.007-3.258-1.108-3.677-2.877l-.017-.21-.182.102a.86.86 0 0 1-.412.111c-.54 0-1.02-.621-1.023-1.195.003-.048.003-.092.01-.132.135-.753.473-1.196 1.016-1.52l.068-.037v-.08c0-.028-.003-.052-.003-.075.01-2.428 1.628-3.448 3.414-3.458 2.053.003 4.248 1.398 4.296 3.694 0 0 0 .19-.071.314M184.76 36.02s-.243.034-.338.105c-.277.2-.398.5-.395.82.013 1.172 1.405 2.854 2.293 3.752.83.828 1.25 1.152 1.672 1.162a.807.807 0 0 0 .401-.118c.203-.108.28-.331.28-.57-.043-1.483-2.576-5.087-3.913-5.15m6.943 6.243c.003.497-.186.966-.19.976-.62.976-1.421 1.371-2.32 1.375-1.553.003-3.413-1.243-4.866-2.955-1.458-1.709-2.509-3.87-2.505-5.64 0-1.121.408-2.07 1.38-2.695.298-.142.592-.21.882-.21 1.58-.013 3.117 1.973 4.08 2.838l.216.185-.01-.283c-.17-4.485-1.638-12.272-1.638-12.306.003-.794.547-1.297 1.152-1.297.243 0 .503.081.74.263 1.222 1.2 1.14 3.57 1.485 5.863.56 3.674.324 7.673 1.05 11.09.226 1.05.48 2.114.514 2.459 0 0 .03.23.03.337m8.645-6.156c.385-1.76.46-2.806 2.732-3.137.172-.004.43.125.628.348.203.22.345.523.345.847 0 .098-.01.193-.034.28-.233.676-.659.713-.942 1.473-.172.476-.226 1.01-.226 1.557 0 1.175.256 2.431.253 3.377-.024.952-.203 1.486-1.125 1.5-.054 0-.115-.004-.179-.011-.027.007-.378-.115-.614-.537-1.064-1.827-2.182-4.417-4.08-4.596-.344.054-.47.388-.46.75.004 1.178 1.004 3.525 1.487 4.93.04.152.057.294.057.426 0 .79-.847 1.28-1.391 1.276-.547-.003-1.111-.27-1.446-.905-.455-.844-1.107-3.505-1.104-5.825 0-1.07.139-2.07.48-2.786.35-.716.868-1.142 1.692-1.145.044 0 .087 0 .131.003 1.55.074 2.51 1.5 3.587 2.26l.165.114.044-.199zm7.041-2.388c.534 0 .936.132 1.024.47.442 2.66 1 4.4 1.607 6.693.03.149.047.29.047.432-.007.76-.432 1.365-1.158 1.365-.236 0-.513-.068-.81-.213-1.399-.929-1.79-4.714-2.121-7.453-.003-.034-.003-.074-.003-.118 0-.585.385-1.05.864-1.135.186-.024.372-.04.55-.04m2.074 16.462c-.31-.31-.435-.83-.435-1.195.003-.996.952-1.766 1.867-1.766.584.003 1.287.294 1.445 1.064.003.037.003.07.003.104 0 .997-.854 2.138-1.877 2.138a1.73 1.73 0 0 1-1.003-.345m121.489-4.95l-.132.034.132-.034z"/></g></symbol><symbol viewBox="0 0 300 300.20289" id="company-logo-huawei"><defs><radialGradient id="adi" spreadMethod="pad" gradientTransform="matrix(30.6689 0 0 -30.6689 54.74 480.557)" gradientUnits="userSpaceOnUse" r="1" cy="0" cx="0" fy="0" fx="0"><stop offset="0" stop-color="#f9ab95"/><stop offset=".42" stop-color="#ed1c24"/><stop offset=".427" stop-color="#ed1c24"/><stop offset=".873" stop-color="#ed1c24"/><stop offset="1" stop-color="#981015"/></radialGradient><radialGradient id="adh" spreadMethod="pad" gradientTransform="matrix(30.66695 0 0 -30.66695 54.74 480.558)" gradientUnits="userSpaceOnUse" r="1" cy="0" cx="0" fy="0" fx="0"><stop offset="0" stop-color="#f9ab95"/><stop offset=".42" stop-color="#ed1c24"/><stop offset=".427" stop-color="#ed1c24"/><stop offset=".873" stop-color="#ed1c24"/><stop offset="1" stop-color="#981015"/></radialGradient><radialGradient id="adg" spreadMethod="pad" gradientTransform="matrix(30.66283 0 0 -30.66283 54.738 480.553)" gradientUnits="userSpaceOnUse" r="1" cy="0" cx="0" fy="0" fx="0"><stop offset="0" stop-color="#f9ab95"/><stop offset=".42" stop-color="#ed1c24"/><stop offset=".427" stop-color="#ed1c24"/><stop offset=".873" stop-color="#ed1c24"/><stop offset="1" stop-color="#981015"/></radialGradient><radialGradient id="adf" spreadMethod="pad" gradientTransform="matrix(30.66843 0 0 -30.66843 54.738 480.556)" gradientUnits="userSpaceOnUse" r="1" cy="0" cx="0" fy="0" fx="0"><stop offset="0" stop-color="#f9ab95"/><stop offset=".42" stop-color="#ed1c24"/><stop offset=".427" stop-color="#ed1c24"/><stop offset=".873" stop-color="#ed1c24"/><stop offset="1" stop-color="#981015"/></radialGradient><radialGradient id="ade" spreadMethod="pad" gradientTransform="matrix(30.63336 0 0 -30.63335 54.73 480.557)" gradientUnits="userSpaceOnUse" r="1" cy="0" cx="0" fy="0" fx="0"><stop offset="0" stop-color="#f9ab95"/><stop offset=".42" stop-color="#ed1c24"/><stop offset=".427" stop-color="#ed1c24"/><stop offset=".873" stop-color="#ed1c24"/><stop offset="1" stop-color="#981015"/></radialGradient><radialGradient id="add" spreadMethod="pad" gradientTransform="matrix(30.63312 0 0 -30.63312 54.732 480.558)" gradientUnits="userSpaceOnUse" r="1" cy="0" cx="0" fy="0" fx="0"><stop offset="0" stop-color="#f9ab95"/><stop offset=".42" stop-color="#ed1c24"/><stop offset=".427" stop-color="#ed1c24"/><stop offset=".873" stop-color="#ed1c24"/><stop offset="1" stop-color="#981015"/></radialGradient><radialGradient id="adc" spreadMethod="pad" gradientTransform="matrix(30.64128 0 0 -30.64128 54.736 480.564)" gradientUnits="userSpaceOnUse" r="1" cy="0" cx="0" fy="0" fx="0"><stop offset="0" stop-color="#f9ab95"/><stop offset=".42" stop-color="#ed1c24"/><stop offset=".427" stop-color="#ed1c24"/><stop offset=".873" stop-color="#ed1c24"/><stop offset="1" stop-color="#981015"/></radialGradient><radialGradient id="adb" spreadMethod="pad" gradientTransform="matrix(30.63808 0 0 -30.63808 54.731 480.56)" gradientUnits="userSpaceOnUse" r="1" cy="0" cx="0" fy="0" fx="0"><stop offset="0" stop-color="#f9ab95"/><stop offset=".42" stop-color="#ed1c24"/><stop offset=".427" stop-color="#ed1c24"/><stop offset=".873" stop-color="#ed1c24"/><stop offset="1" stop-color="#981015"/></radialGradient><clipPath id="ada"><path d="M0 521.57h368.5V0H0v521.57z"/></clipPath></defs><g transform="translate(-172.444 -219.734)"><path d="M184.452 489.914h24.315v-19.427h10.906v47.93h-10.906V498.4h-24.315v20.016h-10.934v-47.93h10.934v19.428z" fill="#231f20"/><g clip-path="url(#ada)" transform="matrix(7.01337 0 0 -7.01337 -22.648 3618.613)"><path d="M37.376 444.78c0-1.208.38-1.714 1.67-1.714 1.285 0 1.658.506 1.658 1.714v4.095h1.559v-4.131c0-.872-.106-1.473-.438-1.84-.606-.663-1.495-.937-2.78-.937-1.288 0-2.183.274-2.794.938-.338.37-.422.972-.422 1.839v4.13h1.547v-4.094zM45.377 444.882h2.207l-1.123 2.63-1.084-2.63zm1.97 3.992l3.153-6.834h-1.73l-.682 1.626H44.87l-.654-1.626h-1.652l3.13 6.834h1.653zM51.206 448.875l1.71-5.254 1.444 5.254h1.838l1.654-5.254 1.598 5.254h1.6l-2.287-6.834h-1.907l-1.578 5.098-1.38-5.098h-1.9l-2.464 6.834h1.672zM63.145 446.096h4.303v-1.188h-4.313c.01-1.233.533-1.68 1.764-1.68h2.549v-1.188h-2.623c-.893 0-1.588.065-2.309.6-.766.558-1.133 1.457-1.133 2.692 0 2.416 1.1 3.542 3.487 3.542h2.578v-1.194h-2.549c-1.129 0-1.693-.513-1.754-1.584M68.825 448.875h1.625v-6.834h-1.625v6.834z" fill="#231f20"/></g><path d="M31.014 471.791c.14-2.671 2.151-4.255 2.151-4.255 3.24-3.157 11.084-7.141 12.904-8.049.024-.002.119-.036.174.035 0 0 .075.059.037.155-4.991 10.904-11.816 19.172-11.816 19.172s-3.715-3.527-3.45-7.058" fill="url(#adb)" transform="matrix(7.01337 0 0 -7.01337 -22.648 3618.613)"/><path d="M31.809 456.488c1.415-2.523 3.801-4.486 6.285-3.883 1.717.429 5.596 3.137 6.875 4.054l-.004.001c.1.087.071.161.071.161-.038.117-.172.117-.172.117v.005l-13.055-.455z" fill="url(#adc)" transform="matrix(7.01337 0 0 -7.01337 -22.648 3618.613)"/><path d="M28.685 462.349c1.416-2.994 4.121-3.902 4.121-3.902 1.247-.513 2.496-.546 2.496-.546.195-.035 7.765-.004 9.792.004.088 0 .135.088.135.088.063.102-.047.198-.047.198v.001c-5.734 3.866-16.849 9.805-16.849 9.805-1.011-3.127.352-5.648.352-5.648" fill="url(#add)" transform="matrix(7.01337 0 0 -7.01337 -22.648 3618.613)"/><path d="M43.993 484.086c-3.457-.894-4.274-4.03-4.274-4.03-.63-1.974.018-4.14.018-4.14 1.15-5.121 6.83-13.531 8.052-15.298.088-.087.153-.054.153-.054a.163.163 0 0 1 .125.161c1.875 18.782-1.974 23.761-1.974 23.761-.567-.053-2.1-.4-2.1-.4" fill="url(#ade)" transform="matrix(7.01337 0 0 -7.01337 -22.648 3618.613)"/><path d="M50.313 460.713h.006c.01-.121.1-.146.1-.146.124-.048.187.073.187.073v-.003c1.256 1.809 6.897 10.181 8.052 15.279 0 0 .616 2.47.015 4.14 0 0-.85 3.185-4.313 4.025 0 0-.998.257-2.055.405 0 0-3.869-4.982-1.992-23.773" fill="url(#adf)" transform="matrix(7.01337 0 0 -7.01337 -22.648 3618.613)"/><path d="M53.509 456.931s-.116-.016-.147-.102c0 0-.03-.114.052-.172v-.002c1.245-.898 5.032-3.546 6.86-4.061 0 0 3.375-1.15 6.304 3.884l-13.069.457v-.004z" fill="url(#adg)" transform="matrix(7.01337 0 0 -7.01337 -22.648 3618.613)"/><path d="M53.219 458.198v-.001s-.097-.066-.064-.19c0 0 .055-.097.132-.097v-.005c2.053 0 9.831-.008 10.03.026 0 0 1.004.039 2.246.516 0 0 2.766.882 4.2 4.023 0 0 1.282 2.563.292 5.555 0 0-11.1-5.953-16.836-9.827" fill="url(#adh)" transform="matrix(7.01337 0 0 -7.01337 -22.648 3618.613)"/><path d="M52.133 459.731h.006s-.064-.127.033-.209c0 0 .09-.068.176-.015 1.872.93 9.652 4.887 12.875 8.029 0 0 2.041 1.639 2.15 4.27.235 3.658-3.441 7.043-3.441 7.043s-6.813-8.244-11.799-19.118" fill="url(#adi)" transform="matrix(7.01337 0 0 -7.01337 -22.648 3618.613)"/></g></symbol><symbol viewBox="0 -0.987 499.588 236.827" id="company-logo-lg"><path fill="#C8135C" d="M117.899 235.841c65.121 0 117.914-52.876 117.914-117.9C235.812 52.797 183.02.013 117.899.013 52.781.013.013 52.797.013 117.94c0 65.024 52.768 117.901 117.886 117.901"/><path fill="#FFF" d="M113.148 66.124v103.485h32.837v-9.297h-23.344V66.124h-9.493M80.227 94.414c7.785 0 14.194-6.324 14.194-14.132 0-7.85-6.409-14.187-14.194-14.187-7.786 0-14.153 6.338-14.153 14.187 0 7.809 6.367 14.132 14.153 14.132"/><path fill="#FFF" d="M122.641 19.312c-1.292-.035-3.529-.035-4.743-.035-54.429 0-98.708 44.187-98.708 98.643 0 26.335 10.291 51.146 28.876 69.76 18.676 18.655 43.404 29.024 69.832 29.024 26.371 0 51.133-10.369 69.796-29.024 18.585-18.613 28.819-43.425 28.819-69.76v-4.51h-70.437v9.161h61.092c0 .185-.042 1.192-.042 1.398-3.007 46.594-41.984 83.369-89.228 83.369-23.858 0-46.417-9.261-63.28-26.109-16.885-16.885-26.235-39.409-26.235-63.316 0-23.887 9.352-46.367 26.235-63.245C71.482 37.747 94.042 28.431 117.9 28.431c1.059 0 3.571.056 4.743.079l-.002-9.198"/><path fill="#595959" d="M294.813 58.973h34.781v88.454h51.771v29.459H294.81l.003-117.913M470.243 165.146c-6.135 9.382-17.458 14.74-31.767 14.74-30.701 0-50.672-24.469-50.672-62.088 0-38.27 22.632-61.813 59.63-61.813 14.952 0 27.616 3.933 37.302 11.442 9.911 7.863 13.688 15.545 15.265 31.075h-36.514c-.943-9.128-7.708-14.924-16.836-14.924-13.992 0-22.202 13.039-22.202 34.688 0 21.939 8.528 35.101 22.823 35.101 11.5 0 17.938-6.248 20.613-20.401h-22.491v-24.771H500v68.688h-29.758v-11.737"/></symbol><symbol viewBox="0 0 149.06 38.26" id="company-logo-polycom"><defs><style>.\39 63ef052-0cfe-42fe-9e37-a1361c286b30{isolation:isolate}.\32 486dda9-ca60-4e63-863d-8ac8a446e871,.afb0a98238-6121-4367-be0f-4e72baa11097,.afd2edcb7f-f625-4c58-90fd-4c44fd1e7c84{opacity:.6}.\32 486dda9-ca60-4e63-863d-8ac8a446e871{fill:url(#af23577b92-9adb-4daf-b272-ed021d852911)}.afbbfb202e-157b-443e-88a9-b0d9e06aed4c{fill:url(#af2e3819e6-3f4a-414e-96d8-9ba625a4e0d9)}.\36 641a06b-e7c8-4e38-8f39-5c1ebb2694ed,.afb0a98238-6121-4367-be0f-4e72baa11097,.afd2edcb7f-f625-4c58-90fd-4c44fd1e7c84{mix-blend-mode:multiply}.afb0a98238-6121-4367-be0f-4e72baa11097{fill:url(#afd814b3ff-9b14-4b96-a920-042644cec8cd)}.\31 93da357-d5be-411b-9aa4-cb2a20eb3d3d,.\36 641a06b-e7c8-4e38-8f39-5c1ebb2694ed{opacity:.98}.\36 641a06b-e7c8-4e38-8f39-5c1ebb2694ed{fill:url(#af4160f441-70ed-4f78-bf05-e60d9559e84a)}.afd2edcb7f-f625-4c58-90fd-4c44fd1e7c84{fill:url(#afd90c6a2b-a343-47f4-88ba-f23ed89996f4)}.\31 93da357-d5be-411b-9aa4-cb2a20eb3d3d{fill:url(#afaef898cb-3158-4e0d-bfe9-70436b771da5)}.\35 6df9819-ae98-4e81-b4ed-237fd31a256b{fill:#231f20}</style><linearGradient id="af23577b92-9adb-4daf-b272-ed021d852911" x1="-472.89" y1="853.02" x2="-496.08" y2="840.73" gradientTransform="matrix(-.21 .95 -.95 -.21 713.57 653.93)" gradientUnits="userSpaceOnUse"><stop offset=".12" stop-color="#94a9bb"/><stop offset="1" stop-color="#94a9bb" stop-opacity=".4"/></linearGradient><linearGradient id="af2e3819e6-3f4a-414e-96d8-9ba625a4e0d9" x1="8.26" y1="14.18" x2="39.56" y2="17.47" gradientUnits="userSpaceOnUse"><stop offset=".4" stop-color="#d11c23"/><stop offset=".65" stop-color="#c3191f"/><stop offset="1" stop-color="#a91317"/></linearGradient><linearGradient id="afd814b3ff-9b14-4b96-a920-042644cec8cd" x1="-472.21" y1="841.27" x2="-479.26" y2="837.53" xlink:href="#af23577b92-9adb-4daf-b272-ed021d852911"/><linearGradient id="af4160f441-70ed-4f78-bf05-e60d9559e84a" x1="13.7" y1="24.53" x2="9.82" y2="13.28" gradientUnits="userSpaceOnUse"><stop offset="0" stop-color="#94a9bb"/><stop offset="1" stop-color="#94a9bb" stop-opacity=".45"/></linearGradient><linearGradient id="afd90c6a2b-a343-47f4-88ba-f23ed89996f4" x1="-491" y1="850.4" x2="-498.32" y2="846.52" xlink:href="#af23577b92-9adb-4daf-b272-ed021d852911"/><linearGradient id="afaef898cb-3158-4e0d-bfe9-70436b771da5" x1="26.53" y1="37.51" x2="17.04" y2="9.96" xlink:href="#af4160f441-70ed-4f78-bf05-e60d9559e84a"/></defs><title>company-logo-polycom</title><g class="af963ef052-0cfe-42fe-9e37-a1361c286b30"><g id="af1f913dbf-6d9f-47e7-b4a2-61c3d9c1b02d" data-name="Layer 2"><g id="af0c397bb5-ad57-4ebe-854c-917a38d199f3" data-name="Layer 1"><path class="af2486dda9-ca60-4e63-863d-8ac8a446e871" d="M25.77 19.54a12.89 12.89 0 0 0-10-15.21A12.89 12.89 0 0 0 .29 14a12.89 12.89 0 0 0 10 15.21 12.89 12.89 0 0 0 15.48-9.67zM4.52 15.79a9.9 9.9 0 0 1 11.57-7.87 9.9 9.9 0 0 1 7.25 12 9.9 9.9 0 0 1-11.58 7.87 9.9 9.9 0 0 1-7.24-12z"/><path class="afbbfb202e-157b-443e-88a9-b0d9e06aed4c" d="M23.91 0A15.78 15.78 0 0 0 8.18 15.83a16 16 0 0 0 .22 2.66 15.77 15.77 0 0 0 15.51 13.16 15.68 15.68 0 0 0 12-5.6A15.84 15.84 0 0 0 23.91 0zm10 22.32a13 13 0 0 1-8.71 3.25c-6 0-11.08-3.94-12.22-9.16a10.43 10.43 0 0 1-.06-4.19c1-5.37 6.12-9.46 12.28-9.46 6.88 0 12.46 5.11 12.46 11.41a10.67 10.67 0 0 1-2 6.23 11.74 11.74 0 0 1-1.77 1.92z"/><path class="afb0a98238-6121-4367-be0f-4e72baa11097" d="M20.77 24.84A9.67 9.67 0 0 1 13.83 28a15.38 15.38 0 0 0 1.8 1.3 12.89 12.89 0 0 0 7.12-3.93 12.29 12.29 0 0 1-1.98-.53z"/><path class="af6641a06b-e7c8-4e38-8f39-5c1ebb2694ed" d="M13 16.73c0-.1-.05-.21-.08-.32a10.57 10.57 0 0 1-.24-2.25 10.2 10.2 0 0 1 .19-1.94 14.11 14.11 0 0 0-4.5 6.26 15.83 15.83 0 0 0 2.9 6.81v.05A10.5 10.5 0 0 1 13 16.73z"/><path class="afd2edcb7f-f625-4c58-90fd-4c44fd1e7c84" d="M15.74 4.33A13.69 13.69 0 0 0 13.42 4a15.74 15.74 0 0 0-3.59 4.77 9.28 9.28 0 0 1 5.06-1A12 12 0 0 1 17.81 5a13.44 13.44 0 0 0-2.07-.67z"/><path class="af193da357-d5be-411b-9aa4-cb2a20eb3d3d" d="M35.62 20.39a15.33 15.33 0 0 0-.64-2 14.4 14.4 0 0 0-18.64-8.2 13.72 13.72 0 0 0-3.44 2 10.24 10.24 0 0 0-.19 1.94 10.58 10.58 0 0 0 .29 2.28c0 .1 0 .21.08.32a11.91 11.91 0 0 1 5.32-4.18c5.83-2.35 12.33.14 14.52 5.57a9.93 9.93 0 0 1 .69 4.49 11.26 11.26 0 0 1-4.89 8.3 12.05 12.05 0 0 1-2.4 1.29c-5.83 2.35-12.33-.15-14.52-5.57a9.9 9.9 0 0 1-.42-1.28v-.05a15.81 15.81 0 0 1-2.9-6.81 14.73 14.73 0 0 0 .2 10.57 14.4 14.4 0 0 0 18.63 8.2 14.14 14.14 0 0 0 8.68-11.2 14.69 14.69 0 0 0-.37-5.67z"/><path class="af56df9819-ae98-4e81-b4ed-237fd31a256b" d="M92.74 15.66l-3.9 10-.65 1.68-1.49-3.84-3.07-7.84H81l4.71 11.19.74 1.77.21.49.3.73a4.08 4.08 0 0 1-.77 1.5.3.3 0 0 0-.08.1 2.63 2.63 0 0 1-1.25.94 1.61 1.61 0 0 1-.89 0 3.38 3.38 0 0 1-1.19-.64l-1.31 1.7a4.81 4.81 0 0 0 2.86 1.14 3.61 3.61 0 0 0 1.16-.16A4.84 4.84 0 0 0 88 32.6a.8.8 0 0 0 .1-.13 3.87 3.87 0 0 0 .22-.33 2.83 2.83 0 0 0 .17-.28c.07-.14.15-.26.2-.4a.69.69 0 0 0 .08-.14 2 2 0 0 1 .09-.19l.09-.26.41-.94 6-14.26zM54.34 21.89H49v7.63h-2.5V10.39h7.8a5.76 5.76 0 1 1 0 11.5zm0-9.29H49v7.11h5.31a3.56 3.56 0 0 0 3.41-3.53 3.63 3.63 0 0 0-3.38-3.59zM67.89 29.89a7.05 7.05 0 0 1-7-7.32 7 7 0 1 1 14.05 0 7 7 0 0 1-7.05 7.32zm0-12.71c-2.84 0-4.65 2.41-4.65 5.39S65.05 28 67.89 28s4.65-2.41 4.65-5.42-1.78-5.4-4.65-5.4zM77.17 29.52V10.39h2.29v19.13zM102.13 29.89a7.05 7.05 0 0 1-7-7.32 7.07 7.07 0 0 1 7-7.31 6.79 6.79 0 0 1 5.45 2.38l-1.52 1.49a4.9 4.9 0 0 0-3.93-2c-2.84 0-4.65 2.41-4.65 5.39S99.3 28 102.13 28a4.89 4.89 0 0 0 3.93-2l1.52 1.52a6.88 6.88 0 0 1-5.45 2.37zM115.54 29.89a7.05 7.05 0 0 1-7-7.32 7 7 0 1 1 14.05 0 7 7 0 0 1-7.05 7.32zm0-12.71c-2.84 0-4.65 2.41-4.65 5.39S112.7 28 115.54 28s4.65-2.41 4.65-5.42-1.78-5.4-4.65-5.4zM141.3 29.52v-9c0-2.24-.92-3.3-2.64-3.3-1.46 0-2.58 1.15-3.33 2.07v10.23H133v-9c0-2.24-.95-3.3-2.64-3.3-1.49 0-2.58 1.15-3.36 2.07v10.23h-2.3V15.66h2.3v1.72a4.93 4.93 0 0 1 4-2.12 3.71 3.71 0 0 1 3.87 2.61 5.32 5.32 0 0 1 4.41-2.61c2.81 0 4.25 1.89 4.25 5.22v9zM143.71 11.86v3.33h-.48v-3.33h-1.06v-.45h2.61v.45zm4.87 3.33v-3.13l-1.29 3.12h-.14l-1.29-3.12v3.12h-.48v-3.77h.74l1.1 2.74 1.1-2.74h.74v3.77z"/></g></g></g></symbol><symbol viewBox="0 0 500 500" id="contact-icon-email"><path fill="#FFF" d="M8.8 187.8h482.4v264.6H8.8z"/><path fill="#F28C13" d="M250 318.1L8.8 450.4V185.8zM413.4 230.4v221.9h77.8V187.8z"/><path fill="#FFB957" d="M8.8 452.3h404.6V230.4z"/><path fill="#4D5152" d="M499 460.1H1V180h77.8v15.5H16.6v249h466.8v-249h-62.2V180H499z"/><path fill="#FFF" d="M413.4 234.4L250 320 86.6 234.4V47.7h264.6l62.2 62.2z"/><path fill="#4D5152" d="M5.016 445.44l482.415-264.536 7.5 13.678L12.517 459.118z"/><path fill="#4D5152" d="M5.002 194.568l7.5-13.678L253.71 313.158l-7.5 13.678z"/><path fill="#4D5152" d="M421.2 234.4h-15.6V117.7h-62.2V55.5h-249v178.9H78.8V39.9h280.1v62.3h62.3z"/><path fill="#4D5152" d="M345.66 53.206l11.03-11.03 62.225 62.224-11.031 11.031z"/><path fill="#67DDE0" d="M125.5 55.5h186.8v77.8H125.5z"/><path fill="#4D5152" d="M125.5 148.8h249v15.6h-249zM125.5 180h249v15.6h-249zM125.5 211.1h249v15.6h-249zM125.5 242.2h249v15.6h-249zM180 273.3h140.1v15.6H180zM141.1 71h15.6v15.6h-15.6zM172.2 71h15.6v15.6h-15.6zM203.3 71h15.6v15.6h-15.6z"/></symbol><symbol viewBox="0 0 500 500" id="contact-icon-location"><path fill="#FFF" d="M328.9 50.6l157.8 83.1v315.7l-157.8-83.1-157.8 83.1-157.8-83.1V50.6l157.8 83.1z"/><path fill="#4D5152" d="M486.7 457.7c-1.3 0-2.7-.3-3.9-1l-153.9-81-153.9 81c-2.4 1.3-5.3 1.3-7.7 0L9.4 373.6c-2.7-1.4-4.4-4.3-4.4-7.3V50.6c0-2.9 1.5-5.6 4-7.1s5.6-1.6 8.2-.2l153.9 81 153.9-81c2.4-1.3 5.3-1.3 7.7 0l157.8 83.1c2.7 1.4 4.4 4.3 4.4 7.3v315.7c0 2.9-1.5 5.6-4 7.1-1.2.8-2.7 1.2-4.2 1.2zM21.6 361.3L171.1 440 325 359c2.4-1.3 5.3-1.3 7.7 0l145.6 76.7v-297L328.9 60 175 141c-2.4 1.3-5.3 1.3-7.7 0L21.6 64.4v296.9z"/><path fill="#4D5152" d="M162.8 133.7h16.6v315.7h-16.6zM320.6 50.6h16.6v315.7h-16.6z"/><path fill="#ACF0F2" d="M461.8 399.5l-108-58.1V100.5l108 58.1zM196 399.5l108-58.1V100.5l-108 58.1z"/><path fill="#F28C13" d="M403.6 283.2c0 41.5-74.7 174.4-74.7 174.4s-74.7-132.9-74.7-174.4 33.2-74.8 74.7-74.8 74.7 33.3 74.7 74.8z"/><ellipse fill="#FFF" cx="329.9" cy="283.2" rx="33.2" ry="33.2"/><path fill="#4D5152" d="M328.3 324.8c-22.5 0-40.4-18-40.9-41.3-.3-10.9 3.9-21.2 11.6-29.1 7.8-8 18.8-12.6 30-12.6 22.9 0 41.5 18.6 41.5 41.5s-18.2 41.1-41.4 41.5h-.8zm.6-66.5c-6.8 0-13.4 2.8-18.1 7.6-4.6 4.7-7 10.7-6.8 17.1.3 14.4 10.7 25.1 24.3 25.1h.5c14.1-.3 25.1-11.2 25.1-24.9-.1-13.7-11.3-24.9-25-24.9z"/><path fill="#ACF0F2" d="M146.2 399.5l-108-58.1V100.5l108 58.1z"/></symbol><symbol viewBox="0 0 543.2 543.2" id="contact-icon-phone"><path fill="#FFF" d="M502.3 436.7c0 9.1-7.4 16.5-16.5 16.5H122.4c-9.1 0-16.5-7.4-16.5-16.5V40.4c0-9.1 7.4-16.5 16.5-16.5h363.4c9.1 0 16.5 7.4 16.5 16.5v396.3z"/><path fill="#4D5152" d="M485.8 461.5h-256V445h256c4.6 0 8.3-3.7 8.3-8.3V40.4c0-4.6-3.7-8.3-8.3-8.3H122.4c-4.6 0-8.3 3.7-8.3 8.3v396.4c0 4.6 3.7 8.3 8.3 8.3h57.8v16.5h-57.8c-13.7 0-24.8-11.1-24.8-24.8V40.4c0-13.7 11.1-24.8 24.8-24.8h363.4c13.7 0 24.8 11.1 24.8 24.8v396.4c0 13.6-11.1 24.7-24.8 24.7z"/><path fill="#4D5152" d="M155.5 527.6H89.4c-31.9 0-57.8-25.9-57.8-57.8V379c0-31.9 25.9-57.8 57.8-57.8h16.5v16.5H89.4c-22.8 0-41.3 18.5-41.3 41.3v90.8c0 22.8 18.5 41.3 41.3 41.3h66.1c22.8 0 41.3-18.5 41.3-41.3V412h16.5v57.8c0 31.8-26 57.8-57.8 57.8z"/><path fill="#67DDE0" d="M295.9 65.1h165.2v49.5H295.9z"/><path fill="#FFB957" d="M262.8 164.2H494v181.7H262.8z"/><path fill="#4D5152" d="M312.4 197.3h33v16.5h-33zM361.9 197.3h33v16.5h-33zM411.5 197.3h33v16.5h-33zM312.4 131.2h33v16.5h-33zM361.9 131.2h33v16.5h-33zM411.5 131.2h33v16.5h-33zM312.4 230.3h33v16.5h-33zM361.9 230.3h33v16.5h-33zM411.5 230.3h33v16.5h-33zM312.4 263.3h33v16.5h-33zM361.9 263.3h33v16.5h-33zM411.5 263.3h33v16.5h-33zM312.4 296.4h33v16.5h-33zM361.9 296.4h33v16.5h-33zM411.5 296.4h33v16.5h-33zM238 412h-66c-13.7 0-24.8-11.1-24.8-24.8V89.9c0-13.7 11.1-24.8 24.8-24.8h66c13.7 0 24.8 11.1 24.8 24.8v297.3c0 13.7-11.1 24.8-24.8 24.8zM172 81.6c-4.6 0-8.3 3.7-8.3 8.3v297.3c0 4.6 3.7 8.3 8.3 8.3h66c4.6 0 8.3-3.7 8.3-8.3V89.9c0-4.6-3.7-8.3-8.3-8.3h-66z"/><path fill="#4D5152" d="M196.7 230.3h16.5v16.5h-16.5zM196.7 197.3h16.5v16.5h-16.5zM196.7 263.3h16.5v16.5h-16.5z"/></symbol><symbol viewBox="0 0 424 400" id="expanding"><defs><clipPath id="aja" transform="translate(-50 -68)"><path fill="none" d="M0 0h512v512H0z"/></clipPath></defs><title>expanding</title><g data-name="Layer 1"><g clip-path="url(#aja)"><path d="M416 384H8a8 8 0 0 0 0 16h408a8 8 0 0 0 0-16z" fill="#2c3e50"/></g><g clip-path="url(#aja)"><path d="M342.8 103.2l3.2-1.6V8h60v67.2c1.2.4 2.8.8 4 1.2a14.37 14.37 0 0 1 4 2.8V0h-76v106.8a15.11 15.11 0 0 1 4.8-3.6z" fill="#3b97d3"/></g><g clip-path="url(#aja)"><path d="M408 166h-2v194h-60V196.4c-2.8 2.4-5.2 4.8-8 7.2V368h76V164.4a16.76 16.76 0 0 1-6 1.6z" fill="#3b97d3"/></g><g clip-path="url(#aja)"><path d="M346 132.8a15 15 0 0 1-8-4.8v31.2c2.8-2.8 5.2-6 8-9.2z" fill="#3b97d3"/></g><g clip-path="url(#aja)"><path d="M154 283.6V360h-52v-72.8h-8V368h68v-85.2c-2.8.4-5.2.4-8 .8z" fill="#3b97d3"/></g><g clip-path="url(#aja)"><path d="M98.4 255.2h3.6V172h52v79.6c2.4-.4 4.4-.4 6.8-.8a1.47 1.47 0 0 0 1.2-.4V164H94v91.2z" fill="#3b97d3"/></g><g clip-path="url(#aja)"><path d="M182 246.4V128h56v101.2c2.8-1.2 5.2-2.4 8-3.6V120h-72v128a56.63 56.63 0 0 0 8-1.6z" fill="#3b97d3"/></g><g clip-path="url(#aja)"><path d="M238 263.2V360h-56v-80.8c-2.8.4-5.2 1.2-8 1.6V368h72V260.4c-2.8.8-5.2 2-8 2.8z" fill="#3b97d3"/></g><g clip-path="url(#aja)"><path d="M266 216V80h52v99.2c2.8-2.4 5.2-4.8 8-7.6V72h-68v148c2.8-1.2 5.2-2.8 8-4z" fill="#3b97d3"/></g><g clip-path="url(#aja)"><path d="M318 220v140h-52V251.2c-2.8 1.2-5.2 2.4-8 3.6V368h68V214c-2.8 2-5.2 4-8 6z" fill="#3b97d3"/></g><g clip-path="url(#aja)"><path d="M74 286.8V360H18v-79.6c-3.2-.8-6-1.2-8-1.6V368h72v-80.8a53.6 53.6 0 0 0-8-.4z" fill="#3b97d3"/></g><g clip-path="url(#aja)"><path d="M18 247.6V180h56v74.4c2.8 0 5.2.4 8 .4V172H10v74.4a15 15 0 0 1 4 .4 25.87 25.87 0 0 0 4 .8z" fill="#3b97d3"/></g><g clip-path="url(#aja)"><path d="M410.8 90.4a9.82 9.82 0 0 0-4.4-6.8 6.86 6.86 0 0 0-6.8 0h-.4L346.4 110a8 8 0 0 0-3.6 10.8 8.43 8.43 0 0 0 7.2 4.4 11.68 11.68 0 0 0 3.6-.8l30.4-15.2c-48 83.6-122.4 133.6-222 149.2-81.2 12.8-149.2-3.6-150-4A8.005 8.005 0 0 0 8.4 270c2 .4 38 9.2 89.6 9.2a438.22 438.22 0 0 0 66-4.8c72.8-11.2 170-47.6 233.2-155.2l2 31.2a8.22 8.22 0 0 0 8 7.6h.4a8.31 8.31 0 0 0 7.6-8.4z" fill="#2c3e50"/></g></g></symbol><symbol viewBox="0 0 996.9 652.11" id="expanding-mono"><title>expanding</title><path d="M996.9 152.65c-1.18 1.08-2.85 1.95-3.45 3.29-6.43 14.2-18.15 23.7-30.06 32.6a309.29 309.29 0 0 1-36.68 23.77c-23.76 13-47.94 25.21-72.2 37.25-16.93 8.41-34.22 16.11-51.45 23.91-15.71 7.11-31.59 13.85-47.34 20.89-20.59 9.2-41.08 18.64-61.69 27.79-17.27 7.66-34.65 15.11-52 22.55-14.19 6.07-28.38 12.15-42.68 17.93s-28.83 11.83-43.57 16.79q-33 11.12-66.54 20.8c-21.07 6-42.46 11-63.65 16.64-20.08 5.33-40.08 11-60.15 16.32-16.74 4.47-33.54 8.69-50.24 13.15-20.4 5.44-40.74 11.1-61.14 16.52-16.88 4.49-33.83 8.66-50.7 13.17-15.39 4.11-30.6 9-46.11 12.53a53.2 53.2 0 0 1-21 .66c-13.38-2.47-21.11-19.15-16.61-32.37 2.8-8.23 2.66-8.17-3.74-13.41q-12.13-9.95-24-20.16-19.7-16.81-39.2-33.79-22.14-19.32-44.08-38.83c-2.76-2.46-5.72-5-7.47-8.19-2.63-4.73-.55-9.51 4.15-12.23 19.1-11.07 39.83-13.44 61.11-10.18 13.07 2 25.82 6.09 38.74 9.11 6.48 1.51 13 2.69 19.54 4.07 14 2.95 28 5.82 41.93 8.91 22.54 5 45 10.11 67.56 15.2 7.61 1.72 15.18 3.64 22.82 5.26a7.14 7.14 0 0 0 4.71-.65c19.55-11.62 38.95-23.51 58.54-35.06 17.11-10.09 34.41-19.86 51.67-29.72 5.89-3.36 12-6.42 17.77-9.91 1.49-.89 3.23-2.92 3.18-4.36s-2.12-2.93-3.6-4c-6.13-4.22-12.43-8.21-18.58-12.41q-18.5-12.62-36.91-25.36c-11.45-7.9-22.86-15.88-34.33-23.76s-23.06-15.72-34.55-23.57q-29.75-20.38-59.48-40.8c-13.67-9.35-27.44-18.55-41.06-28-11-7.62-21.87-15.55-32.91-23.18-8.45-5.84-17.13-11.34-25.6-17.15-11.23-7.71-22.34-15.58-33.51-23.37-7.6-5.3-15.46-10.27-22.76-15.95-6.5-5.06-4.38-15.69 3.36-18.62 19.08-7.23 38-14.87 57.32-21.47 17.34-5.93 35.46-7.41 53.07-1.79 13.4 4.27 26.12 10.67 39.15 16.1 10.73 4.47 21.51 8.82 32.19 13.4 24.55 10.53 49 21.25 73.6 31.72 16.2 6.9 32.89 12.75 48.61 20.58 6.58 3.28 10.64.39 15.45-1.55 14.76-6 29.4-12.24 44-18.54 14-6 27.88-12.35 41.91-18.29 15.08-6.39 29.43-4.15 41.33 6.65 9.46 8.58 13.52 20.33 12.92 33.36-.76 16.43-9.14 27.16-24.43 32.8-3.08 1.14-6.11 2.46-9.07 3.89-.93.45-2.13 1.52-2.16 2.35a3.55 3.55 0 0 0 1.93 2.55 78 78 0 0 0 9.74 3.73c23 6.76 46 13.32 68.92 20.16 14.15 4.22 28.18 8.86 42.3 13.2 6.2 1.9 12.44 3.78 18.77 5.12 2.23.47 5-.27 7.19-1.15 15.74-6.17 31.24-13 47.14-18.72q50.63-18.18 101.6-35.49a339.55 339.55 0 0 1 39.48-10.57c13.81-2.86 27.74-.86 41.62 1.1 16.14 2.28 32.37 4 48.6 5.61 18.2 1.75 36.51 2.48 54.64 4.73 10.65 1.32 21.43 3.84 29.38 12.25 1.56 1.65 2.47 3.91 4 5.58a32.73 32.73 0 0 0 4.76 3.61zM357.74 652.07c-13.27.59-18.13-13.75-12.41-25.17 4.22-8.43 9.34-16.42 14.13-24.56 3.69-6.27 7.51-12.47 11.24-18.71 9.35-15.64 18.79-31.24 28-47 7.38-12.59 14.36-25.42 21.76-38 10-17 20.66-33.59 30.11-50.87 3.3-6 7.92-7.83 13.56-9.34 17.82-4.76 35.65-9.49 53.43-14.37 10.86-3 21.8-5.75 32.43-9.43 13-4.5 25.77-9.73 38.56-14.85q27.26-10.87 54.35-22.12c7.06-2.91 13.91-6.31 21-9.25 5.64-2.35 10-1.33 12.54 2.44s1.59 8.62-2.84 12.87c-12.94 12.41-25.94 24.75-38.82 37.21-1 1-2 3-1.71 4.17s2.33 2.24 3.73 2.45c12 1.79 24.37 13.93 24.73 28 .21 7.93-.25 15.19-4.07 22.38-3.26 6.14-8.68 9.27-14.33 11.82-15.59 7-31.51 13.35-47.17 20.23-21 9.2-41.66 19-62.75 27.86-9.62 4-17.16 9.51-23.39 18.14-9.31 12.89-19.8 25-30.38 36.88-11.78 13.25-23.6 26.6-36.66 38.53-5.8 5.29-14.37 8.67-22.24 10.36-19.63 4.21-39.57 6.95-59.39 10.26a30.45 30.45 0 0 1-3.41.07z"/></symbol><symbol viewBox="0 0 32 32" id="facebook"><path d="M30.7 0H1.3C.6 0 0 .6 0 1.3v29.3c0 .8.6 1.4 1.3 1.4H17V20h-4v-5h4v-4c0-4.1 2.6-6.2 6.3-6.2 1.8 0 3.3.2 3.7.2v4.3h-2.6c-2 0-2.5 1-2.5 2.4V15h5l-1 5h-4l.1 12h8.6c.7 0 1.3-.6 1.3-1.3V1.3C32 .6 31.4 0 30.7 0z"/></symbol><symbol viewBox="0 0 476.03 380.43" id="growth"><defs><clipPath id="ama" transform="translate(-17.57 -62)"><path fill="none" d="M0 0h512v512H0z"/></clipPath></defs><title>Asset 1</title><g data-name="Layer 1"><g clip-path="url(#ama)"><path d="M59.23 281.6a4.4 4.4 0 0 1 2.4-4 4 4 0 0 1 5.2 2l24 53.2a3.94 3.94 0 1 1-7.2 3.2l-24-53.2a1.47 1.47 0 0 1-.4-1.2z" fill="#2c3e50"/></g><g clip-path="url(#ama)"><path d="M442.83 241.2a78.1 78.1 0 0 0-9.2.8c-29.6 5.2-115.2 34.4-132 40a108.79 108.79 0 0 1-4 18.4l6.4-2c1.2-.4 101.2-34.8 132.4-40.4a39.89 39.89 0 0 1 6.4-.8 21.42 21.42 0 0 1 9.6 2c-49.6 31.2-142.8 88.8-163.6 97.2-11.2 4.4-19.6 6.4-26.4 6.4-8 0-14.8-2.4-24.8-6.4-20-8-119.6-44.4-123.2-46L96.83 346l-43.2 18.4h-1.6l-35.6-75.2c0-.8.4-2 .8-2 0 0 98-39.6 110-44a85.86 85.86 0 0 1 32-6c20 0 41.6 6.4 64 19.2 25.6 14.4 42.4 24.8 52.4 31.2-.8 3.6-1.6 6.8-2.8 8.4-14-1.2-54-12.8-80-20.8l-4.4 14.8s68.4 22 87.2 22h1.6c9.2-.8 13.6-19.6 15.6-31.6-10.4-6.8-34.4-23.2-61.6-38.4-28-15.6-52.4-21.2-72-21.2a102 102 0 0 0-38 7.2l-110.8 44.4c-6.4 2.8-10.8 10.8-10.4 18a10.65 10.65 0 0 0 1.2 4.8l35.6 76c3.6 8 14 11.2 22.4 8l43.2-18.4c4.4-2 6.8-6 10.4-11.6l8.4-18.8s90 32.8 110 40.8c10.8 4.4 20 7.6 30.4 7.6 8.8 0 18.8-2 32.4-7.6 30-12 182-108.4 182-108.4s-7.6-21.6-33.2-21.6z" fill="#2c3e50"/></g><g clip-path="url(#ama)"><path d="M203.23 164.8h-1.6c-9.6-.4-24.8-5.2-44.4-23.2l15.6-4.8c15.6-5.2 32-10.4 46.8-10.4a49.24 49.24 0 0 1 8 .8c9.2 1.6 17.2 5.6 27.6 19.6-24.8 12.8-39.6 18-52 18zm70.8-18.8c-14.8-23.6-27.6-32.4-44-35.2-36.8-6-78.8 22.4-105.2 19.6 16.8 20 44.8 49.2 76.4 50.4 20 .8 41.2-8.4 73.2-27.2 3.2-2.4 1.6-4-.4-7.6z" fill="#3b97d3"/></g><g clip-path="url(#ama)"><path d="M336.43 82.8c-7.2 10.8-20 20-46.4 32.4-5.6-16.4-4-25.2 0-33.6 7.6-14.8 24-26.8 40-38.8 4.4-3.2 8.8-6.4 13.2-10 3.2 26.8-1.6 41.6-6.8 50zM352.83 0c-12.8 23.6-60.4 41.2-77.2 74.4-7.6 15.2-7.6 30.8 2.8 56.4 1.6 4 2 6 6 4.4 34-15.2 54-27.2 64.8-43.6 17.6-26 10.4-66.4 3.6-91.6z" fill="#3b97d3"/></g><g clip-path="url(#ama)"><path d="M266.43 253.6c3.6 2.4 7.2 4.8 10.8 6.8 15.2-26.8 30-70 22.4-112-.8-3.6-5.6-5.2-8.8-3.6-4 1.2-4.8 5.2-4.4 8.8 5.6 33.2-5.2 74.8-20 100z" fill="#3b97d3"/></g></g></symbol><symbol id="growth-mono" viewBox="0 0 448.26 447.32"><defs><style>.\37 fb4fdee-b44d-49c3-8116-f15bb61c58c6{fill:none}.\31 616e574-519c-48f0-93ab-5effcb7e378c{clip-path:url(#an195686e6-c72e-480d-b663-08f31227e339)}</style><clipPath id="an195686e6-c72e-480d-b663-08f31227e339" transform="translate(-32.29 -39.9)"><path class="an7fb4fdee-b44d-49c3-8116-f15bb61c58c6" d="M0 0h512v512H0z"/></clipPath></defs><title>growth-mono</title><path d="M212.21 252.68c30.76 5.58 58-24.68 35.7-38.53a95.08 95.08 0 0 0-50.37-14.39 95.36 95.36 0 0 1 56 4.26 5.33 5.33 0 0 0 7-6.7c-9.59-29.56-44.33-40.59-76.62-14.36-17 13.8-23.37 16.73-23.53 16.8 11.11 11.24 23.9 48.76 51.82 52.92zM271.39 137.08c1.11-28.65 15.37-50.3 42-62.28a129.32 129.32 0 0 0-23.81 50.64c-6.29 27.86-12.86 46.13-15.27 134.93a15.91 15.91 0 0 0 16.06 16.35 16.16 16.16 0 0 0 14.62-10.24 72.42 72.42 0 0 1 20.12-27.31 42.66 42.66 0 0 0 39.32 13.52c27.8-4.14 40.77-41.79 51.91-52.92-.16-.07-6.55-3-23.53-16.8-55.74-45.28-91.29 26.13-69.19 19a95 95 0 0 1 50.06-2.24 95.9 95.9 0 0 0-74 35.11c1.47-34.18 3.7-55.58 6.28-71.49 14.9-.51 34.75-12.54 45.65-33.59 18.8-33.64 10.08-68.12 7.27-89.89C344.18 54.2 280 37.45 254.6 81c-11.23 19.25-8 42.68 3.85 59.82 3.74 5.46 12.68 2.85 12.94-3.74zM474.7 293.59c-17.43-11.82-36.39-3.4-45.1 1.63l-109.3 80h-64l-16-16h58.78c17.68 0 37.47-11.51 37.47-32 0-21.76-19.8-32-37.47-32H277c-16.36 0-35.48 1.46-49-5.76a95.29 95.29 0 0 0-43.3-10.23c-26.44 0-50.1 10.54-66.32 27.16l-86.09 84.83 96 96 32-48h151.22a65.88 65.88 0 0 0 43.75-16.63l120.53-107.07c6.71-5.95 6.33-16.9-1.09-21.93z" transform="translate(-32.29 -39.9)" class="an1616e574-519c-48f0-93ab-5effcb7e378c"/></symbol><symbol viewBox="0 0 42.81 27.16" id="icon-cloud"><title>icon-cloud</title><path d="M20.9 10.29s1.41-7.45 11.42-6.84c9.15.56 10.31 7.61 10.48 10.07s-.84 8.42-5.6 10.15a25.81 25.81 0 0 1-9.51 1.38 12.6 12.6 0 0 1-7.58 2.05c-4-.42-7.31-3.83-7.31-3.83S5 24.81 1.23 18.07 3.51 7.23 3.51 7.23A9.7 9.7 0 0 1 10.46 6s-2.25 2.43-2.63 8.31c0 0 1.23-9.82 9.51-13.38A10.28 10.28 0 0 1 28.78 3s-7.1.41-7.88 7.34" data-name="Layer 1"/></symbol><symbol viewBox="0 0 38.79 28.66" id="icon-internet"><title>icon-internet</title><g data-name="Layer 1"><path d="M0 26c0 2.71 1.73 2.7 1.73 2.7L37 28.45s1.77 0 1.76-2.72S37 23 37 23l-35.3.21S0 23.24 0 26m15-.88h7s.88 0 .88.79-.87.81-.87.81h-7.05s-.89 0-.89-.8.88-.8.88-.8M37 21.14l-.1-17.63C36.87 0 33.34 0 33.34 0L5.13.17a3.45 3.45 0 0 0-3.5 3.55l.1 17.63h1.93L3.4 3.7c0-1.6 1.89-1.77 1.89-1.77l27.89-.16s1.94.14 1.95 1.75l.1 17.64z"/></g></symbol><symbol viewBox="0 0 17.04 29.9" id="icon-mobile"><title>icon-mobile</title><path d="M14.71 0L2.16.07A2.17 2.17 0 0 0 0 2.26l.15 25.49a2.17 2.17 0 0 0 2.18 2.15l12.55-.07A2.17 2.17 0 0 0 17 27.65l-.11-25.49A2.17 2.17 0 0 0 14.71 0M8.6 27.72a1.39 1.39 0 1 1 1.4-1.39 1.39 1.39 0 0 1-1.4 1.39m2.87-.72a.66.66 0 1 1 .65-.66.66.66 0 0 1-.65.66m-5.7 0a.66.66 0 1 1 .65-.66.66.66 0 0 1-.65.66m9.61-4.08L1.75 23 1.64 3.75l13.64-.08z" data-name="Layer 1"/></symbol><symbol viewBox="0 0 36.63 29.5" id="icon-voice"><title>icon-voice</title><path d="M33.85 2.82a60.23 60.23 0 0 0-10.31-1.18A68.3 68.3 0 0 0 12.13 3l.22 18.31a1.17 1.17 0 0 1-.38.95c-.33.31-1.17.23-1.17.23L10.63 3a3.12 3.12 0 0 0-3.48-3C3.39 0 3.52 3 3.52 3l.1 19.54a1.17 1.17 0 0 1-.73-.25 1.05 1.05 0 0 1-.23-.61L2.48 3H2C.51 3 0 4.37 0 6l.1 17.45a2.86 2.86 0 0 0 2.68 3h3.63v-1.9s0-.53.18-.69a.48.48 0 0 1 .47-.13v2.97A1.84 1.84 0 0 1 5 28.54H.16v.91h4.87s3 .17 3-2.66v-.4L34 26.26a2.85 2.85 0 0 0 2.64-3l-.1-17.41c0-1.66-1-2.6-2.68-3M15 4.73a.73.73 0 0 1 .6-.35 54.81 54.81 0 0 1 8.9-1 45.26 45.26 0 0 1 7.87 1c.51.09.59.15.72.31s.09.59.09.59v4.88l-18.26.11v-5.1a.94.94 0 0 1 .08-.44m1.5 17.72a1.27 1.27 0 1 1 1.26-1.27 1.27 1.27 0 0 1-1.26 1.27m0-4a1.27 1.27 0 1 1 1.26-1.28 1.27 1.27 0 0 1-1.26 1.28m0-3.71a1.27 1.27 0 1 1 1.26-1.27 1.27 1.27 0 0 1-1.26 1.27m4.3 7.65a1.27 1.27 0 1 1 1.2-1.24 1.27 1.27 0 0 1-1.26 1.27m0-4A1.27 1.27 0 1 1 22 17.18a1.27 1.27 0 0 1-1.26 1.27m0-3.71A1.27 1.27 0 1 1 22 13.47a1.27 1.27 0 0 1-1.26 1.27M25 22.4a1.27 1.27 0 1 1 1.26-1.27A1.27 1.27 0 0 1 25 22.4m0-4a1.27 1.27 0 1 1 1.26-1.27 1.27 1.27 0 0 1-1.26 1.3m0-3.71a1.27 1.27 0 1 1 1.26-1.27A1.27 1.27 0 0 1 25 14.72M31.59 22h-2.31a.88.88 0 0 1 0-1.76h2.32a.88.88 0 0 1 0 1.76m-.07-4H29.3a.85.85 0 0 1 0-1.69h2.23a.85.85 0 1 1 0 1.69m0-3.72h-2.3a.89.89 0 0 1 0-1.77h2.32a.88.88 0 0 1 0 1.77" data-name="Layer 1"/></symbol><symbol viewBox="0 0 32 32" id="instagram"><path d="M28.2 0H3.8C1.7 0 0 1.7 0 3.8v24.4C0 30.3 1.7 32 3.8 32h24.4c2.1 0 3.8-1.7 3.8-3.8V3.8C32 1.7 30.3 0 28.2 0zM24 4h3c.6 0 1 .4 1 1v3c0 .6-.4 1-1 1h-3c-.6 0-1-.4-1-1V5c0-.6.4-1 1-1zm-8 5.9c3.4 0 6.2 2.7 6.2 6.1 0 3.4-2.8 6.1-6.2 6.1-3.4 0-6.2-2.7-6.2-6.1.1-3.4 2.8-6.1 6.2-6.1zM28 29H4c-.6 0-1-.4-1-1V13h4c-.5.8-.7 2.1-.7 3 0 5.4 4.4 9.7 9.7 9.7 5.4 0 9.7-4.4 9.7-9.7 0-.9-.1-2.3-.8-3h4v15c.1.6-.3 1-.9 1z"/></symbol><symbol viewBox="0 0 24 24" id="location-pin"><path d="M12 2C8.13 2 5 5.13 5 9c0 5.25 7 13 7 13s7-7.75 7-13c0-3.87-3.13-7-7-7zm0 9.5a2.5 2.5 0 0 1 0-5 2.5 2.5 0 0 1 0 5z"/></symbol><symbol viewBox="0 0 24 24" id="mail"><path d="M20 4H4c-1.1 0-1.99.9-1.99 2L2 18c0 1.1.9 2 2 2h16c1.1 0 2-.9 2-2V6c0-1.1-.9-2-2-2zm0 14H4V8l8 5 8-5v10zm-8-7L4 6h16l-8 5z"/></symbol><symbol viewBox="0 0 234.48 240.64" id="more-arrow"><title>more-arrow</title><path d="M0 130.47a15.35 15.35 0 0 0 15.37 15.37h127.36l-54 54a15.47 15.47 0 0 0 0 21.78l14.5 14.49a15.45 15.45 0 0 0 21.78 0l105-105a15.29 15.29 0 0 0 0-21.69L125 4.49a15.45 15.45 0 0 0-21.78 0L88.7 19a15.47 15.47 0 0 0 0 21.78l54 53.86H15.45A15.4 15.4 0 0 0 .08 110z" data-name="Layer 1"/></symbol><symbol viewBox="0 0 24 24" id="phone"><path d="M6.62 10.79c1.44 2.83 3.76 5.14 6.59 6.59l2.2-2.2c.27-.27.67-.36 1.02-.24 1.12.37 2.33.57 3.57.57.55 0 1 .45 1 1V20c0 .55-.45 1-1 1-9.39 0-17-7.61-17-17 0-.55.45-1 1-1h3.5c.55 0 1 .45 1 1 0 1.25.2 2.45.57 3.57.11.35.03.74-.25 1.02l-2.2 2.2z"/></symbol><symbol viewBox="0 0 353.04 455.32" id="project-completed"><defs><clipPath id="axa" transform="translate(-79.88 -31.88)"><path fill="none" d="M0 0h512v512H0z"/></clipPath></defs><title>project-completed</title><g data-name="Layer 1"><g clip-path="url(#axa)"><path d="M30.52 91.32l32-6.4a29.21 29.21 0 0 0 22.4-22.4l6.4-32c4-20 26.4-28.8 43.2-17.6l26.4 17.6a27.75 27.75 0 0 0 31.2 0l26.4-17.6a28.18 28.18 0 0 1 43.2 17.6l6.4 32a29.21 29.21 0 0 0 22.4 22.4l32 6.4c20 4 28.8 26.4 17.6 43.2l-17.6 26.4a27.75 27.75 0 0 0 0 31.2l17.6 26.4a28.18 28.18 0 0 1-17.6 43.2l-32 6.4a29.21 29.21 0 0 0-22.4 22.4l-6.4 32c-4 20-26.4 28.8-43.2 17.6l-26.4-17.6a27.75 27.75 0 0 0-31.2 0l-26.4 17.6a28.18 28.18 0 0 1-43.2-17.6l-6.4-32a29.21 29.21 0 0 0-22.4-22.4l-32-6.4c-20-4-28.8-26.4-17.6-43.2l17.6-26.4a27.75 27.75 0 0 0 0-31.2l-17.6-26.4a28.18 28.18 0 0 1 17.6-43.2z" fill="none" stroke="#2c3e50" stroke-linecap="round" stroke-linejoin="round" stroke-width="16"/></g><g clip-path="url(#axa)"><path fill="none" stroke="#2c3e50" stroke-linecap="round" stroke-linejoin="round" stroke-width="16" d="M100.12 364.92v82.4l76-56.8 78.4 56.8v-82.4"/></g><g clip-path="url(#axa)"><path fill="none" stroke="#2c3e50" stroke-linecap="round" stroke-linejoin="round" stroke-width="16" d="M177.72 344.92v20"/></g><g clip-path="url(#axa)"><path fill="none" stroke="#2c3e50" stroke-linecap="round" stroke-linejoin="round" stroke-width="16" d="M108.92 167.32l61.6 63.2 100-102.4"/></g></g></symbol><symbol viewBox="0 0 468.46 455.6" id="relocating"><defs><clipPath id="aya" transform="translate(-20.19 -28.4)"><path fill="none" d="M0 0h512v512H0z"/></clipPath></defs><title>relocating</title><g data-name="Layer 1"><g clip-path="url(#aya)"><path d="M266.61 348.4l-38.8-40.8V254a8 8 0 0 0-16 0v37.2l-70.8-72.4h-.8l-.4-.4c-.4 0-.4-.4-.8-.4s-.4-.4-.8-.4-.4-.4-.8-.4-.4 0-.8-.4h-4c-.4 0-.4 0-.8.4-.4 0-.4 0-.8.4-.4 0-.4.4-.8.4s-.4.4-.8.4-.4.4-.8.4l-.4.4L2.21 354a7.73 7.73 0 0 0 .4 11.2 7.74 7.74 0 0 0 5.2 2.4 8.82 8.82 0 0 0 6-2.4l121.2-128.8 119.6 123.2a7.9 7.9 0 0 0 5.6 2.4 8.82 8.82 0 0 0 6-2.4 8.11 8.11 0 0 0 .4-11.2z" fill="#3b97d3"/></g><g clip-path="url(#aya)"><path d="M211.81 325.6v98.8c0 8.8-8.8 14.8-17.6 14.8h-22.4v-65.6c0-8.8-8.8-18.4-17.6-18.4h-39.6c-8.8 0-14.8 9.6-14.8 18.4v66h-25.6c-8.8 0-14.4-6-14.4-14.8v-96l-16 17.2v78.8c0 17.6 12.8 30.8 30.4 30.8h41.6v-84h40v84h38.4c17.6 0 33.6-13.2 33.6-30.8v-82.4z" fill="#3b97d3"/></g><g clip-path="url(#aya)"><path d="M466.21 131.2l-38.4-40.4v-54a8 8 0 0 0-16 0V74l-70.8-72h-.8l-.4-.4c-.4 0-.4-.4-.8-.4s-.4-.4-.8-.4-.4-.4-.8-.4-.4 0-.8-.4h-4c-.4 0-.4 0-.8.4-.4 0-.4 0-.8.4-.4 0-.4.4-.8.4s-.4.4-.8.4-.4.4-.8.4l-.4.4-126.4 134.8a7.73 7.73 0 0 0 .4 11.2 7.49 7.49 0 0 0 5.6 2 8.82 8.82 0 0 0 6-2.4l121.2-128.8 119.6 123.2a7.9 7.9 0 0 0 5.6 2.4 8.82 8.82 0 0 0 6-2.4 8.09 8.09 0 0 0 0-11.2z" fill="#3b97d3"/></g><g clip-path="url(#aya)"><path d="M411.81 108.8v98.8c0 8.8-9.2 16-18 16h-22v-66.4c0-8.8-9.2-17.6-18-17.6h-39.6c-8.8 0-14.4 8.8-14.4 17.6v66.4h-26c-8.8 0-14-7.2-14-16V112l-16 17.2v78.4c0 17.6 12.4 32 30 32h42v-84h40v84h38c17.6 0 34-14.4 34-32v-82.4z" fill="#3b97d3"/></g><g clip-path="url(#aya)"><path d="M188.21 70.4L45.41 221.6c2.8-.4 5.2-.4 8-.8 9.6-71.6 62.8-129.2 132-144.8l-9.6 18.8a3.53 3.53 0 0 0 1.6 5.2c2 .8 4.4.4 5.2-1.6l14.4-28a4.25 4.25 0 0 0-.8-4.8 1.4 1.4 0 0 0-.8-.4l-28.8-14.8a7.8 7.8 0 0 0-3.2-.4c-.8.4-2 .8-2.4 2a3.53 3.53 0 0 0 1.6 5.2l20.8 10.8c-72.8 16.4-128.8 77.6-138 153.6z" fill="#2c3e50"/></g></g></symbol><symbol viewBox="0 0 890.89 983.76" id="relocation-mono"><title>relocation</title><path d="M0 18.03c1-.82 2.38-1.43 3-2.48C12.33-.46 24.85-4.29 40.28 4.88s30.56 19 45.9 28.46c9.2 5.65 18.61 11 27.83 16.58 8.17 5 16.14 10.28 24.3 15.27 10.07 6.16 20.3 12.08 30.37 18.23 7 4.3 13.9 8.92 21 13.21 5.29 3.22 10.84 6 16.16 9.2 12.41 7.4 24.81 14.84 37.12 22.41 8.18 5 16.24 10.27 24.28 15.52 6.88 4.49 7.9 12.3 10.29 19.19 5.06 14.53 9.72 29.19 14.6 43.78 3.92 11.73 7.83 23.46 11.89 35.14 8.62 24.74 17.41 49.42 26 74.17 4.69 13.56 9 27.26 13.64 40.83 5.06 14.78 10.4 29.47 15.48 44.25 6.55 19.06 12.91 38.2 19.46 57.26 4.8 14 9.86 27.85 14.66 41.81 2 5.85 3.51 11.88 5.51 17.73 2.62 7.64 5.64 15.14 8.26 22.77 6.4 18.65 12.63 37.35 19 56 3.42 10.14 7.02 20.19 10.42 30.25s6.56 20.54 10.06 30.73c3.88 11.3 8.08 22.49 12.05 33.77 2.19 6.22 4.18 12.52 6.7 20.07-2.86-1-4.54-1.23-5.94-2-12.49-7.07-26-11.45-39.69-15.48-2.83-.83-5.95-.73-8.71-1.7-1.89-.67-4.31-2.12-4.91-3.79-7-19.8-13.76-39.7-20.59-59.57-3.37-9.81-6.84-19.59-10.2-29.41-1.28-3.73-3.91-4.81-7.36-3.63q-18.09 6.2-36.08 12.67c-6.53 2.35-7 3.11-4.87 9.63 4.83 15 9.86 30 14.77 45q3.87 11.82 7.59 23.7c.86 2.75 1.2 5.05-2.9 5.8a145.44 145.44 0 0 0-35 11.06c-6 2.77-7.24 2.07-9.25-4.08-6-18.32-12.13-36.58-18.06-54.91-3.45-10.66-6.42-21.46-9.91-32.1-8.24-25.16-16.79-50.21-25-75.39-5.08-15.64-9.6-31.45-14.54-47.14-3.94-12.52-7.93-25-12.32-37.39-2.11-6-.66-11.43 1.79-16.34 7.18-14.38 15-28.45 22.63-42.61q13.3-24.72 26.7-49.38c2.52-4.62 5.51-9 8-13.63a6.49 6.49 0 0 0 .47-4.63c-4.39-13-9.05-26-13.48-39-3.46-10.19-6.58-20.49-10.06-30.67-3.69-10.77-7.68-21.44-11.43-32.19-4.59-13.15-9.32-26.27-13.49-39.56-1.44-4.58-4.45-7.48-8-9.66-15.61-9.61-31.46-18.83-47.18-28.28q-19.71-11.84-39.31-23.85c-10.59-6.46-21.13-13-31.73-19.46-13.34-8.12-26.76-16.1-40.05-24.28-14.46-8.9-28.81-18-43.23-27-5-3.12-10.22-5.94-15-9.32-2.07-1.45-3.3-4.06-5-6-1.18-1.34-2.58-2.49-3.87-3.72zm311.45 545.78c1.76-.57 2.61-.84 3.45-1.12 13.19-4.44 26.36-8.91 39.56-13.3 3-1 3.58-2.88 2.5-5.52-.5-1.21-1.54-2.22-2-3.45-3.88-11.36-7.67-22.74-11.51-34.12q-11-32.63-22-65.24c-1.47-4.34-3-8.64-4.55-13q-3.28-9.37-6.54-18.75c-1.41-4-2.73-8.1-4.36-12a4.48 4.48 0 0 0-2.91-2.28c-.75-.14-2.14 1-2.6 1.86-3.47 6.65-6.62 13.46-10.16 20.06-4.2 7.82-8.93 15.35-13 23.25-2.54 5-5.78 9.94-2.82 16.32 2.27 4.91 3.36 10.36 5 15.58 1.68 5.49 3.24 11 5.05 16.47 3.45 10.35 7.16 20.62 10.55 31 4.38 13.37 8.5 26.84 12.94 40.19.51 1.63 2.33 2.86 3.4 4.05zM367.94 983.76c-1.17-.91-2.22-2.33-3.52-2.64-4.61-1.07-9.37-1.52-14-2.64a123.88 123.88 0 0 1-40.9-18.37 115.91 115.91 0 0 1-48.59-71.53 130.33 130.33 0 0 1-.45-53.47c4.43-21.43 13.32-40.67 28.54-57.13 14.13-15.29 30.62-26.33 50.12-32.94 10.65-3.61 21.64-5.34 33-6.17 9.07-.66 17.87.11 26.6 1.2 17.22 2.14 33 8.51 47.74 18 11.15 7.17 20.35 16.21 28.84 26.11a64.26 64.26 0 0 1 8.9 13.13c4.36 8.83 8.78 17.76 11.84 27.08a115.24 115.24 0 0 1 3.09 60.61 121.36 121.36 0 0 1-24.19 51.21 130.34 130.34 0 0 1-26.15 24.32 111.25 111.25 0 0 1-53.26 20.46c-1.58.18-3 1.83-4.48 2.79zm11.72-75.65c25.5.93 48.39-23.11 48.06-47.84-.35-26.66-21.95-48.24-48-48.31-27.2-.08-48.27 21.53-48.48 48.37-.16 25.67 21.13 47.79 48.43 47.78zM890.9 685.31c-1 1.09-2.51 2-2.79 3.29-2.46 10.81-10.82 14.9-20.08 18q-33.73 11.34-67.49 22.63c-11.78 4-23.53 8-35.31 11.93s-23.74 7.88-35.55 12c-18.45 6.42-37 12.57-55.17 19.74-5.38 2.13-9.59 7.26-14.29 11.09-10.19 8.3-20.39 16.58-30.49 25-6.14 5.1-12 10.53-18.14 15.63-9.75 8.11-19.7 16-29.43 24.14-6.24 5.22-12.2 10.77-18.36 16.07-3.23 2.78-6.59 5.43-10 8-.79.59-2.06.54-3.12.79a26.76 26.76 0 0 1-.43-3.3c-.07-6.4.18-12.81-.17-19.18a182.77 182.77 0 0 0-2-19.39 151.78 151.78 0 0 0-11-36.86c-3-6.73-6.35-13.29-9.5-19.94a18.19 18.19 0 0 1-.77-2.86c3.26-1.3 6.34-2.71 9.53-3.77 9.65-3.21 19.4-6.13 29-9.46 29.24-10.1 58.41-20.4 87.66-30.5 12.86-4.44 25.88-8.45 38.75-12.88 19.4-6.68 38.71-13.64 58.11-20.34 14.85-5.13 29.8-10 44.67-15.09 9.66-3.3 19.24-6.83 28.91-10.1q15.09-5.1 30.29-9.85a53.89 53.89 0 0 1 11.05-2.49c11.8-1.06 20 6.4 22.76 16.84.46 1.73 2.22 3.12 3.38 4.66zM443.5 439.61c.33-7 2.7-10.42 10.52-13.09 13.59-4.65 27.14-9.44 40.75-14 10.22-3.46 20.56-6.58 30.77-10.09 15.07-5.17 30-10.61 45.11-15.8 18.92-6.53 37.91-12.88 56.83-19.41 13.69-4.73 27.3-9.66 41-14.45 4.17-1.46 8.41-2.71 12.59-4.13 19.2-6.54 38.36-13.19 57.61-19.58a36.38 36.38 0 0 1 10.45-1.58c4.91-.12 8.48 3.52 10 8.22 2.38 7.46 5.37 14.72 7.91 22.12 6.45 18.79 12.74 37.62 19.2 56.41 4.9 14.25 10.06 28.41 14.89 42.69 3.4 10 6.27 20.27 9.67 30.32 3.84 11.33 8.11 22.52 12 33.83 5.25 15.12 10.36 30.3 15.5 45.46 1.57 4.63 3.12 9.26 4.57 13.92 2 6.29-.92 12.26-7.2 14.43-11.69 4-23.49 7.81-35.17 11.9-16.77 5.86-33.44 12-50.24 17.83-17.51 6-35.15 11.67-52.67 17.65-9.35 3.19-18.53 6.89-27.87 10.09-6.27 2.15-12.77 3.63-19 5.77-11.05 3.77-22 7.9-33 11.73-15.55 5.39-31.15 10.63-46.71 16-9.24 3.17-18.47 6.34-27.67 9.63a11.7 11.7 0 0 1-14.91-6.89c-5.46-15.52-10.65-31.14-16-46.7-3.41-9.94-7-19.82-10.34-29.78-3.43-10.2-6.57-20.51-10.05-30.69-3.78-11-7.91-21.93-11.71-32.95q-9.94-28.8-19.65-57.67c-4.23-12.42-8.23-24.79-12.39-37.14-1.56-4.69-3.19-9.37-4.79-14.05zM331.9 112.01c.26-6.75 2.61-10 9-12.2 16.26-5.58 32.48-11.24 48.77-16.72 13.7-4.61 27.53-8.83 41.2-13.53 20.92-7.18 41.66-14.68 62.53-21.91 17.35-6 34.81-11.65 52.22-17.48 12-4 24-8 36-12.17 5.86-2 11.56-4.56 17.47-6.43a26.87 26.87 0 0 1 8.78-.93c4.14.13 7.38 2 8.82 6.22 2.56 7.56 5.13 15.12 7.79 22.64 3.35 9.44 6.88 18.82 10.18 28.27 3.84 11 7.49 22.1 11.28 33.14 6.69 19.49 13.49 38.93 20.12 58.44 3.48 10.22 6.56 20.58 10.07 30.8 5.27 15.34 10.77 30.6 16.14 45.91 3 8.53 6 17 8.78 25.65 2.5 7.86-.22 13.67-7.59 16.31-16 5.74-32 11.32-48.09 16.93-15.81 5.53-31.61 11.1-47.47 16.5-10.08 3.44-20.3 6.48-30.37 9.93-14.93 5.11-29.76 10.5-44.69 15.63-18.93 6.51-37.91 12.86-56.86 19.34-10.08 3.45-20.08 7.13-30.2 10.45a31.53 31.53 0 0 1-9.16 1.38c-4.83.08-8.52-1.78-10.19-6.88-3.64-11.11-7.46-22.17-11.31-33.22-3.31-9.47-6.81-18.87-10.16-28.32-1.62-4.58-3.06-9.22-4.62-13.82q-8.77-25.85-17.57-51.68c-3.63-10.67-7.3-21.32-10.88-32-4.19-12.48-8.18-25-12.49-37.46-5.31-15.32-10.89-30.55-16.23-45.86-.81-2.17-.88-4.61-1.27-6.93z"/></symbol><symbol viewBox="0 0 433.6 440.4" id="startup"><defs><clipPath id="baa" transform="translate(-43.6 -34.8)"><path fill="none" d="M0 0h512v512H0z"/></clipPath></defs><title>startup</title><g data-name="Layer 1"><g clip-path="url(#baa)"><path d="M433.6 0s-156 23.6-234.4 114.8c-27.2-8-45.6-10.4-57.6-10.4-16.4 0-21.2 4.4-21.2 4.4s-53.2 56-57.2 90.8c2.4 0 4.8-.4 6.8-.4 34.8 0 57.2 18 57.2 18s-12 30.8-12 47.2v6.8c13.2 1.6 27.2 8.4 35.6 18A56.07 56.07 0 0 1 164 318h4.8c16.4 0 47.2-12 47.2-12s20.4 25.6 18 64c34.8-4 90.8-57.2 90.8-57.2s13.2-13.2-6-78.8C410 156 433.6 0 433.6 0zm-20.4 20.4C402.8 65.2 374 166 308.4 222.4l-8 6.8 2.8 10c12.8 44 9.6 60.4 8.4 64-15.6 14.8-42 35.6-62.4 45.6-4-31.6-19.6-51.6-20.8-52.4l-7.2-9.2-10.8 4.4c-9.2 3.6-23.6 8.4-34 10.4a80.91 80.91 0 0 0-13.2-22.8 75 75 0 0 0-31.2-20c1.6-10.8 6.8-26.4 10.4-35.6l4.4-10.8-9.2-7.2c-.8-.8-21.2-16.4-52.4-20.8 10-20.8 30.8-46.8 45.6-62.4a42.12 42.12 0 0 1 11.2-1.2c9.2 0 25.6 1.6 53.2 9.6l9.2 2.4 6.8-8c56.4-65.6 157.2-94.8 202-104.8" fill="#2c3e50"/></g><g clip-path="url(#baa)"><path d="M110 279.2c-7.2 0-13.6 2-18 6.8-6.4 7.6-13.6 18.8-14.8 30.4 2.4-2.8 4.8-4 7.2-4 6.4 0 9.6 9.2 0 10.4-13.2 1.6-17.2 14.4-15.2 26 3.6-4.8 11.6-11.6 17.2-11.6a5.78 5.78 0 0 1 2.8.8c-17.6 11.2-20.4 24-18.8 36.8 5.6-9.2 18-15.6 29.6-15.6a16.41 16.41 0 0 1 4.4.4c-.4-6.8 4.8-10 8-10s5.2 3.2-.4 10c16.8-.4 28-6 34.4-10.4 16-12.8 11.6-39.6-1.6-54.8-8.4-9.2-22.4-15.2-34.8-15.2zm0 8c10.4 0 22 5.2 28.8 12.8 6.8 8 10.8 19.2 10 28.8-.4 6-2.8 10.8-6.8 14-4 2.8-10 5.6-18 7.6a5.78 5.78 0 0 0-.8-2.8c-1.6-4-5.6-6.4-10.4-6.4a15.55 15.55 0 0 0-11.2 5.2 33.37 33.37 0 0 0-3.2 4.8 44.88 44.88 0 0 0-16 4c2.4-3.6 6-6.8 11.6-10.4l11.6-7.2-11.6-6.8a6.45 6.45 0 0 0-3.6-1.2 12.83 12.83 0 0 0 8.8-12.4 13.77 13.77 0 0 0-9.6-12c3.2-6.4 7.2-11.2 9.2-14 2.8-3.6 8.4-4 11.2-4" fill="#3b97d3"/></g><g clip-path="url(#baa)"><path d="M1.2 439.2a3.87 3.87 0 0 1 0-5.6l48-48a4 4 0 0 1 5.6 5.6l-48 48c-1.6 1.6-4.4 1.6-5.6 0z" fill="#2c3e50"/></g><g clip-path="url(#baa)"><path d="M44.8 435.2a3.87 3.87 0 0 1 0-5.6l24-24a4 4 0 0 1 5.6 5.6l-24 24a4.81 4.81 0 0 1-5.6 0z" fill="#2c3e50"/></g><g clip-path="url(#baa)"><path d="M5.2 395.6a3.87 3.87 0 0 1 0-5.6l24-24a4 4 0 0 1 5.6 5.6l-24 24a4.81 4.81 0 0 1-5.6 0z" fill="#2c3e50"/></g><g clip-path="url(#baa)"><path d="M272.4 126.4a36 36 0 1 0 36 36 35.85 35.85 0 0 0-36-36zm0 8a28 28 0 1 1-28 28 27.83 27.83 0 0 1 28-28" fill="#3b97d3"/></g><g clip-path="url(#baa)"><path d="M216 196.4a22.4 22.4 0 1 0 22.4 22.4 22.36 22.36 0 0 0-22.4-22.4zm0 8a14.4 14.4 0 1 1-14.4 14.4 14.34 14.34 0 0 1 14.4-14.4" fill="#3b97d3"/></g><g clip-path="url(#baa)"><path d="M150.4 196.4a5.69 5.69 0 0 1-2.4-.8 4.3 4.3 0 0 1-.8-5.6l39.2-49.2a4 4 0 0 1 6.4 4.8l-39.2 49.2a3.64 3.64 0 0 1-3.2 1.6z" fill="#2c3e50"/></g><g clip-path="url(#baa)"><path d="M239.6 287.2a4 4 0 0 1-2-1.6 4.3 4.3 0 0 1 .8-5.6l50.8-37.2a4 4 0 0 1 4.8 6.4l-50.8 37.2a5.94 5.94 0 0 1-3.6.8z" fill="#2c3e50"/></g></g></symbol><symbol viewBox="0 0 907.89 1000" id="startup-mono"><title>startup</title><path d="M907.88 719.21c-1 1.3-2.61 2.53-2.76 3.92-1.7 15.77-4.47 31.33-11.07 45.82-6.8 14.91-13.43 30-24.94 42.21-6.73 7.14-12.75 15-20 21.6a157.58 157.58 0 0 1-49.39 30.79c-14.79 5.72-29.94 10-45.71 11.48-22.08 2.14-44 1-65.45-5s-41.29-15.19-58.54-29.27c-9.34-7.62-18.49-15.75-26.34-24.85-7.12-8.26-12.38-18.13-18.43-27.31-8.43-12.79-13.46-27.07-17.06-41.76a175.72 175.72 0 0 1-2.91-70.84 169.86 169.86 0 0 1 24.9-64.75c5.09-7.94 12.17-14.58 17.62-22.32 6.6-9.37 15.87-15.71 24.6-22.52 13-10.17 27.7-17.56 43.35-23.31a174.85 174.85 0 0 1 41.4-9.48c15.16-1.66 30.49-1.83 45.57 1.82 6.9 1.67 14 2.5 20.8 4.55a192.35 192.35 0 0 1 25.42 9.32c13.6 6.34 26.4 14.18 37.37 24.58s21.82 20.69 30.24 33.54c8.54 13 16.16 26.45 20.62 41.24 3.69 12.24 5.26 25.12 7.94 37.68.35 1.65 1.79 3.08 2.73 4.61zm-263.63-41.92c-16.8-.06-29 16.69-22.5 30.07a58 58 0 0 0 4.89 8.73q15.3 21.05 30.88 41.91 13.27 17.8 26.79 35.41c5.43 7.06 10.63 14.42 16.86 20.73 6.78 6.86 19.69 7.65 27.57-.45 4.16-4.27 7.46-9.44 10.77-14.45 7.84-11.87 15.09-24.14 23.26-35.77 7.12-10.12 15-19.75 22.86-29.29 10.11-12.22 20.29-24.39 31-36.1 8.69-9.53 18.36-18.16 27.19-27.57 3.11-3.31 6.09-7.44 7.27-11.71 2.21-8-3.19-18.5-10.36-22.56-9.8-5.54-18.87-5-26.87 2.55-20.31 19.11-40 38.86-57.57 60.57-7.33 9-14.85 18-21.87 27.23-6.65 8.79-12.84 17.92-19 27-2.07 3-3.54 2.69-5.42 0-2.8-3.95-5.66-7.85-8.54-11.74-6.29-8.48-12.65-16.89-18.89-25.4-6.7-9.14-13.18-18.44-20-27.5-5.02-6.57-11.12-11.58-18.32-11.66z"/><path d="M77.37 1000c-1.44-1.14-2.77-3.07-4.34-3.3-22.09-3.25-39.09-14.8-52.86-31.7-11.63-14.27-18.78-30.48-19-49C.58 870.15.12 824.3.09 778.45q-.18-274.83 0-549.67c0-23.23 5.06-45 20.77-62.91 6.2-7.05 13.78-13.1 21.41-18.67 16.21-11.83 35-15 54.64-14.82 26.43.2 52.87 0 79.3 0 5.79 0 6.15.38 6.15 6.2v29.63c0 5.66-.86 6.5-6.67 6.5H90.46c-23 0-43.29 18-47 40.29a148 148 0 0 0-1.91 24.29q-.15 332.95.07 665.89c0 29.37 21.79 52.13 52.21 52.14q297.62.1 595.24 0a89.07 89.07 0 0 0 16.7-1.51c12.86-2.47 22.49-10 29.83-20.59 2.28-3.28 3.57-7.24 5.84-10.53a9.2 9.2 0 0 1 5.32-3.75c11.64-1.87 23.36-3.24 35-5 3.78-.56 4.86.13 4.15 3.91-2.83 15-7.52 29.06-16.76 41.75-8.21 11.12-18.21 19.4-30.04 26.2-7.91 4.53-16.28 7-25 9-1.8.4-3.31 2.1-5 3.2zM393.31 194.73H247.49c-11.84 0-19.42-7.43-19.44-19.32-.06-33 .24-65.93-.18-98.88-.13-10.27 9.86-19.26 20-19.21 21 .11 41.92.09 62.89.1 5.92 0 7-1.12 9.56-7.69 5.87-15.36 15.16-27.76 29.3-36.91 15.44-10 32.21-13.75 50.09-12.63 16.5 1 31.43 6.64 44.24 17.71a80.24 80.24 0 0 1 23.52 34.34c1.29 3.61 3.23 5.31 7.32 5.27 21.42-.19 42.83-.07 64.25-.14 12.66 0 19.91 8.82 20.11 19.7.61 32.34.16 64.7.22 97.06a21.11 21.11 0 0 1-21.16 20.76c-48.27-.39-96.59-.16-144.9-.16zm.16-80.68c19.39.16 35.91-16.19 36-35.88.06-20.15-17.26-37-37-36.47A36.55 36.55 0 0 0 356.94 78c-.25 18.29 15.43 36.84 36.53 36.05zM786.33 351.83v134.91c0 6.25-1.41 7-7.37 5.7-6.93-1.56-14-2.45-21.05-3.57-2.54-.4-5.13-.52-7.66-1-6.3-1.14-6.25-1.18-6.25-7.8q0-130.35-.07-260.7c0-13-6.82-23.47-16.22-32-9.18-8.29-20-12.85-32.69-12.79-28.71.13-57.42.08-86.14.22-2.58 0-3.75-.9-3.76-3.31 0-12.15-.12-24.31.08-36.46 0-1 2-2.72 3.1-2.72 30.84-.1 61.7-.65 92.51.24 19.87.58 37.37 8.35 53 21.19 19.19 15.75 28.69 36.13 32.38 59.94a23.92 23.92 0 0 1 .12 3.64q.02 67.28.02 134.51z"/><path d="M393.37 317q107.08 0 214.16.11a29.7 29.7 0 0 1 11.13 2.54c4.83 2 5.53 6.67 4.68 11.22-.89 4.77-4.28 7.6-9 8.6a30.49 30.49 0 0 1-6.34.43q-215.3 0-430.6.07c-7.71 0-15.24-4.74-14.39-12 .66-5.67 4.1-10.12 9.8-10.79a47 47 0 0 1 5.46-.15zM393.22 466.47h218.72c3.78 0 7.51-.33 9.82 4 2.71 5 2.4 9.91-1.09 13.9-1.69 1.93-5.28 3-8 3-11.84.32-23.69.13-35.54.13H175.62c-8.63 0-12.79-3.74-12.54-11.22.21-6.16 4.1-9.86 10.49-9.86h111.65zM354.06 614h167.21c3.95 0 7.9 0 11.84-.22 3.39-.17 4.12 1.54 3.05 4.24a168.42 168.42 0 0 1-7 16.21c-.65 1.24-3.57 1.79-5.44 1.8-27.34.11-54.67.06-82 .06H174.27c-7 0-10.86-3.7-11.06-10.47-.21-7.06 3.41-11.39 10.46-11.61 9.41-.3 18.83-.15 28.24-.15h152.15zM351.23 785c-58.31 0-116.62-.12-174.94.17-6.81 0-13.77-5.79-13.32-11.75.47-6.16 4.26-10.6 10.59-10.74 8.35-.18 16.7-.08 25.05-.08h317.54c10.52 0 10.47 0 13.16 10.32a48.07 48.07 0 0 0 2.66 7.18c1.49 3.39.78 4.71-3.07 4.87-2.88.12-5.77 0-8.65 0z"/></symbol><symbol id="stat-icon-clients" viewBox="0 0 494.4 407.2"><defs><style>.bca6642867-0dd9-4b28-8ff3-c4fb0e66eb94{fill:none}.bcd296f09e-0e21-45b4-a09b-54a78b1435a5{clip-path:url(#bcb9c449f7-367c-472f-b216-603f0edb2eb0)}.\30 635187c-1f26-45a3-a147-d8e2606f6aa3{fill:#2c3e50}</style><clipPath id="bcb9c449f7-367c-472f-b216-603f0edb2eb0" transform="translate(-10.4 -54.4)"><path class="bca6642867-0dd9-4b28-8ff3-c4fb0e66eb94" d="M0 0h512v512H0z"/></clipPath></defs><title>stat-icon-clients</title><g class="bcd296f09e-0e21-45b4-a09b-54a78b1435a5"><path class="bc0635187c-1f26-45a3-a147-d8e2606f6aa3" d="M378.4 318.4a8 8 0 0 1-8-8c0-36-7-51-11.74-52.29-11.61-3.23-47.33-12.35-60.06-15.59l-35.17 37.37a8 8 0 0 1-11.65 0l-35.18-37.38c-12.81 3.24-48.52 12.24-60.47 14.9C151 258.54 144 277.58 144 310.4a8 8 0 0 1-16 0c0-8.47.52-24.89 4-39.73 4-17 10.95-26.72 20.65-28.88 14.12-3.14 64.06-15.82 64.57-15.94a8 8 0 0 1 7.79 2.27l32.57 34.61 32.58-34.61a8 8 0 0 1 7.79-2.27c2.06.52 50.65 12.87 65 16.85 15.57 4.32 23.46 27.1 23.46 67.71a8 8 0 0 1-8.01 7.99z" transform="translate(-10.4 -54.4)"/></g><g class="bcd296f09e-0e21-45b4-a09b-54a78b1435a5"><path class="bc0635187c-1f26-45a3-a147-d8e2606f6aa3" d="M259.2 211.2c-18.5 0-30.43-11.4-40.58-23.71l-.22-.29c-11.18-14.91-25-53.51-20.72-84.3 2.43-19 10.76-32.77 24.76-40.75 9.15-5.21 20.39-7.75 34.36-7.75 24.33 0 52.61 11.13 59 42.37 6.14 29-5.83 71-17.12 88.39q-.15.23-.31.44c-12.42 16.6-22.37 25.6-39.17 25.6zm-28.1-33.74c10.67 12.93 18.3 17.74 28.1 17.74 9.26 0 15.17-4.26 26.23-19 9.3-14.51 19.86-52 14.74-76.16V100c-1.83-8.9-9.71-29.61-43.36-29.61-26.5 0-40.25 11-43.26 34.61-3.77 27.09 9.37 61.42 17.55 72.46zm60.9 3.34z" transform="translate(-10.4 -54.4)"/></g><g class="bcd296f09e-0e21-45b4-a09b-54a78b1435a5"><path class="bc0635187c-1f26-45a3-a147-d8e2606f6aa3" d="M18.4 267.2a8 8 0 0 1-8-8c0-32.75 6.53-51.21 19.4-54.89 11.2-3.21 49.89-12.5 51.53-12.89a8 8 0 0 1 7.67 2.27l24.6 25.89 24.6-25.89a8 8 0 0 1 7.7-2.26c1.61.39 39.48 9.67 50.69 12.88a8 8 0 0 1-4.4 15.38c-8.69-2.48-35-9-45.6-11.61l-27.2 28.63a8 8 0 0 1-11.6 0l-27.21-28.65c-10.74 2.6-37.68 9.15-46.38 11.63-2.44.7-7.8 11.62-7.8 39.51a8 8 0 0 1-8 8z" transform="translate(-10.4 -54.4)"/></g><g class="bcd296f09e-0e21-45b4-a09b-54a78b1435a5"><path class="bc0635187c-1f26-45a3-a147-d8e2606f6aa3" d="M115.2 183.2c-15.37 0-24.5-7.62-33.49-19.06-9.12-11.86-20.31-42.93-16.85-68.33C66 85.28 70.52 71.08 85 63c7.5-4.18 16.59-6.21 27.79-6.21 19.28 0 42 9.2 47.8 35 5.36 23.25-4 56.56-13.14 70.22l-.06.09c-10.29 15-19.61 21.1-32.19 21.1zm-2.4-110.4c-26.25 0-30.86 14.2-32 24.88v.21c-3 21.56 7.28 48.2 13.62 56.43 8.55 10.88 13.74 12.88 20.86 12.88 5.73 0 10.9-2.36 19-14.08 7.23-10.89 15-39.87 10.83-57.72-4.71-20.4-24.16-22.6-32.31-22.6zm28 84.8z" transform="translate(-10.4 -54.4)"/></g><g class="bcd296f09e-0e21-45b4-a09b-54a78b1435a5"><path class="bc0635187c-1f26-45a3-a147-d8e2606f6aa3" d="M496.8 267.2a8 8 0 0 1-8-8c0-27.89-5.35-38.81-7.8-39.51-8.69-2.48-35-9-45.6-11.61l-27.2 28.63a8 8 0 0 1-11.6 0l-27.22-28.65c-10.74 2.6-37.68 9.15-46.38 11.63a8 8 0 0 1-4.4-15.38c11.24-3.21 49.89-12.49 51.53-12.89a8 8 0 0 1 7.67 2.27l24.6 25.9 24.6-25.9a8 8 0 0 1 7.7-2.26c1.61.39 39.48 9.67 50.7 12.88 12.87 3.68 19.4 22.15 19.4 54.89a8 8 0 0 1-8 8z" transform="translate(-10.4 -54.4)"/></g><g class="bcd296f09e-0e21-45b4-a09b-54a78b1435a5"><path class="bc0635187c-1f26-45a3-a147-d8e2606f6aa3" d="M403.2 183.2c-15.37 0-24.5-7.62-33.49-19.06-9.12-11.86-20.31-42.93-16.85-68.33C354 85.28 358.52 71.08 373 63c7.5-4.18 16.59-6.21 27.79-6.21 19.28 0 42 9.2 47.8 35 5.36 23.25-4 56.56-13.14 70.21l-.06.09c-10.29 15.01-19.61 21.11-32.19 21.11zm-2.4-110.4c-26.25 0-30.86 14.2-32 24.88v.21c-3 21.56 7.28 48.2 13.62 56.43 8.55 10.88 13.74 12.88 20.86 12.88 5.73 0 10.9-2.36 19-14.08 7.23-10.89 14.95-39.87 10.83-57.72-4.71-20.4-24.16-22.6-32.31-22.6zm28 84.8z" transform="translate(-10.4 -54.4)"/></g><g class="bcd296f09e-0e21-45b4-a09b-54a78b1435a5"><path class="bc0635187c-1f26-45a3-a147-d8e2606f6aa3" d="M294.4 461.6a25.8 25.8 0 0 1-11.58-3.24l-.39-.21-11-6.28a36.49 36.49 0 0 0-29.28 0l-11 6.28-.39.21a25.81 25.81 0 0 1-11.58 3.24 14.76 14.76 0 0 1-11.63-5.45c-3.61-4.4-4.82-10.69-3.41-17.72l2.38-12.71c1.76-8.82-2.39-22.16-8.88-28.75l-9.46-8.67c-6.41-5.83-9-12.85-7-19.24s8.15-10.93 16.88-12.18h.14l12.43-1.55c9.55-2.17 21.15-10.61 24.5-17.86a8 8 0 0 1 14.53 6.71c-6.14 13.31-23.12 24.11-36 26.87-.23 0-.45.09-.68.12l-12.72 1.59a10.1 10.1 0 0 0-3.53 1.07 10 10 0 0 0 2.24 2.68l9.62 8.82.25.24c10.3 10.3 16.18 29.28 13.39 43.23l-2.38 12.71a9.34 9.34 0 0 0-.1 4.07 14.93 14.93 0 0 0 3.67-1.41l11-6.29.39-.21a52.27 52.27 0 0 1 44 0l.39.21 11 6.29a14.46 14.46 0 0 0 3.74 1.42 11.72 11.72 0 0 0-.18-4.13l-2.39-12.76a8 8 0 0 1-.12-.9c-1-13.77 5.66-32 15.12-41.43l.25-.24 9.46-8.67a9.36 9.36 0 0 0 2.13-2.94 9.18 9.18 0 0 0-3.25-1l-12.72-1.59h-.14c-14.15-2-29.81-13.52-36.42-26.74l-.09-.2L260 333l-.1-.23c-.5-1.17-1.54-3.15-2.25-3.15a8 8 0 0 1 0-16c5.2 0 12.35 2.21 16.9 12.72l5.5 11.79c4.28 8.46 15.35 16.66 24.27 18l12.68 1.53h.14c8.36 1.2 14.34 5.45 16.42 11.67s-.2 13.41-6.29 19.51l-.25.24-9.46 8.67c-6.09 6.19-10.87 19.31-10.39 28.44l2.31 12.32c1.7 9.34-.9 14.82-3.37 17.79a14.91 14.91 0 0 1-11.71 5.3z" transform="translate(-10.4 -54.4)"/></g><g class="bcd296f09e-0e21-45b4-a09b-54a78b1435a5"><path class="bc0635187c-1f26-45a3-a147-d8e2606f6aa3" d="M446.4 427.2a18.46 18.46 0 0 1-6.58-1.46c-.48-.17-1-.36-1.55-.55a8 8 0 0 1-1.3-.57l-8.8-4.8-.28-.16c-2.34-1.41-5.61-2.06-10.29-2.06s-7.94.65-10.28 2.06l-.28.16-8.8 4.8a8 8 0 0 1-1.3.57c-.56.19-1.07.38-1.55.55a18.46 18.46 0 0 1-6.58 1.46 13.2 13.2 0 0 1-10.07-4.4c-2.09-2.37-4.39-6.76-3.47-14.19v-.32l1.6-9.6v-.25c1.06-5.32-2.07-14.5-6.46-19l-7-6.23-.34-.32c-7.21-7.21-6.64-13.58-5.65-16.73s4.07-8.62 13.88-10.4h.12l9.46-1.58c5.53-1.16 13.81-6.72 16.7-12.51a8 8 0 0 1 14.42 7.11c-4.9 9.8-16.93 18.86-28 21.07h-.25l-9.34 1.56 6.94 6.17.34.32c8.24 8.24 13.06 22.92 11 33.49l-1.47 8.8 8-4.38c4.9-2.9 10.75-4.25 18.36-4.25s13.48 1.44 18.42 4.29l7.77 4.24-2.52-7.55a8 8 0 0 1-.28-1.1c-2.1-11.55 2.91-26.42 11.4-33.85l6.89-6.13-10-1.54h-.21c-10.25-1.86-23.62-10-28.32-21.51l-3.93-8.65-.14-.34a2.26 2.26 0 0 0-.32-.59 8 8 0 0 1 .55-16c6.24 0 11.93 4.09 14.55 10.43l3.93 8.66.14.34c2 5 9.76 10.65 16.31 11.88l10.18 1.55.35.06c7 1.39 11.9 5.28 13.53 10.66 1 3.15 1.52 9.48-5.44 16.44l-.34.32-7.2 6.4c-4.21 3.68-7.17 12.5-6.32 18.5l3 9a8.1 8.1 0 0 1 .33 1.4c.8 5.6-.45 10.64-3.53 14.19a13 13 0 0 1-9.98 4.54z" transform="translate(-10.4 -54.4)"/></g><g class="bcd296f09e-0e21-45b4-a09b-54a78b1435a5"><path class="bc0635187c-1f26-45a3-a147-d8e2606f6aa3" d="M132 426.4a18.43 18.43 0 0 1-6.58-1.46c-.48-.17-1-.36-1.55-.55a8.08 8.08 0 0 1-1.3-.57l-8.8-4.8-.29-.16c-2.15-1.29-6-2.06-10.28-2.06-4.67 0-7.94.65-10.28 2.06l-.29.16-8.8 4.8a8.08 8.08 0 0 1-1.3.57c-.56.19-1.08.38-1.55.55a18.43 18.43 0 0 1-6.58 1.46 13.2 13.2 0 0 1-10.07-4.4c-2.09-2.37-4.4-6.76-3.47-14.19v-.32l1.6-9.6v-.25c1.06-5.32-2.07-14.5-6.47-19l-7-6.23-.34-.32c-7.47-7.47-6.13-14.22-5.21-16.77s4.19-8.56 14.62-9.62l9.19-1.53c5.53-1.16 13.81-6.72 16.7-12.51a8 8 0 0 1 14.31 7.16c-4.9 9.8-16.93 18.86-28 21.07h-.25l-9.26 1.54 6.06 5.39.34.32c8.24 8.24 13.06 22.92 11 33.49l-1.47 8.8 8-4.38c4.9-2.9 10.74-4.25 18.36-4.25 5.1 0 12.41.74 18.36 4.25l7.69 4.19-2.37-6.51a8 8 0 0 1-.35-1.3c-2.1-11.55 2.91-26.42 11.4-33.85l6.89-6.13-10-1.54h-.21c-10.25-1.86-23.62-10-28.32-21.51l-3.93-8.65-.15-.34a2.24 2.24 0 0 0-.33-.59 8 8 0 0 1 .55-16c6.24 0 11.93 4.09 14.55 10.44l3.93 8.65.15.34c2 5 9.76 10.65 16.31 11.88l10.28 1.58.35.06c7 1.39 11.9 5.28 13.53 10.66 1 3.15 1.52 9.48-5.44 16.44l-.34.32-7.2 6.4c-4.18 3.66-7.14 12.41-6.34 18.4l2.94 8.08a8 8 0 0 1 .4 1.6c.8 5.6-.45 10.64-3.53 14.19a13 13 0 0 1-9.86 4.54z" transform="translate(-10.4 -54.4)"/></g></symbol><symbol viewBox="0 0 348 398.4" id="stat-icon-coffee"><defs><style>.bdf58422d9-cee0-4768-b992-4af6519cfbdf{fill:none}.\34 fbf1082-aafc-4298-b20f-dcffebc6f892{clip-path:url(#bd0fdc98ca-12b3-4922-954f-a8c47b631c81)}.\31 1553f24-0434-4706-94e0-e39ad04bd148{fill:#2c3e50}</style><clipPath id="bd0fdc98ca-12b3-4922-954f-a8c47b631c81" transform="translate(-80 -73.6)"><path class="bdf58422d9-cee0-4768-b992-4af6519cfbdf" d="M0 0h512v512H0z"/></clipPath></defs><title>stat-icon-coffee</title><g id="bd7afb1696-6961-4361-a09f-c57205aa12de" data-name="Layer 2"><g id="bd3e824d3c-94e8-495c-af99-23c9618ed6d9" data-name="Layer 1"><g class="bd4fbf1082-aafc-4298-b20f-dcffebc6f892"><path class="bd11553f24-0434-4706-94e0-e39ad04bd148" d="M332 414.4H164a40 40 0 0 1-40-40v-224a8 8 0 0 1 8-8h232a8 8 0 0 1 8 8v224a40 40 0 0 1-40 40zm-192-256v216a24 24 0 0 0 24 24h168a24 24 0 0 0 24-24v-216z" transform="translate(-80 -73.6)"/></g><g class="bd4fbf1082-aafc-4298-b20f-dcffebc6f892"><path class="bd11553f24-0434-4706-94e0-e39ad04bd148" d="M404 326.4h-40a8 8 0 0 1-8-8v-112a8 8 0 0 1 8-8h40a24 24 0 0 1 24 24v80a24 24 0 0 1-24 24zm-32-16h32a8 8 0 0 0 8-8v-80a8 8 0 0 0-8-8h-32z" transform="translate(-80 -73.6)"/></g><g class="bd4fbf1082-aafc-4298-b20f-dcffebc6f892"><path class="bd11553f24-0434-4706-94e0-e39ad04bd148" d="M400 448H88a8 8 0 0 1 0-16h312a8 8 0 0 1 0 16z" transform="translate(-80 -73.6)"/></g><g class="bd4fbf1082-aafc-4298-b20f-dcffebc6f892"><path class="bd11553f24-0434-4706-94e0-e39ad04bd148" d="M344 472H144a8 8 0 0 1 0-16h200a8 8 0 0 1 0 16z" transform="translate(-80 -73.6)"/></g><g class="bd4fbf1082-aafc-4298-b20f-dcffebc6f892"><path class="bd11553f24-0434-4706-94e0-e39ad04bd148" d="M175.2 132.8a8 8 0 0 1-5.66-13.66l43.2-43.2a8 8 0 0 1 11.31 11.31l-43.2 43.2a8 8 0 0 1-5.65 2.35z" transform="translate(-80 -73.6)"/></g><g class="bd4fbf1082-aafc-4298-b20f-dcffebc6f892"><path class="bd11553f24-0434-4706-94e0-e39ad04bd148" d="M239.2 132.8a8 8 0 0 1-5.66-13.66l43.2-43.2a8 8 0 0 1 11.31 11.31l-43.2 43.2a8 8 0 0 1-5.65 2.35z" transform="translate(-80 -73.6)"/></g><g class="bd4fbf1082-aafc-4298-b20f-dcffebc6f892"><path class="bd11553f24-0434-4706-94e0-e39ad04bd148" d="M303.2 132.8a8 8 0 0 1-5.66-13.66l43.2-43.2a8 8 0 0 1 11.31 11.31l-43.2 43.2a8 8 0 0 1-5.65 2.35z" transform="translate(-80 -73.6)"/></g></g></g></symbol><symbol viewBox="0 0 500 500" id="stat-icon-complete"><path d="M307.4 375.9c-7.1 0-14.3-2.1-20.5-6.2l-26.4-17.6c-6.9-4.6-15.4-4.6-22.3 0l-26.4 17.6c-10 6.7-22.6 7.9-33.8 3.4-11.2-4.6-19.3-14.3-21.7-26l-6.4-32c-1.8-8.1-8.1-14.4-16.2-16.2l-31.9-6.4c-12-2.4-21.6-10.2-26.2-21.3-4.6-11.2-3.3-24 3.5-34.2l17.6-26.4c4.6-6.9 4.6-15.4 0-22.3l-17.6-26.4c-6.7-10-7.9-22.6-3.4-33.8 4.6-11.2 14.3-19.3 26-21.7h.1l31.9-6.4c8.1-1.8 14.4-8.1 16.2-16.2l6.4-31.9c2.4-12 10.2-21.6 21.3-26.2 11.1-4.6 23.9-3.3 34.2 3.5l26.4 17.6c6.9 4.6 15.4 4.6 22.3 0L287 29.1c10-6.7 22.6-7.9 33.8-3.4 11.2 4.6 19.3 14.3 21.7 26l6.4 32c1.8 8.1 8.1 14.4 16.2 16.2l31.9 6.4c12 2.4 21.6 10.2 26.2 21.3 4.6 11.1 3.3 23.9-3.5 34.2l-17.6 26.4c-4.6 6.9-4.6 15.4 0 22.3l17.6 26.4c6.7 10 7.9 22.6 3.4 33.8-4.6 11.2-14.3 19.3-26 21.7l-32 6.4c-8.1 1.8-14.4 8.1-16.2 16.2l-6.4 31.9c-2.4 12-10.2 21.6-21.3 26.2-4.5 1.9-9.1 2.8-13.8 2.8zm-58-43.3c6.9 0 13.9 2.1 20 6.2l26.4 17.6c5.9 3.9 12.9 4.7 19.2 2.1 6.1-2.5 10.4-7.8 11.8-14.6l6.4-32v-.1c3.1-14.3 14.3-25.5 28.5-28.5h.1l32-6.4c6.5-1.3 11.9-5.9 14.4-12.1 2.6-6.3 1.9-13.1-1.9-18.8l-17.6-26.4c-8.2-12.4-8.2-27.7 0-40.1l17.6-26.4c3.9-5.9 4.7-12.9 2.1-19.2-2.5-6.1-7.8-10.4-14.6-11.8l-32-6.4h-.1c-14.3-3.1-25.5-14.3-28.5-28.5v-.1l-6.4-32c-1.3-6.5-5.9-11.9-12.1-14.4-6.3-2.6-13.1-1.9-18.8 1.9l-26.4 17.6c-12.4 8.2-27.7 8.2-40.1 0L203 42.5c-5.9-3.9-12.9-4.7-19.2-2.1-6.1 2.5-10.4 7.8-11.8 14.6l-6.4 32v.1c-3.1 14.3-14.3 25.5-28.5 28.5h-.1l-32 6.4c-6.5 1.4-11.9 5.9-14.4 12.1-2.6 6.3-1.9 13.1 1.9 18.8l17.6 26.4c8.2 12.4 8.2 27.7 0 40.1l-17.6 26.4c-3.9 5.9-4.7 12.9-2.1 19.2 2.5 6.1 7.8 10.4 14.6 11.8l32 6.4h.1c14.3 3.1 25.5 14.3 28.5 28.5v.1l6.4 32c1.3 6.5 5.9 11.9 12.1 14.4 6.3 2.6 13.1 1.9 18.8-1.9l26.4-17.6c6.2-4.1 13.2-6.1 20.1-6.1zM173 478.2c-1.2 0-2.4-.3-3.6-.8-2.7-1.4-4.4-4.1-4.4-7.2v-82.4c0-4.4 3.6-8 8-8s8 3.6 8 8v66.4l63.2-47.2c2.8-2.1 6.6-2.1 9.5-.1l65.7 47.6v-66.7c0-4.4 3.6-8 8-8s8 3.6 8 8v82.4c0 3-1.7 5.8-4.4 7.1-2.7 1.4-5.9 1.1-8.3-.6l-73.6-53.3-71.3 53.3c-1.4 1-3.1 1.5-4.8 1.5z"/><path d="M250.6 395.8c-4.4 0-8-3.6-8-8v-20c0-4.4 3.6-8 8-8s8 3.6 8 8v20c0 4.4-3.6 8-8 8zM243.4 261.4c-2.2 0-4.2-.9-5.7-2.4l-61.6-63.2c-3.1-3.2-3-8.2.1-11.3 3.2-3.1 8.2-3 11.3.1l55.9 57.3 94.3-96.5c3.1-3.2 8.2-3.2 11.3-.1 3.2 3.1 3.2 8.2.1 11.3L249.1 259c-1.5 1.5-3.5 2.4-5.7 2.4z"/></symbol><symbol viewBox="0 0 384 414.4" id="stat-icon-sessions"><defs><style>.\36 44843f0-0c31-4d44-9d8b-9092454ed14e{fill:none}.bfcd7597d2-a3bb-4b1a-b731-b22d292218bb{clip-path:url(#bf74aee4e4-8701-4737-a819-08b2be98ad39)}.bfc652f6b6-9551-48ba-af3b-a88447931def{fill:#2c3e50}</style><clipPath id="bf74aee4e4-8701-4737-a819-08b2be98ad39" transform="translate(-61.6 -49.6)"><path class="bf644843f0-0c31-4d44-9d8b-9092454ed14e" d="M0 0h512v512H0z"/></clipPath></defs><title>stat-icon-session</title><g id="bf135cbc7a-81d2-4b6f-a37e-beefa3429e50" data-name="Layer 2"><g id="bfa7e41ee7-09b6-4e96-86e0-7c82f7735df5" data-name="Layer 1"><g class="bfcd7597d2-a3bb-4b1a-b731-b22d292218bb"><path class="bfc652f6b6-9551-48ba-af3b-a88447931def" d="M291.21 364.8a8 8 0 0 1-7.79-9.83c3.3-14 11.5-34.85 31.79-54.29 17.41-17.44 27-39.62 27-62.48s-9.65-45.62-27.17-63.86c-17-17.76-40-27.94-63-27.94-23.45 0-45.54 9.68-63.89 28-36.23 37.76-36.28 90.86-.12 126.29 22.45 22.45 29.71 45.44 31.79 54.28a8 8 0 1 1-15.57 3.66c-1.77-7.51-8-27.09-27.47-46.57C156.29 292 145 265.88 145 238.5s11.23-54 31.63-75.24l.11-.11c21.42-21.42 47.44-32.74 75.26-32.74 27.38 0 54.56 12 74.58 32.86 42.21 43.93 42.16 106.51-.12 148.79l-.13.12c-17.5 16.74-24.53 34.5-27.34 46.45a8 8 0 0 1-7.78 6.17z" transform="translate(-61.6 -49.6)"/></g><g class="bfcd7597d2-a3bb-4b1a-b731-b22d292218bb"><path class="bfc652f6b6-9551-48ba-af3b-a88447931def" d="M296 392h-88a8 8 0 0 1 0-16h88a8 8 0 0 1 0 16z" transform="translate(-61.6 -49.6)"/></g><g class="bfcd7597d2-a3bb-4b1a-b731-b22d292218bb"><path class="bfc652f6b6-9551-48ba-af3b-a88447931def" d="M296 416h-88a8 8 0 0 1 0-16h88a8 8 0 0 1 0 16z" transform="translate(-61.6 -49.6)"/></g><g class="bfcd7597d2-a3bb-4b1a-b731-b22d292218bb"><path class="bfc652f6b6-9551-48ba-af3b-a88447931def" d="M288 440h-72a8 8 0 0 1 0-16h72a8 8 0 0 1 0 16z" transform="translate(-61.6 -49.6)"/></g><g class="bfcd7597d2-a3bb-4b1a-b731-b22d292218bb"><path class="bfc652f6b6-9551-48ba-af3b-a88447931def" d="M264 464h-24a8 8 0 0 1 0-16h24a8 8 0 0 1 0 16z" transform="translate(-61.6 -49.6)"/></g><g class="bfcd7597d2-a3bb-4b1a-b731-b22d292218bb"><path class="bfc652f6b6-9551-48ba-af3b-a88447931def" d="M252 340.8a8 8 0 0 1-8-8v-35.2a8 8 0 1 1 16 0v35.2a8 8 0 0 1-8 8z" transform="translate(-61.6 -49.6)"/></g><g class="bfcd7597d2-a3bb-4b1a-b731-b22d292218bb"><path class="bfc652f6b6-9551-48ba-af3b-a88447931def" d="M252 307.2a8 8 0 0 1-5.59-2.28l-36-35.2a8 8 0 1 1 11.19-11.44l30.34 29.67 29.61-29.61a8 8 0 0 1 11.31 11.31l-35.2 35.2a8 8 0 0 1-5.66 2.35z" transform="translate(-61.6 -49.6)"/></g><g class="bfcd7597d2-a3bb-4b1a-b731-b22d292218bb"><path class="bfc652f6b6-9551-48ba-af3b-a88447931def" d="M252 121.6a8 8 0 0 1-8-8v-56a8 8 0 0 1 16 0v56a8 8 0 0 1-8 8z" transform="translate(-61.6 -49.6)"/></g><g class="bfcd7597d2-a3bb-4b1a-b731-b22d292218bb"><path class="bfc652f6b6-9551-48ba-af3b-a88447931def" d="M437.6 256H380a8 8 0 0 1 0-16h57.6a8 8 0 0 1 0 16z" transform="translate(-61.6 -49.6)"/></g><g class="bfcd7597d2-a3bb-4b1a-b731-b22d292218bb"><path class="bfc652f6b6-9551-48ba-af3b-a88447931def" d="M126.4 256H69.6a8 8 0 0 1 0-16h56.8a8 8 0 1 1 0 16z" transform="translate(-61.6 -49.6)"/></g><g class="bfcd7597d2-a3bb-4b1a-b731-b22d292218bb"><path class="bfc652f6b6-9551-48ba-af3b-a88447931def" d="M348 164a8 8 0 0 1-5.66-13.66l40-40a8 8 0 1 1 11.31 11.31l-40 40A8 8 0 0 1 348 164z" transform="translate(-61.6 -49.6)"/></g><g class="bfcd7597d2-a3bb-4b1a-b731-b22d292218bb"><path class="bfc652f6b6-9551-48ba-af3b-a88447931def" d="M159.2 164a8 8 0 0 1-5.6-2.29l-40.8-40a8 8 0 1 1 11.2-11.42l40.8 40a8 8 0 0 1-5.6 13.71z" transform="translate(-61.6 -49.6)"/></g></g></g></symbol><symbol viewBox="0 0 442.16 104.34" id="switch-telecom-logo"><title>switch-telecom-logo</title><g data-name="Layer 1"><path d="M125.85 59.76a8.75 8.75 0 0 1-1.76 5.53 10.67 10.67 0 0 1-4.87 3.42 20.68 20.68 0 0 1-7.2 1.15 33.35 33.35 0 0 1-5.4-.4 17.2 17.2 0 0 1-4.51-1.38 15.91 15.91 0 0 1-4-2.79l4.4-4.21q3.36 3.32 9.57 3.32a13.28 13.28 0 0 0 3.73-.49 5.7 5.7 0 0 0 2.61-1.47 3.4 3.4 0 0 0 .93-2.43q0-3.44-4.45-3.78l-5.31-.43a16.2 16.2 0 0 1-5.37-1.29 7.41 7.41 0 0 1-3.34-2.89A8.78 8.78 0 0 1 99.69 47a8.39 8.39 0 0 1 3.57-7.14 14.7 14.7 0 0 1 9-2.62q8 0 12.33 3.59l-4.19 4.08q-2.91-2.33-8.19-2.33a7.69 7.69 0 0 0-4.49 1.11 3.5 3.5 0 0 0-1.55 3q0 3.22 4.61 3.62l5.25.46a15.36 15.36 0 0 1 5.32 1.29 7.62 7.62 0 0 1 3.39 3 9 9 0 0 1 1.11 4.7zM172.87 37.62l-10.33 31.87h-5.69L149 47.23l-7.7 22.26h-5.76l-10.3-31.87h7.1l6.4 22.44 7.74-22.44h5.18l7.64 22.44 6.43-22.44zM182.32 31.33h-7.07v-6.79h7.07zm-.19 38.16h-6.68V37.62h6.68zM201.39 69.49h-4a9.61 9.61 0 0 1-5-1.23A7.89 7.89 0 0 1 189.3 65a9.56 9.56 0 0 1-1-4.41v-17.5h-3.8v-4.91h3.77V28.5H195v9.67h6.43v4.91H195v17.23q0 3.69 3.64 3.69h2.75zM227.4 65.35a16.38 16.38 0 0 1-3.2 2.56 12.69 12.69 0 0 1-3.58 1.49 17.71 17.71 0 0 1-4.19.46 16.28 16.28 0 0 1-7.28-1.66 12.57 12.57 0 0 1-5.44-5.34 18.94 18.94 0 0 1-2.06-9.33 20.61 20.61 0 0 1 1.21-7.46 13.7 13.7 0 0 1 3.29-5.1 12.7 12.7 0 0 1 4.73-2.86 17.3 17.3 0 0 1 5.53-.89 16.1 16.1 0 0 1 6.09 1 14.26 14.26 0 0 1 4.88 3.46L222.79 46a10.22 10.22 0 0 0-2.94-2.33 7.86 7.86 0 0 0-3.42-.68 7.41 7.41 0 0 0-6.14 2.82 7.61 7.61 0 0 0-1.52 3.1 20.26 20.26 0 0 0-.43 4.63q0 5.37 2 7.79a7.41 7.41 0 0 0 6.14 2.82 7.76 7.76 0 0 0 3.39-.69 10.46 10.46 0 0 0 3-2.32zM256 69.49h-6.68V50a6.74 6.74 0 1 0-13.43 0v19.49h-6.68V24.73h6.68v16.11a11.25 11.25 0 0 1 8.57-3.61 12.58 12.58 0 0 1 6.21 1.46 9.66 9.66 0 0 1 4 4.1 13.24 13.24 0 0 1 1.33 6.13z" fill="#0096d6"/><path d="M271.38 69.49h-2.88a7.8 7.8 0 0 1-4.14-1.06 6.69 6.69 0 0 1-2.61-2.91 9.86 9.86 0 0 1-.88-4.29V40.42h-4.32v-2.49h4.32V27.82h3.39v10.11h7.13v2.49h-7.13v20.89q0 5.25 4.83 5.25h2.3zM298.45 54.43h-21.94q0 6 2.64 9.23t7.63 3.21a11.57 11.57 0 0 0 4.7-.86 13.76 13.76 0 0 0 4-2.94L298 65a17.39 17.39 0 0 1-5.11 3.68 15.48 15.48 0 0 1-6.32 1.15 13.78 13.78 0 0 1-7.35-1.83 11.5 11.5 0 0 1-4.55-5.45 22.53 22.53 0 0 1-1.55-8.89 24.63 24.63 0 0 1 .86-6.83 14.55 14.55 0 0 1 2.48-5 11 11 0 0 1 4-3.17 12.43 12.43 0 0 1 5.32-1.12 12.9 12.9 0 0 1 5.28 1 10.84 10.84 0 0 1 4 3 13.68 13.68 0 0 1 2.53 4.84 22.36 22.36 0 0 1 .86 6.49zm-3.36-2.69a27 27 0 0 0-.29-3.37 14.53 14.53 0 0 0-.8-2.58 8.13 8.13 0 0 0-3.26-3.87 9 9 0 0 0-4.92-1.44 8.9 8.9 0 0 0-4.93 1.42 8.5 8.5 0 0 0-3.26 3.89 14.38 14.38 0 0 0-.82 2.69 26.1 26.1 0 0 0-.3 3.26zM313.17 69.49h-2.87a7.14 7.14 0 0 1-5.63-2.19 8.69 8.69 0 0 1-2-6V22.86H306v38.38a6.14 6.14 0 0 0 1.09 4q1.09 1.28 3.77 1.28h2.27zM338.67 54.43h-21.94q0 6 2.64 9.23t7.63 3.21a11.57 11.57 0 0 0 4.7-.86 13.76 13.76 0 0 0 4-2.94l2.49 2a17.39 17.39 0 0 1-5.11 3.68 15.48 15.48 0 0 1-6.32 1.15 13.78 13.78 0 0 1-7.32-1.9 11.5 11.5 0 0 1-4.55-5.45 22.53 22.53 0 0 1-1.55-8.89 24.63 24.63 0 0 1 .86-6.83 14.55 14.55 0 0 1 2.48-5 11 11 0 0 1 4-3.17 12.43 12.43 0 0 1 5.32-1.12 12.9 12.9 0 0 1 5.28 1 10.84 10.84 0 0 1 4 3 13.68 13.68 0 0 1 2.53 4.84 22.36 22.36 0 0 1 .86 6.49zm-3.36-2.69a27 27 0 0 0-.29-3.37 14.53 14.53 0 0 0-.8-2.58 8.13 8.13 0 0 0-3.22-3.87 9 9 0 0 0-5-1.43 8.9 8.9 0 0 0-4.93 1.42 8.5 8.5 0 0 0-3.26 3.89 14.38 14.38 0 0 0-.82 2.69 26.1 26.1 0 0 0-.3 3.26zM365.52 65a15.23 15.23 0 0 1-4.84 3.81 13.79 13.79 0 0 1-5.6 1 14.24 14.24 0 0 1-5.72-1.1 12.17 12.17 0 0 1-4.4-3.25 14.44 14.44 0 0 1-2.82-5.18 21.93 21.93 0 0 1-1-6.65 20.35 20.35 0 0 1 1.68-8.63 12.64 12.64 0 0 1 4.82-5.56 15.44 15.44 0 0 1 13.08-.91 15.08 15.08 0 0 1 4.76 3.79l-2.3 2.11a14.87 14.87 0 0 0-2.56-2.38 8.42 8.42 0 0 0-2.54-1.25 11.16 11.16 0 0 0-3-.37 9.58 9.58 0 0 0-8.38 4.19 11 11 0 0 0-1.65 3.79 23.41 23.41 0 0 0-.5 5.23 23.71 23.71 0 0 0 .48 5.2 11.39 11.39 0 0 0 1.66 3.85 9.58 9.58 0 0 0 8.38 4.19 9.83 9.83 0 0 0 4.32-.88 12.72 12.72 0 0 0 3.81-3.12zM392.52 53.69a34.45 34.45 0 0 1-.32 4.8 17.24 17.24 0 0 1-1.2 4.32 11.24 11.24 0 0 1-2.43 3.61 12.91 12.91 0 0 1-17.58 0 11.29 11.29 0 0 1-2.43-3.6 17 17 0 0 1-1.18-4.27 34.35 34.35 0 0 1-.32-4.86 28.82 28.82 0 0 1 .83-7.2A11.77 11.77 0 0 1 371 41a12.91 12.91 0 0 1 17.58 0 11.26 11.26 0 0 1 2.42 3.61 17.25 17.25 0 0 1 1.18 4.3 34.12 34.12 0 0 1 .34 4.78zm-3.39 0a31.33 31.33 0 0 0-.53-6.2 8.36 8.36 0 0 0-2.28-4.32 9.28 9.28 0 0 0-13.06 0 8.38 8.38 0 0 0-2.28 4.4 31.53 31.53 0 0 0-.53 6.12 31.85 31.85 0 0 0 .53 6.12 8.4 8.4 0 0 0 2.28 4.43 9.28 9.28 0 0 0 13.06 0 8.36 8.36 0 0 0 2.28-4.33 31.57 31.57 0 0 0 .53-6.22zM442.16 69.49h-3.33V49.92q0-4.57-2.23-7a8.33 8.33 0 0 0-6.45-2.43 8.83 8.83 0 0 0-6.5 2.38 8.65 8.65 0 0 0-2.41 6.44v20.18h-3.33V49.92q0-4.57-2.24-7a8.35 8.35 0 0 0-6.46-2.43 9.81 9.81 0 0 0-4.81 1.1 7.29 7.29 0 0 0-3.05 3.23 11.37 11.37 0 0 0-1.06 5.1v19.57H397V37.93h3.33v3.74a11.76 11.76 0 0 1 9.37-4.12 13.08 13.08 0 0 1 4.29.67 10 10 0 0 1 5.85 5.08 11.89 11.89 0 0 1 10.73-5.76 13.74 13.74 0 0 1 4.73.77 9.63 9.63 0 0 1 3.58 2.24q3.33 3.13 3.33 8.76z" fill="#fff"/><g fill="#fff"><path d="M267.47 97.25h-1.33v-7.48a3.69 3.69 0 0 0-.9-2.67 3.43 3.43 0 0 0-2.59-.93 4.09 4.09 0 0 0-1.93.42 2.84 2.84 0 0 0-1.22 1.23 4.18 4.18 0 0 0-.42 1.95v7.47h-1.33v-12h1.33v1.43a4.79 4.79 0 0 1 3.73-1.57 4.73 4.73 0 0 1 3.36 1.15 4.28 4.28 0 0 1 1.31 3.35zM280.55 91.21a12.46 12.46 0 0 1-.13 1.83 6.35 6.35 0 0 1-.47 1.65 4.29 4.29 0 0 1-1 1.38 5.37 5.37 0 0 1-7 0 4.28 4.28 0 0 1-1-1.37 6.28 6.28 0 0 1-.47-1.63 12.47 12.47 0 0 1-.13-1.86 10.49 10.49 0 0 1 .33-2.75 4.44 4.44 0 0 1 1.24-2.1 5.37 5.37 0 0 1 7 0 4.29 4.29 0 0 1 1 1.38 6.37 6.37 0 0 1 .47 1.64 12.34 12.34 0 0 1 .16 1.83zm-1.36 0a11.4 11.4 0 0 0-.21-2.37 3.14 3.14 0 0 0-.91-1.65 3.85 3.85 0 0 0-5.23 0 3.15 3.15 0 0 0-.91 1.68 13.06 13.06 0 0 0 0 4.68 3.16 3.16 0 0 0 .91 1.69 3.85 3.85 0 0 0 5.23 0 3.14 3.14 0 0 0 .91-1.65 11.48 11.48 0 0 0 .21-2.38zM299.38 85.2l-4.05 12H294l-3.58-10-3.56 10h-1.37l-4-12h1.46l3.23 10.55 3.63-10.55H291l3.63 10.55 3.27-10.55zM314.72 85.2l-5.88 15.32a3.12 3.12 0 0 1-.86 1.4 3.46 3.46 0 0 1-2.4.77H305v-1.12h.5a3.23 3.23 0 0 0 1.13-.16 1.51 1.51 0 0 0 .68-.53 4.25 4.25 0 0 0 .5-1l1-2.67-4.62-12h1.46l3.81 10.55 3.81-10.55zM325.78 91.21a12.46 12.46 0 0 1-.13 1.83 6.35 6.35 0 0 1-.47 1.65 4.29 4.29 0 0 1-1 1.38 5.37 5.37 0 0 1-7 0 4.28 4.28 0 0 1-1-1.37 6.28 6.28 0 0 1-.47-1.63 12.47 12.47 0 0 1-.13-1.86 10.49 10.49 0 0 1 .33-2.75 4.44 4.44 0 0 1 1.24-2.1 5.37 5.37 0 0 1 7 0 4.29 4.29 0 0 1 1 1.38 6.37 6.37 0 0 1 .47 1.64 12.34 12.34 0 0 1 .16 1.83zm-1.36 0a11.4 11.4 0 0 0-.21-2.37 3.14 3.14 0 0 0-.91-1.65 3.85 3.85 0 0 0-5.23 0 3.15 3.15 0 0 0-.91 1.68 13.06 13.06 0 0 0 0 4.68 3.16 3.16 0 0 0 .91 1.69 3.85 3.85 0 0 0 5.23 0 3.14 3.14 0 0 0 .91-1.65 11.48 11.48 0 0 0 .21-2.38zM338.4 97.25h-1.33v-1.43a4.8 4.8 0 0 1-3.74 1.58 4.74 4.74 0 0 1-3.33-1.16 4.28 4.28 0 0 1-1.32-3.34v-7.7H330v7.47a3.69 3.69 0 0 0 .9 2.67 3.44 3.44 0 0 0 2.59.93 4.11 4.11 0 0 0 1.93-.42 2.84 2.84 0 0 0 1.22-1.23 4.15 4.15 0 0 0 .42-1.95V85.2h1.33zM344 81.19L342.13 83v-3.5H344zM355.77 86.2l-1 .93a3.5 3.5 0 0 0-1.09-.76 3.64 3.64 0 0 0-1.31-.2 3.46 3.46 0 0 0-1.42.29 3.05 3.05 0 0 0-1.09.8 3.42 3.42 0 0 0-.66 1.16 4.33 4.33 0 0 0-.22 1.4v7.42h-1.33v-12H349v1.6a3.6 3.6 0 0 1 1.56-1.29 5.14 5.14 0 0 1 2.14-.46 5 5 0 0 1 1.66.26 3.82 3.82 0 0 1 1.41.85zM366.52 91.5h-8.79a5.24 5.24 0 0 0 1.05 3.5 3.81 3.81 0 0 0 3.06 1.23 4.82 4.82 0 0 0 1.88-.33 5.48 5.48 0 0 0 1.62-1.12l1 .76a7 7 0 0 1-2 1.4 6.48 6.48 0 0 1-2.54.44 5.74 5.74 0 0 1-2.95-.7 4.46 4.46 0 0 1-1.85-2.07 8.25 8.25 0 0 1-.62-3.39 9 9 0 0 1 .35-2.61 5.46 5.46 0 0 1 1-1.92 4.35 4.35 0 0 1 1.61-1.21 5.18 5.18 0 0 1 2.13-.43 5.4 5.4 0 0 1 2.12.39 4.31 4.31 0 0 1 1.59 1.15 5.16 5.16 0 0 1 1 1.85 8.17 8.17 0 0 1 .35 2.48zm-1.35-1a9.86 9.86 0 0 0-.12-1.29 5.28 5.28 0 0 0-.32-1 3.15 3.15 0 0 0-1.31-1.48 3.74 3.74 0 0 0-2-.55 3.7 3.7 0 0 0-2 .54 3.28 3.28 0 0 0-1.31 1.48 5.44 5.44 0 0 0-.33 1 9.71 9.71 0 0 0-.12 1.25zM379.43 97.25h-1.16a3.24 3.24 0 0 1-1.66-.4 2.61 2.61 0 0 1-1-1.11 3.61 3.61 0 0 1-.35-1.64v-7.95h-1.73v-1h1.73v-3.81h1.36v3.86h2.86v1h-2.86v8a1.74 1.74 0 0 0 1.94 2h.92zM390.9 97.25h-1.36V96a4.54 4.54 0 0 1-1.65 1 6.92 6.92 0 0 1-2.2.29 10.41 10.41 0 0 1-1.61-.11 4.26 4.26 0 0 1-1.21-.35 3.33 3.33 0 0 1-.9-.63 3.16 3.16 0 0 1-.91-2.34 3.06 3.06 0 0 1 1.17-2.57 5.15 5.15 0 0 1 3.23-.91h4.08v-1.26a2.78 2.78 0 0 0-.84-2.22 4.12 4.12 0 0 0-2.72-.73 5.26 5.26 0 0 0-2.11.35 3.46 3.46 0 0 0-1.38 1.18l-1-.81a4.34 4.34 0 0 1 1.17-1.11 4.45 4.45 0 0 1 1.44-.56 9.1 9.1 0 0 1 1.85-.17q4.91 0 4.91 3.94zM389.55 93v-1.5h-3.93q-3.23 0-3.22 2.43a2 2 0 0 0 .8 1.77 4.34 4.34 0 0 0 2.5.57 7.84 7.84 0 0 0 1.79-.18 2.65 2.65 0 0 0 2.07-3zM398.72 97.25h-1.15a2.94 2.94 0 0 1-2.26-.84 3.22 3.22 0 0 1-.78-2.29V79.45h1.33V94.1a2.26 2.26 0 0 0 .44 1.54 2 2 0 0 0 1.51.49h.91zM411 97.25h-1.65L405 90.62l-2.88 3.17v3.45h-1.32V79.45h1.33V92l6.28-6.8h1.71l-4.18 4.5zM414.81 81h-1.65v-1.55h1.65zm-.15 16.22h-1.33v-12h1.33zM428.17 97.25h-1.33v-7.48a3.69 3.69 0 0 0-.9-2.67 3.43 3.43 0 0 0-2.59-.93 4.09 4.09 0 0 0-1.93.42 2.84 2.84 0 0 0-1.22 1.23 4.18 4.18 0 0 0-.42 1.95v7.47h-1.33v-12h1.33v1.43a4.78 4.78 0 0 1 3.73-1.57 4.73 4.73 0 0 1 3.36 1.15 4.29 4.29 0 0 1 1.31 3.35zM440.88 97.92a5.8 5.8 0 0 1-.62 2.7 4.42 4.42 0 0 1-1.79 1.86 5.52 5.52 0 0 1-2.77.67 6 6 0 0 1-2.22-.35 7.64 7.64 0 0 1-2-1.25l.91-.84a6.82 6.82 0 0 0 1.53 1 4.34 4.34 0 0 0 1.76.3 3.53 3.53 0 0 0 2.86-1.15 4.53 4.53 0 0 0 1-3V95.7a4.73 4.73 0 0 1-1.12 1 3.73 3.73 0 0 1-1.25.51 6.66 6.66 0 0 1-1.39.14 4.32 4.32 0 0 1-3.11-1Q431 94.79 431 91.21t1.63-5.12a3.6 3.6 0 0 1 1.31-.77 5.39 5.39 0 0 1 1.79-.28 5.68 5.68 0 0 1 2.09.36 4 4 0 0 1 1.67 1.34V85.2h1.33zm-1.33-6.7a7.85 7.85 0 0 0-.73-3.66 3.61 3.61 0 0 0-5.68 0 9.58 9.58 0 0 0 0 7.34 3.61 3.61 0 0 0 5.68 0 7.88 7.88 0 0 0 .73-3.69z"/></g><g fill="#fff"><path d="M434.47 24h-2.35v7.08h-1.3V24h-2.36v-1.14h6zM442.16 31.06h-1.31v-5.48l-2 4h-1l-2-4v5.48h-1.31v-8.2h1.31l2.49 5.1 2.44-5.1h1.31z"/></g><g><path d="M75.58 43.32a4 4 0 0 0-.66-3.4q-2.05-2.38-4.47-4.92c-2.89-3-6-6-9.21-8.9-1.08-.82-1.91-.8-2.62.07-3 4.77-6.85 10.26-11.42 16.27a2.79 2.79 0 0 0 .39 3.7c3.73 3.36 7.32 6.86 10.66 10.33q2.8 2.92 5.18 5.69c1 .91 1.94.78 2.9-.39a71.82 71.82 0 0 0 9.25-18.45" fill="#fff"/><path d="M76.1 20.39a8.66 8.66 0 0 0-1.27-2.21c-.76-.88-1.6-1.8-2.48-2.73-1.61-1.68-3.33-3.34-5.12-5-.57-.46-.89-.5-1-.1-.39 2.28-1.73 5.56-4 9.63a2.47 2.47 0 0 0 .81 2.75c3 2.73 6 5.55 8.68 8.4Q74 33.56 76 35.81c.75.74 1.23.58 1.46-.47a30.37 30.37 0 0 0-1.36-14.95M59.62 70.48a3 3 0 0 0 .27-3.72q-2.39-2.77-5.19-5.7c-3.36-3.51-7-7-10.7-10.35a2.48 2.48 0 0 0-3.6.35C35.3 57.32 30 63.43 24.71 69.14a2.39 2.39 0 0 0 0 3.38c3.32 3 6.5 6 9.48 9.17q2.48 2.59 4.6 5c.92.84 2 .83 3.36 0a109.27 109.27 0 0 0 17.47-16.21M36 47.34a2.65 2.65 0 0 0-.33-3.71 221.47 221.47 0 0 0-18.49-13.55 2.79 2.79 0 0 0-3.64.8 179.21 179.21 0 0 0-13.15 20c-.66 1.43-.48 2.53.55 3.39a194.06 194.06 0 0 1 16.41 12 2.5 2.5 0 0 0 3.42-.47C25.8 59.86 31 53.63 36 47.34" fill="#0096d6"/><path d="M71.33 89.32c1.06-1.28 1.49-2.3 1.33-3.15a53.87 53.87 0 0 0-7.24-12.51c-.81-.83-1.76-.68-2.9.45A97.39 97.39 0 0 1 44.77 90c-1.22 1-1.58 1.91-1.08 2.85a47.54 47.54 0 0 1 6.41 11.09c.38.56 1.24.52 2.65-.15a68 68 0 0 0 18.58-14.47M54.77 22.9a2.21 2.21 0 0 0-.67-2.9A187.93 187.93 0 0 0 38.16 8.35a3 3 0 0 0-3.24 0 109 109 0 0 0-14.46 14 2.09 2.09 0 0 0 .38 3.21 219.19 219.19 0 0 1 18.48 13.52 2.49 2.49 0 0 0 3.54-.34c4.64-6 8.65-11.29 11.91-15.84M64 8.48c.1-.42-.13-.86-.71-1.37A104.47 104.47 0 0 0 54.38.62a4 4 0 0 0-2-.62c-3.22.16-7.06 1.55-11.31 4.1-.77.59-.69 1.23.23 1.94a178.31 178.31 0 0 1 15 11c1.05.73 1.87.74 2.49.05A67.35 67.35 0 0 0 64 8.48M85.93 59.95a8.57 8.57 0 0 0 0-3.29 46.16 46.16 0 0 0-6.23-10.78c-.65-.71-1.14-.5-1.54.65a66.35 66.35 0 0 1-8.93 18.85A3.49 3.49 0 0 0 69 69a53.58 53.58 0 0 1 7.21 12.49c.36.58.95.25 1.8-1a56.77 56.77 0 0 0 7.94-20.57" fill="#fff"/><path d="M84.39 36l-.63-1.94A68.18 68.18 0 0 0 80 25.43a33.66 33.66 0 0 0-2.54-4l-.1-.12c-.06.19-.06.19.22.89a33.52 33.52 0 0 1 2.12 16 5.45 5.45 0 0 0 .74 3.21 43.68 43.68 0 0 1 5.87 10.16l.07.14c.21-.18.26-.23.26-1.52A50.46 50.46 0 0 0 84.39 36" fill="#0096d6"/></g></g></symbol><symbol viewBox="0 0 32 32" id="twitter"><path d="M32 6.1c-1.2.5-2.4.9-3.8 1 1.4-.8 2.4-2.1 2.9-3.6-1.3.8-2.7 1.3-4.2 1.6C25.7 3.8 24 3 22.2 3c-3.6 0-6.6 2.9-6.6 6.6 0 .5.1 1 .2 1.5-5.5-.3-10.3-2.9-13.6-6.9-.6 1-.9 2.1-.9 3.3 0 2.3 1.2 4.3 2.9 5.5-1.1 0-2.1-.3-3-.8v.1c0 3.2 2.3 5.8 5.3 6.4-.6.1-1.1.2-1.7.2-.4 0-.8 0-1.2-.1.8 2.6 3.3 4.5 6.1 4.6-2.2 1.8-5.1 2.8-8.2 2.8-.5 0-1.1 0-1.6-.1 3 1.8 6.5 2.9 10.2 2.9 12.1 0 18.7-10 18.7-18.7v-.8c1.2-1 2.3-2.1 3.2-3.4z"/></symbol></svg>