<svg xmlns="http://www.w3.org/2000/svg" xmlns:xlink="http://www.w3.org/1999/xlink" width="149.06" height="38.26" viewBox="0 0 149.06 38.26">
  <defs>
    <style>
      .\39 63ef052-0cfe-42fe-9e37-a1361c286b30 {
        isolation: isolate;
      }

      .\32 486dda9-ca60-4e63-863d-8ac8a446e871, .b0a98238-6121-4367-be0f-4e72baa11097, .d2edcb7f-f625-4c58-90fd-4c44fd1e7c84 {
        opacity: 0.6;
      }

      .\32 486dda9-ca60-4e63-863d-8ac8a446e871 {
        fill: url(#23577b92-9adb-4daf-b272-ed021d852911);
      }

      .bbfb202e-157b-443e-88a9-b0d9e06aed4c {
        fill: url(#2e3819e6-3f4a-414e-96d8-9ba625a4e0d9);
      }

      .\36 641a06b-e7c8-4e38-8f39-5c1ebb2694ed, .b0a98238-6121-4367-be0f-4e72baa11097, .d2edcb7f-f625-4c58-90fd-4c44fd1e7c84 {
        mix-blend-mode: multiply;
      }

      .b0a98238-6121-4367-be0f-4e72baa11097 {
        fill: url(#d814b3ff-9b14-4b96-a920-042644cec8cd);
      }

      .\31 93da357-d5be-411b-9aa4-cb2a20eb3d3d, .\36 641a06b-e7c8-4e38-8f39-5c1ebb2694ed {
        opacity: 0.98;
      }

      .\36 641a06b-e7c8-4e38-8f39-5c1ebb2694ed {
        fill: url(#4160f441-70ed-4f78-bf05-e60d9559e84a);
      }

      .d2edcb7f-f625-4c58-90fd-4c44fd1e7c84 {
        fill: url(#d90c6a2b-a343-47f4-88ba-f23ed89996f4);
      }

      .\31 93da357-d5be-411b-9aa4-cb2a20eb3d3d {
        fill: url(#aef898cb-3158-4e0d-bfe9-70436b771da5);
      }

      .\35 6df9819-ae98-4e81-b4ed-237fd31a256b {
        fill: #231f20;
      }
    </style>
    <linearGradient id="23577b92-9adb-4daf-b272-ed021d852911" x1="-472.89" y1="853.02" x2="-496.08" y2="840.73" gradientTransform="matrix(-0.21, 0.95, -0.95, -0.21, 713.57, 653.93)" gradientUnits="userSpaceOnUse">
      <stop offset="0.12" stop-color="#94a9bb"/>
      <stop offset="1" stop-color="#94a9bb" stop-opacity="0.4"/>
    </linearGradient>
    <linearGradient id="2e3819e6-3f4a-414e-96d8-9ba625a4e0d9" x1="8.26" y1="14.18" x2="39.56" y2="17.47" gradientUnits="userSpaceOnUse">
      <stop offset="0.4" stop-color="#d11c23"/>
      <stop offset="0.65" stop-color="#c3191f"/>
      <stop offset="1" stop-color="#a91317"/>
    </linearGradient>
    <linearGradient id="d814b3ff-9b14-4b96-a920-042644cec8cd" x1="-472.21" y1="841.27" x2="-479.26" y2="837.53" xlink:href="#23577b92-9adb-4daf-b272-ed021d852911"/>
    <linearGradient id="4160f441-70ed-4f78-bf05-e60d9559e84a" x1="13.7" y1="24.53" x2="9.82" y2="13.28" gradientUnits="userSpaceOnUse">
      <stop offset="0" stop-color="#94a9bb"/>
      <stop offset="1" stop-color="#94a9bb" stop-opacity="0.45"/>
    </linearGradient>
    <linearGradient id="d90c6a2b-a343-47f4-88ba-f23ed89996f4" x1="-491" y1="850.4" x2="-498.32" y2="846.52" xlink:href="#23577b92-9adb-4daf-b272-ed021d852911"/>
    <linearGradient id="aef898cb-3158-4e0d-bfe9-70436b771da5" x1="26.53" y1="37.51" x2="17.04" y2="9.96" xlink:href="#4160f441-70ed-4f78-bf05-e60d9559e84a"/>
  </defs>
  <title>company-logo-polycom</title>
  <g class="963ef052-0cfe-42fe-9e37-a1361c286b30">
    <g id="1f913dbf-6d9f-47e7-b4a2-61c3d9c1b02d" data-name="Layer 2">
      <g id="0c397bb5-ad57-4ebe-854c-917a38d199f3" data-name="Layer 1">
        <g>
          <path class="2486dda9-ca60-4e63-863d-8ac8a446e871" d="M25.77,19.54a12.89,12.89,0,0,0-10-15.21A12.89,12.89,0,0,0,.29,14a12.89,12.89,0,0,0,10,15.21A12.89,12.89,0,0,0,25.77,19.54ZM4.52,15.79A9.9,9.9,0,0,1,16.09,7.92a9.9,9.9,0,0,1,7.25,12,9.9,9.9,0,0,1-11.58,7.87A9.9,9.9,0,0,1,4.52,15.79Z"/>
          <path class="bbfb202e-157b-443e-88a9-b0d9e06aed4c" d="M23.91,0A15.78,15.78,0,0,0,8.18,15.83a16,16,0,0,0,.22,2.66A15.77,15.77,0,0,0,23.91,31.65a15.68,15.68,0,0,0,12-5.6A15.84,15.84,0,0,0,23.91,0Zm10,22.32a13,13,0,0,1-8.71,3.25c-6,0-11.08-3.94-12.22-9.16a10.43,10.43,0,0,1-.06-4.19c1-5.37,6.12-9.46,12.28-9.46,6.88,0,12.46,5.11,12.46,11.41a10.67,10.67,0,0,1-2,6.23A11.74,11.74,0,0,1,33.89,22.32Z"/>
          <path class="b0a98238-6121-4367-be0f-4e72baa11097" d="M20.77,24.84A9.67,9.67,0,0,1,13.83,28a15.38,15.38,0,0,0,1.8,1.3,12.89,12.89,0,0,0,7.12-3.93A12.29,12.29,0,0,1,20.77,24.84Z"/>
          <path class="6641a06b-e7c8-4e38-8f39-5c1ebb2694ed" d="M13,16.73c0-.1-.05-.21-.08-.32a10.57,10.57,0,0,1-.24-2.25,10.2,10.2,0,0,1,.19-1.94h0a14.11,14.11,0,0,0-4.5,6.26h0a15.83,15.83,0,0,0,2.9,6.81l0,.05A10.5,10.5,0,0,1,13,16.73Z"/>
          <path class="d2edcb7f-f625-4c58-90fd-4c44fd1e7c84" d="M15.74,4.33A13.69,13.69,0,0,0,13.42,4,15.74,15.74,0,0,0,9.83,8.77a9.28,9.28,0,0,1,5.06-1A12,12,0,0,1,17.81,5,13.44,13.44,0,0,0,15.74,4.33Z"/>
          <path class="193da357-d5be-411b-9aa4-cb2a20eb3d3d" d="M35.62,20.39a15.33,15.33,0,0,0-.64-2,14.4,14.4,0,0,0-18.64-8.2,13.72,13.72,0,0,0-3.44,2h0a10.24,10.24,0,0,0-.19,1.94A10.58,10.58,0,0,0,13,16.41c0,.1,0,.21.08.32a11.91,11.91,0,0,1,5.32-4.18c5.83-2.35,12.33.14,14.52,5.57a9.93,9.93,0,0,1,.69,4.49,11.26,11.26,0,0,1-4.89,8.3,12.05,12.05,0,0,1-2.4,1.29c-5.83,2.35-12.33-.15-14.52-5.57a9.9,9.9,0,0,1-.42-1.28l0-.05a15.81,15.81,0,0,1-2.9-6.81,14.73,14.73,0,0,0,.2,10.57,14.4,14.4,0,0,0,18.63,8.2,14.14,14.14,0,0,0,8.68-11.2A14.69,14.69,0,0,0,35.62,20.39Z"/>
          <g>
            <path class="56df9819-ae98-4e81-b4ed-237fd31a256b" d="M92.74,15.66l-3.9,10-.65,1.68L86.7,23.5l-3.07-7.84H81l4.71,11.19.74,1.77.21.49.3.73a4.08,4.08,0,0,1-.77,1.5.3.3,0,0,0-.08.1h0a2.63,2.63,0,0,1-1.25.94,1.61,1.61,0,0,1-.89,0,3.38,3.38,0,0,1-1.19-.64l-1.31,1.7a4.81,4.81,0,0,0,2.86,1.14,3.61,3.61,0,0,0,1.16-.16A4.84,4.84,0,0,0,88,32.6a.8.8,0,0,0,.1-.13,3.87,3.87,0,0,0,.22-.33,2.83,2.83,0,0,0,.17-.28c.07-.14.15-.26.2-.4a.69.69,0,0,0,.08-.14,2,2,0,0,1,.09-.19l.09-.26.41-.94,6-14.26Z"/>
            <path class="56df9819-ae98-4e81-b4ed-237fd31a256b" d="M54.34,21.89H49v7.63h-2.5V10.39h7.8a5.76,5.76,0,1,1,0,11.5Zm0-9.29H49v7.11l5.31,0a3.56,3.56,0,0,0,3.41-3.53A3.63,3.63,0,0,0,54.34,12.59Z"/>
            <path class="56df9819-ae98-4e81-b4ed-237fd31a256b" d="M67.89,29.89a7.05,7.05,0,0,1-7-7.32,7,7,0,1,1,14.05,0A7,7,0,0,1,67.89,29.89Zm0-12.71c-2.84,0-4.65,2.41-4.65,5.39S65.05,28,67.89,28s4.65-2.41,4.65-5.42S70.76,17.18,67.89,17.18Z"/>
            <path class="56df9819-ae98-4e81-b4ed-237fd31a256b" d="M77.17,29.52l0-19.13h2.29l0,19.13Z"/>
            <path class="56df9819-ae98-4e81-b4ed-237fd31a256b" d="M102.13,29.89a7.05,7.05,0,0,1-7-7.32,7.07,7.07,0,0,1,7-7.31,6.79,6.79,0,0,1,5.45,2.38l-1.52,1.49a4.9,4.9,0,0,0-3.93-2c-2.84,0-4.65,2.41-4.65,5.39S99.3,28,102.13,28a4.89,4.89,0,0,0,3.93-2l1.52,1.52A6.88,6.88,0,0,1,102.13,29.89Z"/>
            <path class="56df9819-ae98-4e81-b4ed-237fd31a256b" d="M115.54,29.89a7.05,7.05,0,0,1-7-7.32,7,7,0,1,1,14.05,0A7,7,0,0,1,115.54,29.89Zm0-12.71c-2.84,0-4.65,2.41-4.65,5.39S112.7,28,115.54,28s4.65-2.41,4.65-5.42S118.41,17.18,115.54,17.18Z"/>
            <path class="56df9819-ae98-4e81-b4ed-237fd31a256b" d="M141.3,29.52v-9c0-2.24-.92-3.3-2.64-3.3-1.46,0-2.58,1.15-3.33,2.07V29.52H133v-9c0-2.24-.95-3.3-2.64-3.3-1.49,0-2.58,1.15-3.36,2.07V29.52h-2.3V15.66H127v1.72a4.93,4.93,0,0,1,4-2.12,3.71,3.71,0,0,1,3.87,2.61,5.32,5.32,0,0,1,4.41-2.61c2.81,0,4.25,1.89,4.25,5.22v9Z"/>
          </g>
          <path class="56df9819-ae98-4e81-b4ed-237fd31a256b" d="M143.71,11.86v3.33h-.48V11.86h-1.06v-.45h2.61v.45Zm4.87,3.33V12.06l-1.29,3.12h-.14l-1.29-3.12v3.12h-.48V11.41h.74l1.1,2.74,1.1-2.74h.74v3.77Z"/>
        </g>
      </g>
    </g>
  </g>
</svg>
