<?xml version="1.0" encoding="utf-8"?>
<!-- Generator: Adobe Illustrator 21.0.1, SVG Export Plug-In . SVG Version: 6.00 Build 0)  -->
<svg version="1.1" id="Layer_1" xmlns="http://www.w3.org/2000/svg" xmlns:xlink="http://www.w3.org/1999/xlink" x="0px" y="0px"
	 viewBox="0 0 500 500" enable-background="new 0 0 500 500" xml:space="preserve">
<g>
	<polygon fill="#FFFFFF" points="328.9,50.6 486.7,133.7 486.7,449.4 328.9,366.3 171.1,449.4 13.3,366.3 13.3,50.6 171.1,133.7 	
		"/>
	<g>
		<path fill="#4D5152" d="M486.7,457.7c-1.3,0-2.7-0.3-3.9-1l-153.9-81l-153.9,81c-2.4,1.3-5.3,1.3-7.7,0L9.4,373.6
			c-2.7-1.4-4.4-4.3-4.4-7.3V50.6c0-2.9,1.5-5.6,4-7.1c2.5-1.5,5.6-1.6,8.2-0.2l153.9,81l153.9-81c2.4-1.3,5.3-1.3,7.7,0l157.8,83.1
			c2.7,1.4,4.4,4.3,4.4,7.3v315.7c0,2.9-1.5,5.6-4,7.1C489.7,457.3,488.2,457.7,486.7,457.7z M21.6,361.3L171.1,440l153.9-81
			c2.4-1.3,5.3-1.3,7.7,0l145.6,76.7V138.7L328.9,60l-153.9,81c-2.4,1.3-5.3,1.3-7.7,0L21.6,64.4V361.3z"/>
	</g>
	<g>
		<rect x="162.8" y="133.7" fill="#4D5152" width="16.6" height="315.7"/>
	</g>
	<g>
		<rect x="320.6" y="50.6" fill="#4D5152" width="16.6" height="315.7"/>
	</g>
	<polygon fill="#ACF0F2" points="461.8,399.5 353.8,341.4 353.8,100.5 461.8,158.6 	"/>
	<polygon fill="#ACF0F2" points="196,399.5 304,341.4 304,100.5 196,158.6 	"/>
	<path fill="#F28C13" d="M403.6,283.2c0,41.5-74.7,174.4-74.7,174.4s-74.7-132.9-74.7-174.4c0-41.5,33.2-74.8,74.7-74.8
		S403.6,241.7,403.6,283.2z"/>
	<ellipse fill="#FFFFFF" cx="329.9" cy="283.2" rx="33.2" ry="33.2"/>
	<g>
		<path fill="#4D5152" d="M328.3,324.8c-22.5,0-40.4-18-40.9-41.3c-0.3-10.9,3.9-21.2,11.6-29.1c7.8-8,18.8-12.6,30-12.6
			c22.9,0,41.5,18.6,41.5,41.5c0,22.9-18.2,41.1-41.4,41.5C328.8,324.8,328.5,324.8,328.3,324.8z M328.9,258.3
			c-6.8,0-13.4,2.8-18.1,7.6c-4.6,4.7-7,10.7-6.8,17.1c0.3,14.4,10.7,25.1,24.3,25.1c0.2,0,0.3,0,0.5,0
			c14.1-0.3,25.1-11.2,25.1-24.9C353.8,269.5,342.6,258.3,328.9,258.3z"/>
	</g>
	<polygon fill="#ACF0F2" points="146.2,399.5 38.2,341.4 38.2,100.5 146.2,158.6 	"/>
</g>
</svg>
