<?xml version="1.0" encoding="utf-8"?>
<!-- Generator: Adobe Illustrator 21.0.1, SVG Export Plug-In . SVG Version: 6.00 Build 0)  -->
<svg version="1.1" id="Layer_1" xmlns="http://www.w3.org/2000/svg" xmlns:xlink="http://www.w3.org/1999/xlink" x="0px" y="0px"
	 viewBox="0 0 500 500" enable-background="new 0 0 500 500" xml:space="preserve">
<g>
	<rect x="8.8" y="187.8" fill="#FFFFFF" width="482.4" height="264.6"/>
	<polygon fill="#F28C13" points="250,318.1 8.8,450.4 8.8,185.8 	"/>
	<polygon fill="#F28C13" points="413.4,230.4 413.4,452.3 491.2,452.3 491.2,187.8 	"/>
	<polygon fill="#FFB957" points="8.8,452.3 413.4,452.3 413.4,230.4 	"/>
	<g>
		<polygon fill="#4D5152" points="499,460.1 1,460.1 1,180 78.8,180 78.8,195.5 16.6,195.5 16.6,444.5 483.4,444.5 483.4,195.5 
			421.2,195.5 421.2,180 499,180 		"/>
	</g>
	<polygon fill="#FFFFFF" points="413.4,234.4 250,320 86.6,234.4 86.6,47.7 351.2,47.7 413.4,109.9 	"/>
	<g>
		
			<rect x="-25.1" y="312.2" transform="matrix(0.8768 -0.4808 0.4808 0.8768 -123.0821 159.6349)" fill="#4D5152" width="550.2" height="15.6"/>
	</g>
	<g>
		
			<rect x="121.6" y="116.3" transform="matrix(0.4808 -0.8768 0.8768 0.4808 -155.4351 245.2697)" fill="#4D5152" width="15.6" height="275.1"/>
	</g>
	<g>
		<polygon fill="#4D5152" points="421.2,234.4 405.6,234.4 405.6,117.7 343.4,117.7 343.4,55.5 94.4,55.5 94.4,234.4 78.8,234.4 
			78.8,39.9 358.9,39.9 358.9,102.2 421.2,102.2 		"/>
	</g>
	<g>
		
			<rect x="374.5" y="34.8" transform="matrix(0.7071 -0.7071 0.7071 0.7071 56.2432 293.4081)" fill="#4D5152" width="15.6" height="88"/>
	</g>
	<rect x="125.5" y="55.5" fill="#67DDE0" width="186.8" height="77.8"/>
	<g>
		<rect x="125.5" y="148.8" fill="#4D5152" width="249" height="15.6"/>
	</g>
	<g>
		<rect x="125.5" y="180" fill="#4D5152" width="249" height="15.6"/>
	</g>
	<g>
		<rect x="125.5" y="211.1" fill="#4D5152" width="249" height="15.6"/>
	</g>
	<g>
		<rect x="125.5" y="242.2" fill="#4D5152" width="249" height="15.6"/>
	</g>
	<g>
		<rect x="180" y="273.3" fill="#4D5152" width="140.1" height="15.6"/>
	</g>
	<g>
		<rect x="141.1" y="71" fill="#4D5152" width="15.6" height="15.6"/>
	</g>
	<g>
		<rect x="172.2" y="71" fill="#4D5152" width="15.6" height="15.6"/>
	</g>
	<g>
		<rect x="203.3" y="71" fill="#4D5152" width="15.6" height="15.6"/>
	</g>
</g>
</svg>
