<?xml version="1.0" encoding="utf-8"?>
<!-- Generator: Adobe Illustrator 21.0.1, SVG Export Plug-In . SVG Version: 6.00 Build 0)  -->
<svg version="1.1" id="Layer_1" xmlns="http://www.w3.org/2000/svg" xmlns:xlink="http://www.w3.org/1999/xlink" x="0px" y="0px"
	 viewBox="0 0 543.2 543.2" enable-background="new 0 0 543.2 543.2" xml:space="preserve">
<g>
	<path fill="#FFFFFF" d="M502.3,436.7c0,9.1-7.4,16.5-16.5,16.5H122.4c-9.1,0-16.5-7.4-16.5-16.5V40.4c0-9.1,7.4-16.5,16.5-16.5
		h363.4c9.1,0,16.5,7.4,16.5,16.5V436.7z"/>
	<g>
		<path fill="#4D5152" d="M485.8,461.5h-256V445h256c4.6,0,8.3-3.7,8.3-8.3V40.4c0-4.6-3.7-8.3-8.3-8.3H122.4
			c-4.6,0-8.3,3.7-8.3,8.3v396.4c0,4.6,3.7,8.3,8.3,8.3h57.8v16.5h-57.8c-13.7,0-24.8-11.1-24.8-24.8V40.4
			c0-13.7,11.1-24.8,24.8-24.8h363.4c13.7,0,24.8,11.1,24.8,24.8v396.4C510.6,450.4,499.5,461.5,485.8,461.5z"/>
	</g>
	<g>
		<path fill="#4D5152" d="M155.5,527.6H89.4c-31.9,0-57.8-25.9-57.8-57.8V379c0-31.9,25.9-57.8,57.8-57.8h16.5v16.5H89.4
			c-22.8,0-41.3,18.5-41.3,41.3v90.8c0,22.8,18.5,41.3,41.3,41.3h66.1c22.8,0,41.3-18.5,41.3-41.3V412h16.5v57.8
			C213.3,501.6,187.3,527.6,155.5,527.6z"/>
	</g>
	<rect x="295.9" y="65.1" fill="#67DDE0" width="165.2" height="49.5"/>
	<g>
		<rect x="262.8" y="164.2" fill="#FFB957" width="231.2" height="181.7"/>
	</g>
	<g>
		<rect x="312.4" y="197.3" fill="#4D5152" width="33" height="16.5"/>
	</g>
	<g>
		<rect x="361.9" y="197.3" fill="#4D5152" width="33" height="16.5"/>
	</g>
	<g>
		<rect x="411.5" y="197.3" fill="#4D5152" width="33" height="16.5"/>
	</g>
	<g>
		<rect x="312.4" y="131.2" fill="#4D5152" width="33" height="16.5"/>
	</g>
	<g>
		<rect x="361.9" y="131.2" fill="#4D5152" width="33" height="16.5"/>
	</g>
	<g>
		<rect x="411.5" y="131.2" fill="#4D5152" width="33" height="16.5"/>
	</g>
	<g>
		<rect x="312.4" y="230.3" fill="#4D5152" width="33" height="16.5"/>
	</g>
	<g>
		<rect x="361.9" y="230.3" fill="#4D5152" width="33" height="16.5"/>
	</g>
	<g>
		<rect x="411.5" y="230.3" fill="#4D5152" width="33" height="16.5"/>
	</g>
	<g>
		<rect x="312.4" y="263.3" fill="#4D5152" width="33" height="16.5"/>
	</g>
	<g>
		<rect x="361.9" y="263.3" fill="#4D5152" width="33" height="16.5"/>
	</g>
	<g>
		<rect x="411.5" y="263.3" fill="#4D5152" width="33" height="16.5"/>
	</g>
	<g>
		<rect x="312.4" y="296.4" fill="#4D5152" width="33" height="16.5"/>
	</g>
	<g>
		<rect x="361.9" y="296.4" fill="#4D5152" width="33" height="16.5"/>
	</g>
	<g>
		<rect x="411.5" y="296.4" fill="#4D5152" width="33" height="16.5"/>
	</g>
	<g>
		<path fill="#4D5152" d="M238,412h-66c-13.7,0-24.8-11.1-24.8-24.8V89.9c0-13.7,11.1-24.8,24.8-24.8h66c13.7,0,24.8,11.1,24.8,24.8
			v297.3C262.8,400.9,251.7,412,238,412z M172,81.6c-4.6,0-8.3,3.7-8.3,8.3v297.3c0,4.6,3.7,8.3,8.3,8.3h66c4.6,0,8.3-3.7,8.3-8.3
			V89.9c0-4.6-3.7-8.3-8.3-8.3H172z"/>
	</g>
	<g>
		<rect x="196.7" y="230.3" fill="#4D5152" width="16.5" height="16.5"/>
	</g>
	<g>
		<rect x="196.7" y="197.3" fill="#4D5152" width="16.5" height="16.5"/>
	</g>
	<g>
		<rect x="196.7" y="263.3" fill="#4D5152" width="16.5" height="16.5"/>
	</g>
</g>
</svg>
