<svg id="81fdcdf8-8f43-4fe6-9d54-96ae9c2a67d8" data-name="Layer 1" xmlns="http://www.w3.org/2000/svg" width="996.9" height="652.11" viewBox="0 0 996.9 652.11">
  <title>expanding</title>
  <path d="M999,327c-1.18,1.08-2.85,1.95-3.45,3.29-6.43,14.2-18.15,23.7-30.06,32.6a309.29,309.29,0,0,1-36.68,23.77c-23.76,13-47.94,25.21-72.2,37.25-16.93,8.41-34.22,16.11-51.45,23.91-15.71,7.11-31.59,13.85-47.34,20.89-20.59,9.2-41.08,18.64-61.69,27.79-17.27,7.66-34.65,15.11-52,22.55-14.19,6.07-28.38,12.15-42.68,17.93s-28.83,11.83-43.57,16.79q-33,11.12-66.54,20.8c-21.07,6-42.46,11-63.65,16.64-20.08,5.33-40.08,11-60.15,16.32C350.8,612,334,616.22,317.3,620.68c-20.4,5.44-40.74,11.1-61.14,16.52-16.88,4.49-33.83,8.66-50.7,13.17-15.39,4.11-30.6,9-46.11,12.53a53.2,53.2,0,0,1-21,.66c-13.38-2.47-21.11-19.15-16.61-32.37,2.8-8.23,2.66-8.17-3.74-13.41q-12.13-9.95-24-20.16Q74.3,580.81,54.8,563.83,32.66,544.51,10.72,525c-2.76-2.46-5.72-5-7.47-8.19-2.63-4.73-.55-9.51,4.15-12.23,19.1-11.07,39.83-13.44,61.11-10.18,13.07,2,25.82,6.09,38.74,9.11,6.48,1.51,13,2.69,19.54,4.07,14,2.95,28,5.82,41.93,8.91,22.54,5,45,10.11,67.56,15.2,7.61,1.72,15.18,3.64,22.82,5.26a7.14,7.14,0,0,0,4.71-.65c19.55-11.62,38.95-23.51,58.54-35.06,17.11-10.09,34.41-19.86,51.67-29.72,5.89-3.36,12-6.42,17.77-9.91,1.49-.89,3.23-2.92,3.18-4.36s-2.12-2.93-3.6-4c-6.13-4.22-12.43-8.21-18.58-12.41q-18.5-12.62-36.91-25.36c-11.45-7.9-22.86-15.88-34.33-23.76S278.49,376,267,368.15q-29.75-20.38-59.48-40.8c-13.67-9.35-27.44-18.55-41.06-28-11-7.62-21.87-15.55-32.91-23.18-8.45-5.84-17.13-11.34-25.6-17.15-11.23-7.71-22.34-15.58-33.51-23.37-7.6-5.3-15.46-10.27-22.76-15.95-6.5-5.06-4.38-15.69,3.36-18.62,19.08-7.23,38-14.87,57.32-21.47,17.34-5.93,35.46-7.41,53.07-1.79,13.4,4.27,26.12,10.67,39.15,16.1,10.73,4.47,21.51,8.82,32.19,13.4,24.55,10.53,49,21.25,73.6,31.72,16.2,6.9,32.89,12.75,48.61,20.58,6.58,3.28,10.64.39,15.45-1.55,14.76-6,29.4-12.24,44-18.54,14-6,27.88-12.35,41.91-18.29,15.08-6.39,29.43-4.15,41.33,6.65,9.46,8.58,13.52,20.33,12.92,33.36-.76,16.43-9.14,27.16-24.43,32.8-3.08,1.14-6.11,2.46-9.07,3.89-.93.45-2.13,1.52-2.16,2.35a3.55,3.55,0,0,0,1.93,2.55,78,78,0,0,0,9.74,3.73c23,6.76,46,13.32,68.92,20.16,14.15,4.22,28.18,8.86,42.3,13.2,6.2,1.9,12.44,3.78,18.77,5.12,2.23.47,5-.27,7.19-1.15,15.74-6.17,31.24-13,47.14-18.72Q725.55,307,776.52,289.69A339.55,339.55,0,0,1,816,279.12c13.81-2.86,27.74-.86,41.62,1.1,16.14,2.28,32.37,4,48.6,5.61,18.2,1.75,36.51,2.48,54.64,4.73,10.65,1.32,21.43,3.84,29.38,12.25,1.56,1.65,2.47,3.91,4,5.58A32.73,32.73,0,0,0,999,312Z" transform="translate(-2.1 -174.35)"/>
  <path d="M359.84,826.42c-13.27.59-18.13-13.75-12.41-25.17,4.22-8.43,9.34-16.42,14.13-24.56,3.69-6.27,7.51-12.47,11.24-18.71,9.35-15.64,18.79-31.24,28-47,7.38-12.59,14.36-25.42,21.76-38,10-17,20.66-33.59,30.11-50.87,3.3-6,7.92-7.83,13.56-9.34,17.82-4.76,35.65-9.49,53.43-14.37,10.86-3,21.8-5.75,32.43-9.43,13-4.5,25.77-9.73,38.56-14.85Q617.91,563.25,645,552c7.06-2.91,13.91-6.31,21-9.25,5.64-2.35,10-1.33,12.54,2.44s1.59,8.62-2.84,12.87c-12.94,12.41-25.94,24.75-38.82,37.21-1,1-2,3-1.71,4.17s2.33,2.24,3.73,2.45c12,1.79,24.37,13.93,24.73,28,.21,7.93-.25,15.19-4.07,22.38-3.26,6.14-8.68,9.27-14.33,11.82-15.59,7-31.51,13.35-47.17,20.23-21,9.2-41.66,19-62.75,27.86-9.62,4-17.16,9.51-23.39,18.14-9.31,12.89-19.8,25-30.38,36.88-11.78,13.25-23.6,26.6-36.66,38.53-5.8,5.29-14.37,8.67-22.24,10.36-19.63,4.21-39.57,6.95-59.39,10.26A30.45,30.45,0,0,1,359.84,826.42Z" transform="translate(-2.1 -174.35)"/>
</svg>
