<svg xmlns="http://www.w3.org/2000/svg" xmlns:xlink="http://www.w3.org/1999/xlink" width="476.03" height="380.43" viewBox="0 0 476.03 380.43">
  <defs>
    <clipPath id="28649cb6-6cf9-43a0-a034-eb883d67a749" transform="translate(-17.57 -62)">
      <rect width="512" height="512" style="fill: none"/>
    </clipPath>
  </defs>
  <title>Asset 1</title>
  <g id="4c1ceb3e-75ea-4330-b965-91d6e1b6c05b" data-name="Layer 2">
    <g id="fd4593eb-c391-45b3-8297-d4f76e6931e5" data-name="Layer 1">
      <g style="clip-path: url(#28649cb6-6cf9-43a0-a034-eb883d67a749)">
        <path d="M76.8,343.6a4.4,4.4,0,0,1,2.4-4,4,4,0,0,1,5.2,2l24,53.2a3.94,3.94,0,1,1-7.2,3.2l-24-53.2A1.47,1.47,0,0,1,76.8,343.6Z" transform="translate(-17.57 -62)" style="fill: #2c3e50"/>
      </g>
      <g style="clip-path: url(#28649cb6-6cf9-43a0-a034-eb883d67a749)">
        <path d="M460.4,303.2a78.1,78.1,0,0,0-9.2.8c-29.6,5.2-115.2,34.4-132,40a108.79,108.79,0,0,1-4,18.4l6.4-2c1.2-.4,101.2-34.8,132.4-40.4a39.89,39.89,0,0,1,6.4-.8,21.42,21.42,0,0,1,9.6,2c-49.6,31.2-142.8,88.8-163.6,97.2-11.2,4.4-19.6,6.4-26.4,6.4-8,0-14.8-2.4-24.8-6.4-20-8-119.6-44.4-123.2-46L114.4,408,71.2,426.4H69.6L34,351.2c0-.8.4-2,.8-2,0,0,98-39.6,110-44a85.86,85.86,0,0,1,32-6c20,0,41.6,6.4,64,19.2,25.6,14.4,42.4,24.8,52.4,31.2-.8,3.6-1.6,6.8-2.8,8.4-14-1.2-54-12.8-80-20.8L206,352s68.4,22,87.2,22h1.6c9.2-.8,13.6-19.6,15.6-31.6C300,335.6,276,319.2,248.8,304c-28-15.6-52.4-21.2-72-21.2a102,102,0,0,0-38,7.2L28,334.4c-6.4,2.8-10.8,10.8-10.4,18a10.65,10.65,0,0,0,1.2,4.8l35.6,76c3.6,8,14,11.2,22.4,8L120,422.8c4.4-2,6.8-6,10.4-11.6l8.4-18.8s90,32.8,110,40.8c10.8,4.4,20,7.6,30.4,7.6,8.8,0,18.8-2,32.4-7.6,30-12,182-108.4,182-108.4S486,303.2,460.4,303.2Z" transform="translate(-17.57 -62)" style="fill: #2c3e50"/>
      </g>
      <g style="clip-path: url(#28649cb6-6cf9-43a0-a034-eb883d67a749)">
        <path d="M220.8,226.8h-1.6c-9.6-.4-24.8-5.2-44.4-23.2l15.6-4.8c15.6-5.2,32-10.4,46.8-10.4a49.24,49.24,0,0,1,8,.8c9.2,1.6,17.2,5.6,27.6,19.6C248,221.6,233.2,226.8,220.8,226.8ZM291.6,208c-14.8-23.6-27.6-32.4-44-35.2-36.8-6-78.8,22.4-105.2,19.6,16.8,20,44.8,49.2,76.4,50.4,20,.8,41.2-8.4,73.2-27.2C295.2,213.2,293.6,211.6,291.6,208Z" transform="translate(-17.57 -62)" style="fill: #3b97d3"/>
      </g>
      <g style="clip-path: url(#28649cb6-6cf9-43a0-a034-eb883d67a749)">
        <path d="M354,144.8c-7.2,10.8-20,20-46.4,32.4-5.6-16.4-4-25.2,0-33.6,7.6-14.8,24-26.8,40-38.8,4.4-3.2,8.8-6.4,13.2-10C364,121.6,359.2,136.4,354,144.8ZM370.4,62c-12.8,23.6-60.4,41.2-77.2,74.4-7.6,15.2-7.6,30.8,2.8,56.4,1.6,4,2,6,6,4.4,34-15.2,54-27.2,64.8-43.6C384.4,127.6,377.2,87.2,370.4,62Z" transform="translate(-17.57 -62)" style="fill: #3b97d3"/>
      </g>
      <g style="clip-path: url(#28649cb6-6cf9-43a0-a034-eb883d67a749)">
        <path d="M284,315.6c3.6,2.4,7.2,4.8,10.8,6.8,15.2-26.8,30-70,22.4-112-.8-3.6-5.6-5.2-8.8-3.6-4,1.2-4.8,5.2-4.4,8.8C309.6,248.8,298.8,290.4,284,315.6Z" transform="translate(-17.57 -62)" style="fill: #3b97d3"/>
      </g>
    </g>
  </g>
</svg>
