<svg id="889a92bc-78d2-4397-8d68-9b4b76442b51" data-name="Layer 1" xmlns="http://www.w3.org/2000/svg" xmlns:xlink="http://www.w3.org/1999/xlink" width="448.26" height="447.32" viewBox="0 0 448.26 447.32">
  <defs>
    <style>
      .\37 fb4fdee-b44d-49c3-8116-f15bb61c58c6 {
        fill: none;
      }

      .\31 616e574-519c-48f0-93ab-5effcb7e378c {
        clip-path: url(#195686e6-c72e-480d-b663-08f31227e339);
      }
    </style>
    <clipPath id="195686e6-c72e-480d-b663-08f31227e339" transform="translate(-32.29 -39.9)">
      <rect class="7fb4fdee-b44d-49c3-8116-f15bb61c58c6" width="512" height="512"/>
    </clipPath>
  </defs>
  <title>growth-mono</title>
  <g class="1616e574-519c-48f0-93ab-5effcb7e378c">
    <path d="M212.21,252.68c30.76,5.58,58-24.68,35.7-38.53a95.08,95.08,0,0,0-50.37-14.39,95.36,95.36,0,0,1,56,4.26,5.33,5.33,0,0,0,7-6.7c-9.59-29.56-44.33-40.59-76.62-14.36-17,13.8-23.37,16.73-23.53,16.8C171.5,211,184.29,248.52,212.21,252.68Z" transform="translate(-32.29 -39.9)"/>
  </g>
  <g class="1616e574-519c-48f0-93ab-5effcb7e378c">
    <path d="M271.39,137.08c1.11-28.65,15.37-50.3,42-62.28a129.32,129.32,0,0,0-23.81,50.64c-6.29,27.86-12.86,46.13-15.27,134.93a15.91,15.91,0,0,0,16.06,16.35,16.16,16.16,0,0,0,14.62-10.24,72.42,72.42,0,0,1,20.12-27.31,42.66,42.66,0,0,0,39.32,13.52c27.8-4.14,40.77-41.79,51.91-52.92-.16-.07-6.55-3-23.53-16.8-55.74-45.28-91.29,26.13-69.19,19a95,95,0,0,1,50.06-2.24,95.9,95.9,0,0,0-74,35.11c1.47-34.18,3.7-55.58,6.28-71.49,14.9-.51,34.75-12.54,45.65-33.59,18.8-33.64,10.08-68.12,7.27-89.89C344.18,54.2,280,37.45,254.6,81c-11.23,19.25-8,42.68,3.85,59.82C262.19,146.28,271.13,143.67,271.39,137.08Z" transform="translate(-32.29 -39.9)"/>
  </g>
  <g class="1616e574-519c-48f0-93ab-5effcb7e378c">
    <path d="M474.7,293.59c-17.43-11.82-36.39-3.4-45.1,1.63l-109.3,80h-64l-16-16h58.78c17.68,0,37.47-11.51,37.47-32,0-21.76-19.8-32-37.47-32H277c-16.36,0-35.48,1.46-49-5.76a95.29,95.29,0,0,0-43.3-10.23c-26.44,0-50.1,10.54-66.32,27.16L32.29,391.22l96,96,32-48H311.51a65.88,65.88,0,0,0,43.75-16.63L475.79,315.52C482.5,309.57,482.12,298.62,474.7,293.59Z" transform="translate(-32.29 -39.9)"/>
  </g>
</svg>
