<svg xmlns="http://www.w3.org/2000/svg" width="36.63" height="29.5" viewBox="0 0 36.63 29.5">
  <title>icon-voice</title>
  <g id="7be0cefb-e5ae-460d-9848-450b0195db6f" data-name="Layer 2">
    <g id="8ead1a95-62a5-4a90-9308-3faf65e3fe57" data-name="Layer 1">
      <path d="M33.85,2.82A60.23,60.23,0,0,0,23.54,1.64,68.3,68.3,0,0,0,12.13,3l.22,18.31a1.17,1.17,0,0,1-.38.95c-.33.31-1.17.23-1.17.23L10.63,3A3.12,3.12,0,0,0,7.15,0C3.39,0,3.52,3,3.52,3l.1,19.54a1.17,1.17,0,0,1-.73-.25,1.05,1.05,0,0,1-.23-.61L2.48,3H2C.51,3,0,4.37,0,6L.1,23.45a2.86,2.86,0,0,0,2.68,3l3.63,0V24.55s0-.53.18-.69a.48.48,0,0,1,.47-.13v2.68h0v.29A1.84,1.84,0,0,1,5,28.54l-4.84,0v.91l4.87,0s3,.17,3-2.66v-.4L34,26.26a2.85,2.85,0,0,0,2.64-3l-.1-17.41c0-1.66-1-2.6-2.68-3M15,4.73a.73.73,0,0,1,.6-.35,54.81,54.81,0,0,1,8.9-1,45.26,45.26,0,0,1,7.87,1c.51.09.59.15.72.31s.09.59.09.59l0,4.88-18.26.11,0-5.1A.94.94,0,0,1,15,4.73M16.5,22.45a1.27,1.27,0,1,1,1.26-1.27,1.27,1.27,0,0,1-1.26,1.27m0-4a1.27,1.27,0,1,1,1.26-1.28,1.27,1.27,0,0,1-1.26,1.28m0-3.71a1.27,1.27,0,1,1,1.26-1.27,1.27,1.27,0,0,1-1.26,1.27m4.3,7.65A1.27,1.27,0,1,1,22,21.15a1.27,1.27,0,0,1-1.26,1.27m0-4A1.27,1.27,0,1,1,22,17.18a1.27,1.27,0,0,1-1.26,1.27m0-3.71A1.27,1.27,0,1,1,22,13.47a1.27,1.27,0,0,1-1.26,1.27M25,22.4a1.27,1.27,0,1,1,1.26-1.27A1.27,1.27,0,0,1,25,22.4m0-4a1.27,1.27,0,1,1,1.26-1.27A1.27,1.27,0,0,1,25,18.43m0-3.71a1.27,1.27,0,1,1,1.26-1.27A1.27,1.27,0,0,1,25,14.72M31.59,22H29.28a.88.88,0,0,1,0-1.76h2.32a.88.88,0,0,1,0,1.76m-.07-4H29.3a.85.85,0,0,1,0-1.69h2.23a.85.85,0,1,1,0,1.69m0-3.72H29.23a.89.89,0,0,1,0-1.77h2.32a.88.88,0,0,1,0,1.77"/>
    </g>
  </g>
</svg>
