<svg xmlns="http://www.w3.org/2000/svg" width="17.04" height="29.9" viewBox="0 0 17.04 29.9">
  <title>icon-mobile</title>
  <g id="a93a0815-8aa8-4444-9fb2-7f1b4f05ac2a" data-name="Layer 2">
    <g id="c4cb4d4f-8494-4970-8e83-29b90fe346be" data-name="Layer 1">
      <path d="M14.71,0,2.16.07A2.17,2.17,0,0,0,0,2.26L.15,27.75A2.17,2.17,0,0,0,2.33,29.9l12.55-.07A2.17,2.17,0,0,0,17,27.65L16.89,2.16A2.17,2.17,0,0,0,14.71,0M8.6,27.72A1.39,1.39,0,1,1,10,26.33,1.39,1.39,0,0,1,8.6,27.72M11.47,27a.66.66,0,1,1,.65-.66.66.66,0,0,1-.65.66m-5.7,0a.66.66,0,1,1,.65-.66.66.66,0,0,1-.65.66m9.61-4.08L1.75,23,1.64,3.75l13.64-.08Z"/>
    </g>
  </g>
</svg>
