<svg xmlns="http://www.w3.org/2000/svg" width="38.79" height="28.66" viewBox="0 0 38.79 28.66">
  <title>icon-internet</title>
  <g id="f13266da-9ed5-4aee-ae55-555ce3557993" data-name="Layer 2">
    <g id="7f0ed8e5-4513-497e-ad84-aad209f42eb5" data-name="Layer 1">
      <g>
        <path d="M0,26c0,2.71,1.73,2.7,1.73,2.7L37,28.45s1.77,0,1.76-2.72S37,23,37,23l-35.3.21S0,23.24,0,26m15-.88,7,0s.88,0,.88.79-.87.81-.87.81l-7.05,0s-.89,0-.89-.8.88-.8.88-.8" />
        <path d="M37,21.14l-.1-17.63C36.87,0,33.34,0,33.34,0L5.13.17a3.45,3.45,0,0,0-3.5,3.55l.1,17.63H3.66L3.4,3.7c0-1.6,1.89-1.77,1.89-1.77l27.89-.16s1.94.14,1.95,1.75l.1,17.64Z" />
      </g>
    </g>
  </g>
</svg>
