<svg xmlns="http://www.w3.org/2000/svg" width="42.81" height="27.16" viewBox="0 0 42.81 27.16">
  <title>icon-cloud</title>
  <g id="6f449b0e-5be2-4f3a-b600-db153759b46f" data-name="Layer 2">
    <g id="b59cefbb-f9f6-41b3-a869-70953046a784" data-name="Layer 1">
      <path d="M20.9,10.29s1.41-7.45,11.42-6.84c9.15.56,10.31,7.61,10.48,10.07s-.84,8.42-5.6,10.15a25.81,25.81,0,0,1-9.51,1.38,12.6,12.6,0,0,1-7.58,2.05c-4-.42-7.31-3.83-7.31-3.83S5,24.81,1.23,18.07,3.51,7.23,3.51,7.23A9.7,9.7,0,0,1,10.46,6S8.21,8.43,7.83,14.31c0,0,1.23-9.82,9.51-13.38A10.28,10.28,0,0,1,28.78,3s-7.1.41-7.88,7.34"/>
    </g>
  </g>
</svg>
