<svg xmlns="http://www.w3.org/2000/svg" width="234.48" height="240.64" viewBox="0 0 234.48 240.64">
  <title>more-arrow</title>
  <g id="b484d687-bf30-4986-bd35-d4b6cf04a42f" data-name="Layer 2">
    <g id="c43b4b7a-825a-445f-a9b3-f0aeed0db8c9" data-name="Layer 1">
      <path d="M0,130.47a15.35,15.35,0,0,0,15.37,15.37H142.73l-54,54a15.47,15.47,0,0,0,0,21.78l14.5,14.49a15.45,15.45,0,0,0,21.78,0l105-105a15.29,15.29,0,0,0,0-21.69L125,4.49a15.45,15.45,0,0,0-21.78,0L88.7,19a15.47,15.47,0,0,0,0,21.78l54,53.86H15.45A15.4,15.4,0,0,0,.08,110Z" />
    </g>
  </g>
</svg>
