<svg xmlns="http://www.w3.org/2000/svg" xmlns:xlink="http://www.w3.org/1999/xlink" width="468.46" height="455.6" viewBox="0 0 468.46 455.6">
  <defs>
    <clipPath id="93044b7f-5f5e-47da-9cbf-06bada4230ce" transform="translate(-20.19 -28.4)">
      <rect width="512" height="512" style="fill: none"/>
    </clipPath>
  </defs>
  <title>relocating</title>
  <g id="b7130fea-fed4-4714-aba2-34beea4c11bd" data-name="Layer 2">
    <g id="7a675512-65c1-4cf0-95db-74677b11d59f" data-name="Layer 1">
      <g style="clip-path: url(#93044b7f-5f5e-47da-9cbf-06bada4230ce)">
        <path d="M286.8,376.8,248,336V282.4a8,8,0,0,0-16,0v37.2l-70.8-72.4h-.8l-.4-.4c-.4,0-.4-.4-.8-.4s-.4-.4-.8-.4-.4-.4-.8-.4-.4,0-.8-.4h-4c-.4,0-.4,0-.8.4-.4,0-.4,0-.8.4-.4,0-.4.4-.8.4s-.4.4-.8.4-.4.4-.8.4l-.4.4L22.4,382.4a7.73,7.73,0,0,0,.4,11.2A7.74,7.74,0,0,0,28,396a8.82,8.82,0,0,0,6-2.4L155.2,264.8,274.8,388a7.9,7.9,0,0,0,5.6,2.4,8.82,8.82,0,0,0,6-2.4A8.11,8.11,0,0,0,286.8,376.8Z" transform="translate(-20.19 -28.4)" style="fill: #3b97d3"/>
      </g>
      <g style="clip-path: url(#93044b7f-5f5e-47da-9cbf-06bada4230ce)">
        <path d="M232,354v98.8c0,8.8-8.8,14.8-17.6,14.8H192V402c0-8.8-8.8-18.4-17.6-18.4H134.8c-8.8,0-14.8,9.6-14.8,18.4v66H94.4c-8.8,0-14.4-6-14.4-14.8v-96L64,374.4v78.8C64,470.8,76.8,484,94.4,484H136V400h40v84h38.4c17.6,0,33.6-13.2,33.6-30.8V370.8Z" transform="translate(-20.19 -28.4)" style="fill: #3b97d3"/>
      </g>
      <g style="clip-path: url(#93044b7f-5f5e-47da-9cbf-06bada4230ce)">
        <path d="M486.4,159.6,448,119.2v-54a8,8,0,0,0-16,0v37.2l-70.8-72h-.8L360,30c-.4,0-.4-.4-.8-.4s-.4-.4-.8-.4-.4-.4-.8-.4-.4,0-.8-.4h-4c-.4,0-.4,0-.8.4-.4,0-.4,0-.8.4-.4,0-.4.4-.8.4s-.4.4-.8.4-.4.4-.8.4l-.4.4L222,165.6a7.73,7.73,0,0,0,.4,11.2,7.49,7.49,0,0,0,5.6,2,8.82,8.82,0,0,0,6-2.4L355.2,47.6,474.8,170.8a7.9,7.9,0,0,0,5.6,2.4,8.82,8.82,0,0,0,6-2.4A8.09,8.09,0,0,0,486.4,159.6Z" transform="translate(-20.19 -28.4)" style="fill: #3b97d3"/>
      </g>
      <g style="clip-path: url(#93044b7f-5f5e-47da-9cbf-06bada4230ce)">
        <path d="M432,137.2V236c0,8.8-9.2,16-18,16H392V185.6c0-8.8-9.2-17.6-18-17.6H334.4c-8.8,0-14.4,8.8-14.4,17.6V252H294c-8.8,0-14-7.2-14-16V140.4l-16,17.2V236c0,17.6,12.4,32,30,32h42V184h40v84h38c17.6,0,34-14.4,34-32V153.6Z" transform="translate(-20.19 -28.4)" style="fill: #3b97d3"/>
      </g>
      <g style="clip-path: url(#93044b7f-5f5e-47da-9cbf-06bada4230ce)">
        <path d="M208.4,98.8,65.6,250c2.8-.4,5.2-.4,8-.8,9.6-71.6,62.8-129.2,132-144.8L196,123.2a3.53,3.53,0,0,0,1.6,5.2c2,.8,4.4.4,5.2-1.6l14.4-28a4.25,4.25,0,0,0-.8-4.8,1.4,1.4,0,0,0-.8-.4L186.8,78.8a7.8,7.8,0,0,0-3.2-.4c-.8.4-2,.8-2.4,2a3.53,3.53,0,0,0,1.6,5.2l20.8,10.8C130.8,112.8,74.8,174,65.6,250Z" transform="translate(-20.19 -28.4)" style="fill: #2c3e50"/>
      </g>
    </g>
  </g>
</svg>
