<svg id="44bf7201-c470-46f5-ba0f-e5b217b3a4c6" data-name="Layer 1" xmlns="http://www.w3.org/2000/svg" width="907.89" height="1000" viewBox="0 0 907.89 1000">
  <title>startup</title>
  <g>
    <path d="M953.94,719.21c-1,1.3-2.61,2.53-2.76,3.92-1.7,15.77-4.47,31.33-11.07,45.82-6.8,14.91-13.43,30-24.94,42.21-6.73,7.14-12.75,15-20,21.6a157.58,157.58,0,0,1-49.39,30.79c-14.79,5.72-29.94,10-45.71,11.48-22.08,2.14-44,1-65.45-5s-41.29-15.19-58.54-29.27c-9.34-7.62-18.49-15.75-26.34-24.85-7.12-8.26-12.38-18.13-18.43-27.31-8.43-12.79-13.46-27.07-17.06-41.76A175.72,175.72,0,0,1,611.34,676a169.86,169.86,0,0,1,24.9-64.75c5.09-7.94,12.17-14.58,17.62-22.32,6.6-9.37,15.87-15.71,24.6-22.52,13-10.17,27.7-17.56,43.35-23.31a174.85,174.85,0,0,1,41.4-9.48c15.16-1.66,30.49-1.83,45.57,1.82,6.9,1.67,14,2.5,20.8,4.55A192.35,192.35,0,0,1,855,549.31c13.6,6.34,26.4,14.18,37.37,24.58s21.82,20.69,30.24,33.54c8.54,13,16.16,26.45,20.62,41.24,3.69,12.24,5.26,25.12,7.94,37.68.35,1.65,1.79,3.08,2.73,4.61ZM690.31,677.29c-16.8-.06-29,16.69-22.5,30.07a58,58,0,0,0,4.89,8.73Q688,737.14,703.58,758q13.27,17.8,26.79,35.41c5.43,7.06,10.63,14.42,16.86,20.73,6.78,6.86,19.69,7.65,27.57-.45,4.16-4.27,7.46-9.44,10.77-14.45,7.84-11.87,15.09-24.14,23.26-35.77,7.12-10.12,15-19.75,22.86-29.29,10.11-12.22,20.29-24.39,31-36.1,8.69-9.53,18.36-18.16,27.19-27.57,3.11-3.31,6.09-7.44,7.27-11.71,2.21-8-3.19-18.5-10.36-22.56-9.8-5.54-18.87-5-26.87,2.55-20.31,19.11-40,38.86-57.57,60.57-7.33,9-14.85,18-21.87,27.23-6.65,8.79-12.84,17.92-19,27-2.07,3-3.54,2.69-5.42,0-2.8-3.95-5.66-7.85-8.54-11.74-6.29-8.48-12.65-16.89-18.89-25.4-6.7-9.14-13.18-18.44-20-27.5C703.61,682.38,697.51,677.37,690.31,677.29Z" transform="translate(-46.06)"/>
    <path d="M123.43,1000c-1.44-1.14-2.77-3.07-4.34-3.3C97,993.45,80,981.9,66.23,965c-11.63-14.27-18.78-30.48-19-49-.59-45.85-1.05-91.7-1.08-137.55q-.18-274.83,0-549.67c0-23.23,5.06-45,20.77-62.91,6.2-7.05,13.78-13.1,21.41-18.67,16.21-11.83,35-15,54.64-14.82,26.43.2,52.87,0,79.3,0,5.79,0,6.15.38,6.15,6.2q0,14.81,0,29.63c0,5.66-.86,6.5-6.67,6.5q-42.62,0-85.23,0c-23,0-43.29,18-47,40.29a148,148,0,0,0-1.91,24.29q-.15,332.95.07,665.89c0,29.37,21.79,52.13,52.21,52.14q297.62.1,595.24,0a89.07,89.07,0,0,0,16.7-1.51c12.86-2.47,22.49-10,29.83-20.59,2.28-3.28,3.57-7.24,5.84-10.53a9.2,9.2,0,0,1,5.32-3.75c11.64-1.87,23.36-3.24,35-5,3.78-.56,4.86.13,4.15,3.91-2.83,15-7.52,29.06-16.76,41.75C807,972.72,797,981,785.17,987.8c-7.91,4.53-16.28,7-25,9-1.8.4-3.31,2.1-5,3.2Z" transform="translate(-46.06)"/>
    <path d="M439.37,194.73H293.55c-11.84,0-19.42-7.43-19.44-19.32-.06-33,.24-65.93-.18-98.88-.13-10.27,9.86-19.26,20-19.21,21,.11,41.92.09,62.89.1,5.92,0,7-1.12,9.56-7.69,5.87-15.36,15.16-27.76,29.3-36.91C411.12,2.82,427.89-.93,445.77.19c16.5,1,31.43,6.64,44.24,17.71a80.24,80.24,0,0,1,23.52,34.34c1.29,3.61,3.23,5.31,7.32,5.27,21.42-.19,42.83-.07,64.25-.14,12.66,0,19.91,8.82,20.11,19.7.61,32.34.16,64.7.22,97.06a21.11,21.11,0,0,1-21.16,20.76C536,194.5,487.68,194.73,439.37,194.73Zm.16-80.68c19.39.16,35.91-16.19,36-35.88.06-20.15-17.26-37-37-36.47A36.55,36.55,0,0,0,403,78C402.75,96.29,418.43,114.84,439.53,114.05Z" transform="translate(-46.06)"/>
    <path d="M832.39,351.83q0,67.45,0,134.91c0,6.25-1.41,7-7.37,5.7-6.93-1.56-14-2.45-21.05-3.57-2.54-.4-5.13-.52-7.66-1-6.3-1.14-6.25-1.18-6.25-7.8q0-130.35-.07-260.7c0-13-6.82-23.47-16.22-32-9.18-8.29-20-12.85-32.69-12.79-28.71.13-57.42.08-86.14.22-2.58,0-3.75-.9-3.76-3.31,0-12.15-.12-24.31.08-36.46,0-1,2-2.72,3.1-2.72,30.84-.1,61.7-.65,92.51.24,19.87.58,37.37,8.35,53,21.19,19.19,15.75,28.69,36.13,32.38,59.94a23.92,23.92,0,0,1,.12,3.64Q832.39,284.6,832.39,351.83Z" transform="translate(-46.06)"/>
    <path d="M439.43,317q107.08,0,214.16.11a29.7,29.7,0,0,1,11.13,2.54c4.83,2,5.53,6.67,4.68,11.22-.89,4.77-4.28,7.6-9,8.6a30.49,30.49,0,0,1-6.34.43q-215.3,0-430.6.07c-7.71,0-15.24-4.74-14.39-12,.66-5.67,4.1-10.12,9.8-10.79a47,47,0,0,1,5.46-.15Z" transform="translate(-46.06)"/>
    <path d="M439.28,466.47H658c3.78,0,7.51-.33,9.82,4,2.71,5,2.4,9.91-1.09,13.9-1.69,1.93-5.28,3-8,3-11.84.32-23.69.13-35.54.13H221.68c-8.63,0-12.79-3.74-12.54-11.22.21-6.16,4.1-9.86,10.49-9.86l111.65,0Z" transform="translate(-46.06)"/>
    <path d="M400.12,614H567.33c3.95,0,7.9,0,11.84-.22,3.39-.17,4.12,1.54,3.05,4.24a168.42,168.42,0,0,1-7,16.21c-.65,1.24-3.57,1.79-5.44,1.8-27.34.11-54.67.06-82,.06l-267.45,0c-7,0-10.86-3.7-11.06-10.47-.21-7.06,3.41-11.39,10.46-11.61,9.41-.3,18.83-.15,28.24-.15H400.12Z" transform="translate(-46.06)"/>
    <path d="M397.29,785c-58.31,0-116.62-.12-174.94.17-6.81,0-13.77-5.79-13.32-11.75.47-6.16,4.26-10.6,10.59-10.74,8.35-.18,16.7-.08,25.05-.08H562.21c10.52,0,10.47,0,13.16,10.32a48.07,48.07,0,0,0,2.66,7.18c1.49,3.39.78,4.71-3.07,4.87-2.88.12-5.77,0-8.65,0Z" transform="translate(-46.06)"/>
  </g>
</svg>
