<svg xmlns="http://www.w3.org/2000/svg" xmlns:xlink="http://www.w3.org/1999/xlink" width="433.6" height="440.4" viewBox="0 0 433.6 440.4">
  <defs>
    <clipPath id="2cb1e838-56a1-486a-b9eb-1cf69fdc574c" transform="translate(-43.6 -34.8)">
      <rect width="512" height="512" style="fill: none"/>
    </clipPath>
  </defs>
  <title>startup</title>
  <g id="3c3ba611-3b3c-4e14-bb2d-f86febb22279" data-name="Layer 2">
    <g id="1194bb2e-d88b-4586-b9ac-67ea8f2e5e1b" data-name="Layer 1">
      <g style="clip-path: url(#2cb1e838-56a1-486a-b9eb-1cf69fdc574c)">
        <path d="M477.2,34.8s-156,23.6-234.4,114.8c-27.2-8-45.6-10.4-57.6-10.4-16.4,0-21.2,4.4-21.2,4.4s-53.2,56-57.2,90.8c2.4,0,4.8-.4,6.8-.4,34.8,0,57.2,18,57.2,18s-12,30.8-12,47.2V306c13.2,1.6,27.2,8.4,35.6,18a56.07,56.07,0,0,1,13.2,28.8h4.8c16.4,0,47.2-12,47.2-12s20.4,25.6,18,64c34.8-4,90.8-57.2,90.8-57.2s13.2-13.2-6-78.8C453.6,190.8,477.2,34.8,477.2,34.8ZM456.8,55.2C446.4,100,417.6,200.8,352,257.2l-8,6.8,2.8,10c12.8,44,9.6,60.4,8.4,64-15.6,14.8-42,35.6-62.4,45.6-4-31.6-19.6-51.6-20.8-52.4l-7.2-9.2L254,326.4c-9.2,3.6-23.6,8.4-34,10.4A80.91,80.91,0,0,0,206.8,314a75,75,0,0,0-31.2-20c1.6-10.8,6.8-26.4,10.4-35.6l4.4-10.8-9.2-7.2c-.8-.8-21.2-16.4-52.4-20.8,10-20.8,30.8-46.8,45.6-62.4a42.12,42.12,0,0,1,11.2-1.2c9.2,0,25.6,1.6,53.2,9.6L248,168l6.8-8C311.2,94.4,412,65.2,456.8,55.2" transform="translate(-43.6 -34.8)" style="fill: #2c3e50"/>
      </g>
      <g style="clip-path: url(#2cb1e838-56a1-486a-b9eb-1cf69fdc574c)">
        <path d="M153.6,314c-7.2,0-13.6,2-18,6.8-6.4,7.6-13.6,18.8-14.8,30.4,2.4-2.8,4.8-4,7.2-4,6.4,0,9.6,9.2,0,10.4-13.2,1.6-17.2,14.4-15.2,26,3.6-4.8,11.6-11.6,17.2-11.6a5.78,5.78,0,0,1,2.8.8c-17.6,11.2-20.4,24-18.8,36.8,5.6-9.2,18-15.6,29.6-15.6a16.41,16.41,0,0,1,4.4.4c-.4-6.8,4.8-10,8-10s5.2,3.2-.4,10c16.8-.4,28-6,34.4-10.4,16-12.8,11.6-39.6-1.6-54.8C180,320,166,314,153.6,314Zm0,8c10.4,0,22,5.2,28.8,12.8,6.8,8,10.8,19.2,10,28.8-.4,6-2.8,10.8-6.8,14-4,2.8-10,5.6-18,7.6a5.78,5.78,0,0,0-.8-2.8c-1.6-4-5.6-6.4-10.4-6.4a15.55,15.55,0,0,0-11.2,5.2A33.37,33.37,0,0,0,142,386a44.88,44.88,0,0,0-16,4c2.4-3.6,6-6.8,11.6-10.4l11.6-7.2-11.6-6.8a6.45,6.45,0,0,0-3.6-1.2,12.83,12.83,0,0,0,8.8-12.4,13.77,13.77,0,0,0-9.6-12c3.2-6.4,7.2-11.2,9.2-14,2.8-3.6,8.4-4,11.2-4" transform="translate(-43.6 -34.8)" style="fill: #3b97d3"/>
      </g>
      <g style="clip-path: url(#2cb1e838-56a1-486a-b9eb-1cf69fdc574c)">
        <path d="M44.8,474a3.87,3.87,0,0,1,0-5.6l48-48a4,4,0,0,1,5.6,5.6l-48,48C48.8,475.6,46,475.6,44.8,474Z" transform="translate(-43.6 -34.8)" style="fill: #2c3e50"/>
      </g>
      <g style="clip-path: url(#2cb1e838-56a1-486a-b9eb-1cf69fdc574c)">
        <path d="M88.4,470a3.87,3.87,0,0,1,0-5.6l24-24A4,4,0,0,1,118,446L94,470A4.81,4.81,0,0,1,88.4,470Z" transform="translate(-43.6 -34.8)" style="fill: #2c3e50"/>
      </g>
      <g style="clip-path: url(#2cb1e838-56a1-486a-b9eb-1cf69fdc574c)">
        <path d="M48.8,430.4a3.87,3.87,0,0,1,0-5.6l24-24a4,4,0,0,1,5.6,5.6l-24,24A4.81,4.81,0,0,1,48.8,430.4Z" transform="translate(-43.6 -34.8)" style="fill: #2c3e50"/>
      </g>
      <g style="clip-path: url(#2cb1e838-56a1-486a-b9eb-1cf69fdc574c)">
        <path d="M316,161.2a36,36,0,1,0,36,36A35.85,35.85,0,0,0,316,161.2Zm0,8a28,28,0,1,1-28,28,27.83,27.83,0,0,1,28-28" transform="translate(-43.6 -34.8)" style="fill: #3b97d3"/>
      </g>
      <g style="clip-path: url(#2cb1e838-56a1-486a-b9eb-1cf69fdc574c)">
        <path d="M259.6,231.2A22.4,22.4,0,1,0,282,253.6,22.36,22.36,0,0,0,259.6,231.2Zm0,8a14.4,14.4,0,1,1-14.4,14.4,14.34,14.34,0,0,1,14.4-14.4" transform="translate(-43.6 -34.8)" style="fill: #3b97d3"/>
      </g>
      <g style="clip-path: url(#2cb1e838-56a1-486a-b9eb-1cf69fdc574c)">
        <path d="M194,231.2a5.69,5.69,0,0,1-2.4-.8,4.3,4.3,0,0,1-.8-5.6L230,175.6a4,4,0,0,1,6.4,4.8l-39.2,49.2A3.64,3.64,0,0,1,194,231.2Z" transform="translate(-43.6 -34.8)" style="fill: #2c3e50"/>
      </g>
      <g style="clip-path: url(#2cb1e838-56a1-486a-b9eb-1cf69fdc574c)">
        <path d="M283.2,322a4,4,0,0,1-2-1.6,4.3,4.3,0,0,1,.8-5.6l50.8-37.2a4,4,0,0,1,4.8,6.4l-50.8,37.2A5.94,5.94,0,0,1,283.2,322Z" transform="translate(-43.6 -34.8)" style="fill: #2c3e50"/>
      </g>
    </g>
  </g>
</svg>
