<svg id="9350690b-e848-4843-92a5-5fd89d24e2d9" data-name="Layer 1" xmlns="http://www.w3.org/2000/svg" xmlns:xlink="http://www.w3.org/1999/xlink" width="494.4" height="407.2" viewBox="0 0 494.4 407.2">
  <defs>
    <style>
      .a6642867-0dd9-4b28-8ff3-c4fb0e66eb94 {
        fill: none;
      }

      .d296f09e-0e21-45b4-a09b-54a78b1435a5 {
        clip-path: url(#b9c449f7-367c-472f-b216-603f0edb2eb0);
      }

      .\30 635187c-1f26-45a3-a147-d8e2606f6aa3 {
        fill: #2c3e50;
      }
    </style>
    <clipPath id="b9c449f7-367c-472f-b216-603f0edb2eb0" transform="translate(-10.4 -54.4)">
      <rect class="a6642867-0dd9-4b28-8ff3-c4fb0e66eb94" width="512" height="512"/>
    </clipPath>
  </defs>
  <title>stat-icon-clients</title>
  <g class="d296f09e-0e21-45b4-a09b-54a78b1435a5">
    <path class="0635187c-1f26-45a3-a147-d8e2606f6aa3" d="M378.4,318.4a8,8,0,0,1-8-8c0-36-7-51-11.74-52.29-11.61-3.23-47.33-12.35-60.06-15.59l-35.17,37.37a8,8,0,0,1-11.65,0L216.6,242.51c-12.81,3.24-48.52,12.24-60.47,14.9C151,258.54,144,277.58,144,310.4a8,8,0,0,1-16,0c0-8.47.52-24.89,4-39.73,4-17,10.95-26.72,20.65-28.88,14.12-3.14,64.06-15.82,64.57-15.94a8,8,0,0,1,7.79,2.27l32.57,34.61,32.58-34.61a8,8,0,0,1,7.79-2.27c2.06.52,50.65,12.87,65,16.85,15.57,4.32,23.46,27.1,23.46,67.71A8,8,0,0,1,378.4,318.4Z" transform="translate(-10.4 -54.4)"/>
  </g>
  <g class="d296f09e-0e21-45b4-a09b-54a78b1435a5">
    <path class="0635187c-1f26-45a3-a147-d8e2606f6aa3" d="M259.2,211.2c-18.5,0-30.43-11.4-40.58-23.71l-.22-.29c-11.18-14.91-25-53.51-20.72-84.3,2.43-19,10.76-32.77,24.76-40.75,9.15-5.21,20.39-7.75,34.36-7.75,24.33,0,52.61,11.13,59,42.37,6.14,29-5.83,71-17.12,88.39q-.15.23-.31.44C285.95,202.2,276,211.2,259.2,211.2Zm-28.1-33.74c10.67,12.93,18.3,17.74,28.1,17.74,9.26,0,15.17-4.26,26.23-19,9.3-14.51,19.86-52,14.74-76.16V100c-1.83-8.9-9.71-29.61-43.36-29.61-26.5,0-40.25,11-43.26,34.61C209.78,132.09,222.92,166.42,231.1,177.46ZM292,180.8h0Z" transform="translate(-10.4 -54.4)"/>
  </g>
  <g class="d296f09e-0e21-45b4-a09b-54a78b1435a5">
    <path class="0635187c-1f26-45a3-a147-d8e2606f6aa3" d="M18.4,267.2a8,8,0,0,1-8-8c0-32.75,6.53-51.21,19.4-54.89C41,201.1,79.69,191.81,81.33,191.42A8,8,0,0,1,89,193.69l24.6,25.89,24.6-25.89a8,8,0,0,1,7.7-2.26c1.61.39,39.48,9.67,50.69,12.88a8,8,0,0,1-4.4,15.38c-8.69-2.48-35-9-45.6-11.61l-27.2,28.63a8,8,0,0,1-11.6,0L80.58,208.06c-10.74,2.6-37.68,9.15-46.38,11.63-2.44.7-7.8,11.62-7.8,39.51A8,8,0,0,1,18.4,267.2Z" transform="translate(-10.4 -54.4)"/>
  </g>
  <g class="d296f09e-0e21-45b4-a09b-54a78b1435a5">
    <path class="0635187c-1f26-45a3-a147-d8e2606f6aa3" d="M115.2,183.2c-15.37,0-24.5-7.62-33.49-19.06-9.12-11.86-20.31-42.93-16.85-68.33C66,85.28,70.52,71.08,85,63c7.5-4.18,16.59-6.21,27.79-6.21,19.28,0,42,9.2,47.8,35,5.36,23.25-4,56.56-13.14,70.22l-.06.09C137.1,177.1,127.78,183.2,115.2,183.2ZM112.8,72.8c-26.25,0-30.86,14.2-32,24.88l0,.21c-3,21.56,7.28,48.2,13.62,56.43,8.55,10.88,13.74,12.88,20.86,12.88,5.73,0,10.9-2.36,19-14.08,7.23-10.89,15-39.87,10.83-57.72v0C140.4,75,120.95,72.8,112.8,72.8Zm28,84.8h0Z" transform="translate(-10.4 -54.4)"/>
  </g>
  <g class="d296f09e-0e21-45b4-a09b-54a78b1435a5">
    <path class="0635187c-1f26-45a3-a147-d8e2606f6aa3" d="M496.8,267.2a8,8,0,0,1-8-8c0-27.89-5.35-38.81-7.8-39.51-8.69-2.48-35-9-45.6-11.61l-27.2,28.63a8,8,0,0,1-11.6,0l-27.22-28.65c-10.74,2.6-37.68,9.15-46.38,11.63a8,8,0,0,1-4.4-15.38c11.24-3.21,49.89-12.49,51.53-12.89a8,8,0,0,1,7.67,2.27l24.6,25.9L427,193.69a8,8,0,0,1,7.7-2.26c1.61.39,39.48,9.67,50.7,12.88,12.87,3.68,19.4,22.15,19.4,54.89A8,8,0,0,1,496.8,267.2Z" transform="translate(-10.4 -54.4)"/>
  </g>
  <g class="d296f09e-0e21-45b4-a09b-54a78b1435a5">
    <path class="0635187c-1f26-45a3-a147-d8e2606f6aa3" d="M403.2,183.2c-15.37,0-24.5-7.62-33.49-19.06-9.12-11.86-20.31-42.93-16.85-68.33C354,85.28,358.52,71.08,373,63c7.5-4.18,16.59-6.21,27.79-6.21,19.28,0,42,9.2,47.8,35,5.36,23.25-4,56.56-13.14,70.21l-.06.09C425.1,177.1,415.78,183.2,403.2,183.2ZM400.8,72.8c-26.25,0-30.86,14.2-32,24.88l0,.21c-3,21.56,7.28,48.2,13.62,56.43,8.55,10.88,13.74,12.88,20.86,12.88,5.73,0,10.9-2.36,19-14.08,7.23-10.89,14.95-39.87,10.83-57.72v0C428.4,75,408.95,72.8,400.8,72.8Zm28,84.8h0Z" transform="translate(-10.4 -54.4)"/>
  </g>
  <g class="d296f09e-0e21-45b4-a09b-54a78b1435a5">
    <path class="0635187c-1f26-45a3-a147-d8e2606f6aa3" d="M294.4,461.6a25.8,25.8,0,0,1-11.58-3.24l-.39-.21-11-6.28a36.49,36.49,0,0,0-29.28,0l-11,6.28-.39.21a25.81,25.81,0,0,1-11.58,3.24,14.76,14.76,0,0,1-11.63-5.45c-3.61-4.4-4.82-10.69-3.41-17.72l2.38-12.71c1.76-8.82-2.39-22.16-8.88-28.75l-9.46-8.67c-6.41-5.83-9-12.85-7-19.24s8.15-10.93,16.88-12.18l.14,0,12.43-1.55c9.55-2.17,21.15-10.61,24.5-17.86a8,8,0,0,1,14.53,6.71c-6.14,13.31-23.12,24.11-36,26.87-.23,0-.45.09-.68.12l-12.72,1.59a10.1,10.1,0,0,0-3.53,1.07,10,10,0,0,0,2.24,2.68l9.62,8.82.25.24c10.3,10.3,16.18,29.28,13.39,43.23l-2.38,12.71a9.34,9.34,0,0,0-.1,4.07,14.93,14.93,0,0,0,3.67-1.41l11-6.29.39-.21a52.27,52.27,0,0,1,44,0l.39.21,11,6.29a14.46,14.46,0,0,0,3.74,1.42,11.72,11.72,0,0,0-.18-4.13l-2.39-12.76a8,8,0,0,1-.12-.9c-1-13.77,5.66-32,15.12-41.43l.25-.24,9.46-8.67a9.36,9.36,0,0,0,2.13-2.94,9.18,9.18,0,0,0-3.25-1l-12.72-1.59-.14,0c-14.15-2-29.81-13.52-36.42-26.74l-.09-.2L260,333l-.1-.23c-.5-1.17-1.54-3.15-2.25-3.15a8,8,0,0,1,0-16c5.2,0,12.35,2.21,16.9,12.72l5.5,11.79c4.28,8.46,15.35,16.66,24.27,18L317,357.66l.14,0c8.36,1.2,14.34,5.45,16.42,11.67s-.2,13.41-6.29,19.51l-.25.24-9.46,8.67c-6.09,6.19-10.87,19.31-10.39,28.44l2.31,12.32c1.7,9.34-.9,14.82-3.37,17.79A14.91,14.91,0,0,1,294.4,461.6Z" transform="translate(-10.4 -54.4)"/>
  </g>
  <g class="d296f09e-0e21-45b4-a09b-54a78b1435a5">
    <path class="0635187c-1f26-45a3-a147-d8e2606f6aa3" d="M446.4,427.2a18.46,18.46,0,0,1-6.58-1.46c-.48-.17-1-.36-1.55-.55a8,8,0,0,1-1.3-.57l-8.8-4.8-.28-.16c-2.34-1.41-5.61-2.06-10.29-2.06s-7.94.65-10.28,2.06l-.28.16-8.8,4.8a8,8,0,0,1-1.3.57c-.56.19-1.07.38-1.55.55a18.46,18.46,0,0,1-6.58,1.46,13.2,13.2,0,0,1-10.07-4.4c-2.09-2.37-4.39-6.76-3.47-14.19,0-.11,0-.22,0-.32l1.6-9.6,0-.25c1.06-5.32-2.07-14.5-6.46-19l-7-6.23-.34-.32c-7.21-7.21-6.64-13.58-5.65-16.73s4.07-8.62,13.88-10.4l.12,0,9.46-1.58c5.53-1.16,13.81-6.72,16.7-12.51A8,8,0,0,1,412,338.78c-4.9,9.8-16.93,18.86-28,21.07l-.25,0-9.34,1.56,6.94,6.17.34.32c8.24,8.24,13.06,22.92,11,33.49l-1.47,8.8,8-4.38c4.9-2.9,10.75-4.25,18.36-4.25S431.06,403,436,405.85l7.77,4.24-2.52-7.55a8,8,0,0,1-.28-1.1c-2.1-11.55,2.91-26.42,11.4-33.85l6.89-6.13-10-1.54-.21,0c-10.25-1.86-23.62-10-28.32-21.51l-3.93-8.65-.14-.34a2.26,2.26,0,0,0-.32-.59,8,8,0,0,1,.55-16c6.24,0,11.93,4.09,14.55,10.43l3.93,8.66.14.34c2,5,9.76,10.65,16.31,11.88L462,345.69l.35.06c7,1.39,11.9,5.28,13.53,10.66,1,3.15,1.52,9.48-5.44,16.44l-.34.32-7.2,6.4c-4.21,3.68-7.17,12.5-6.32,18.5l3,9a8.1,8.1,0,0,1,.33,1.4c.8,5.6-.45,10.64-3.53,14.19A13,13,0,0,1,446.4,427.2Z" transform="translate(-10.4 -54.4)"/>
  </g>
  <g class="d296f09e-0e21-45b4-a09b-54a78b1435a5">
    <path class="0635187c-1f26-45a3-a147-d8e2606f6aa3" d="M132,426.4a18.43,18.43,0,0,1-6.58-1.46c-.48-.17-1-.36-1.55-.55a8.08,8.08,0,0,1-1.3-.57l-8.8-4.8-.29-.16c-2.15-1.29-6-2.06-10.28-2.06-4.67,0-7.94.65-10.28,2.06l-.29.16-8.8,4.8a8.08,8.08,0,0,1-1.3.57c-.56.19-1.08.38-1.55.55a18.43,18.43,0,0,1-6.58,1.46A13.2,13.2,0,0,1,64.33,422c-2.09-2.37-4.4-6.76-3.47-14.19,0-.11,0-.22,0-.32l1.6-9.6,0-.25c1.06-5.32-2.07-14.5-6.47-19l-7-6.23-.34-.32c-7.47-7.47-6.13-14.22-5.21-16.77s4.19-8.56,14.62-9.62l9.19-1.53c5.53-1.16,13.81-6.72,16.7-12.51a8,8,0,0,1,14.31,7.16c-4.9,9.8-16.93,18.86-28,21.07l-.25,0-9.26,1.54,6.06,5.39.34.32c8.24,8.24,13.06,22.92,11,33.49l-1.47,8.8,8-4.38c4.9-2.9,10.74-4.25,18.36-4.25,5.1,0,12.41.74,18.36,4.25l7.69,4.19-2.37-6.51a8,8,0,0,1-.35-1.3c-2.1-11.55,2.91-26.42,11.4-33.85l6.89-6.13-10-1.54-.21,0c-10.25-1.86-23.62-10-28.32-21.51l-3.93-8.65-.15-.34a2.24,2.24,0,0,0-.33-.59,8,8,0,0,1,.55-16c6.24,0,11.93,4.09,14.55,10.44l3.93,8.65.15.34c2,5,9.76,10.65,16.31,11.88l10.28,1.58.35.06c7,1.39,11.9,5.28,13.53,10.66,1,3.15,1.52,9.48-5.44,16.44l-.34.32-7.2,6.4c-4.18,3.66-7.14,12.41-6.34,18.4l2.94,8.08a8,8,0,0,1,.4,1.6c.8,5.6-.45,10.64-3.53,14.19A13,13,0,0,1,132,426.4Z" transform="translate(-10.4 -54.4)"/>
  </g>
</svg>
