<svg xmlns="http://www.w3.org/2000/svg" xmlns:xlink="http://www.w3.org/1999/xlink" width="384" height="414.4" viewBox="0 0 384 414.4">
  <defs>
    <style>
      .\36 44843f0-0c31-4d44-9d8b-9092454ed14e {
        fill: none;
      }

      .cd7597d2-a3bb-4b1a-b731-b22d292218bb {
        clip-path: url(#74aee4e4-8701-4737-a819-08b2be98ad39);
      }

      .c652f6b6-9551-48ba-af3b-a88447931def {
        fill: #2c3e50;
      }
    </style>
    <clipPath id="74aee4e4-8701-4737-a819-08b2be98ad39" transform="translate(-61.6 -49.6)">
      <rect class="644843f0-0c31-4d44-9d8b-9092454ed14e" width="512" height="512"/>
    </clipPath>
  </defs>
  <title>stat-icon-session</title>
  <g id="135cbc7a-81d2-4b6f-a37e-beefa3429e50" data-name="Layer 2">
    <g id="a7e41ee7-09b6-4e96-86e0-7c82f7735df5" data-name="Layer 1">
      <g class="cd7597d2-a3bb-4b1a-b731-b22d292218bb">
        <path class="c652f6b6-9551-48ba-af3b-a88447931def" d="M291.21,364.8a8,8,0,0,1-7.79-9.83c3.3-14,11.5-34.85,31.79-54.29,17.41-17.44,27-39.62,27-62.48s-9.65-45.62-27.17-63.86c-17-17.76-40-27.94-63-27.94-23.45,0-45.54,9.68-63.89,28-36.23,37.76-36.28,90.86-.12,126.29,22.45,22.45,29.71,45.44,31.79,54.28a8,8,0,1,1-15.57,3.66c-1.77-7.51-8-27.09-27.47-46.57C156.29,292,145,265.88,145,238.5s11.23-54,31.63-75.24l.11-.11c21.42-21.42,47.44-32.74,75.26-32.74,27.38,0,54.56,12,74.58,32.86,42.21,43.93,42.16,106.51-.12,148.79l-.13.12c-17.5,16.74-24.53,34.5-27.34,46.45A8,8,0,0,1,291.21,364.8Z" transform="translate(-61.6 -49.6)"/>
      </g>
      <g class="cd7597d2-a3bb-4b1a-b731-b22d292218bb">
        <path class="c652f6b6-9551-48ba-af3b-a88447931def" d="M296,392H208a8,8,0,0,1,0-16h88a8,8,0,0,1,0,16Z" transform="translate(-61.6 -49.6)"/>
      </g>
      <g class="cd7597d2-a3bb-4b1a-b731-b22d292218bb">
        <path class="c652f6b6-9551-48ba-af3b-a88447931def" d="M296,416H208a8,8,0,0,1,0-16h88a8,8,0,0,1,0,16Z" transform="translate(-61.6 -49.6)"/>
      </g>
      <g class="cd7597d2-a3bb-4b1a-b731-b22d292218bb">
        <path class="c652f6b6-9551-48ba-af3b-a88447931def" d="M288,440H216a8,8,0,0,1,0-16h72a8,8,0,0,1,0,16Z" transform="translate(-61.6 -49.6)"/>
      </g>
      <g class="cd7597d2-a3bb-4b1a-b731-b22d292218bb">
        <path class="c652f6b6-9551-48ba-af3b-a88447931def" d="M264,464H240a8,8,0,0,1,0-16h24a8,8,0,0,1,0,16Z" transform="translate(-61.6 -49.6)"/>
      </g>
      <g class="cd7597d2-a3bb-4b1a-b731-b22d292218bb">
        <path class="c652f6b6-9551-48ba-af3b-a88447931def" d="M252,340.8a8,8,0,0,1-8-8V297.6a8,8,0,1,1,16,0v35.2A8,8,0,0,1,252,340.8Z" transform="translate(-61.6 -49.6)"/>
      </g>
      <g class="cd7597d2-a3bb-4b1a-b731-b22d292218bb">
        <path class="c652f6b6-9551-48ba-af3b-a88447931def" d="M252,307.2a8,8,0,0,1-5.59-2.28l-36-35.2a8,8,0,1,1,11.19-11.44l30.34,29.67,29.61-29.61a8,8,0,0,1,11.31,11.31l-35.2,35.2A8,8,0,0,1,252,307.2Z" transform="translate(-61.6 -49.6)"/>
      </g>
      <g class="cd7597d2-a3bb-4b1a-b731-b22d292218bb">
        <path class="c652f6b6-9551-48ba-af3b-a88447931def" d="M252,121.6a8,8,0,0,1-8-8v-56a8,8,0,0,1,16,0v56A8,8,0,0,1,252,121.6Z" transform="translate(-61.6 -49.6)"/>
      </g>
      <g class="cd7597d2-a3bb-4b1a-b731-b22d292218bb">
        <path class="c652f6b6-9551-48ba-af3b-a88447931def" d="M437.6,256H380a8,8,0,0,1,0-16h57.6a8,8,0,0,1,0,16Z" transform="translate(-61.6 -49.6)"/>
      </g>
      <g class="cd7597d2-a3bb-4b1a-b731-b22d292218bb">
        <path class="c652f6b6-9551-48ba-af3b-a88447931def" d="M126.4,256H69.6a8,8,0,0,1,0-16h56.8a8,8,0,1,1,0,16Z" transform="translate(-61.6 -49.6)"/>
      </g>
      <g class="cd7597d2-a3bb-4b1a-b731-b22d292218bb">
        <path class="c652f6b6-9551-48ba-af3b-a88447931def" d="M348,164a8,8,0,0,1-5.66-13.66l40-40a8,8,0,1,1,11.31,11.31l-40,40A8,8,0,0,1,348,164Z" transform="translate(-61.6 -49.6)"/>
      </g>
      <g class="cd7597d2-a3bb-4b1a-b731-b22d292218bb">
        <path class="c652f6b6-9551-48ba-af3b-a88447931def" d="M159.2,164a8,8,0,0,1-5.6-2.29l-40.8-40A8,8,0,1,1,124,110.29l40.8,40A8,8,0,0,1,159.2,164Z" transform="translate(-61.6 -49.6)"/>
      </g>
    </g>
  </g>
</svg>
