<?xml version="1.0" encoding="utf-8"?>
<!-- Generator: Adobe Illustrator 21.0.1, SVG Export Plug-In . SVG Version: 6.00 Build 0)  -->
<svg version="1.1" id="Layer_1" xmlns="http://www.w3.org/2000/svg" xmlns:xlink="http://www.w3.org/1999/xlink" x="0px" y="0px"
	 viewBox="0 0 500 500" style="enable-background:new 0 0 500 500;" xml:space="preserve">
<g>
	<g>
		<path d="M307.4,375.9c-7.1,0-14.3-2.1-20.5-6.2l-26.4-17.6c-6.9-4.6-15.4-4.6-22.3,0l-26.4,17.6c-10,6.7-22.6,7.9-33.8,3.4
			c-11.2-4.6-19.3-14.3-21.7-26l-6.4-32c-1.8-8.1-8.1-14.4-16.2-16.2l-31.9-6.4c-12-2.4-21.6-10.2-26.2-21.3
			C71,260,72.3,247.2,79.1,237l17.6-26.4c4.6-6.9,4.6-15.4,0-22.3l-17.6-26.4c-6.7-10-7.9-22.6-3.4-33.8c4.6-11.2,14.3-19.3,26-21.7
			c0,0,0,0,0.1,0l31.9-6.4c8.1-1.8,14.4-8.1,16.2-16.2l6.4-31.9c2.4-12,10.2-21.6,21.3-26.2c11.1-4.6,23.9-3.3,34.2,3.5l26.4,17.6
			c6.9,4.6,15.4,4.6,22.3,0L287,29.1c10-6.7,22.6-7.9,33.8-3.4c11.2,4.6,19.3,14.3,21.7,26l6.4,32c1.8,8.1,8.1,14.4,16.2,16.2
			l31.9,6.4c12,2.4,21.6,10.2,26.2,21.3c4.6,11.1,3.3,23.9-3.5,34.2l-17.6,26.4c-4.6,6.9-4.6,15.4,0,22.3l17.6,26.4
			c6.7,10,7.9,22.6,3.4,33.8c-4.6,11.2-14.3,19.3-26,21.7l-32,6.4c-8.1,1.8-14.4,8.1-16.2,16.2l-6.4,31.9
			c-2.4,12-10.2,21.6-21.3,26.2C316.7,375,312.1,375.9,307.4,375.9z M249.4,332.6c6.9,0,13.9,2.1,20,6.2l26.4,17.6
			c5.9,3.9,12.9,4.7,19.2,2.1c6.1-2.5,10.4-7.8,11.8-14.6l6.4-32c0,0,0-0.1,0-0.1c3.1-14.3,14.3-25.5,28.5-28.5c0,0,0.1,0,0.1,0
			l32-6.4c6.5-1.3,11.9-5.9,14.4-12.1c2.6-6.3,1.9-13.1-1.9-18.8l-17.6-26.4c-8.2-12.4-8.2-27.7,0-40.1l17.6-26.4
			c3.9-5.9,4.7-12.9,2.1-19.2c-2.5-6.1-7.8-10.4-14.6-11.8l-32-6.4c0,0-0.1,0-0.1,0c-14.3-3.1-25.5-14.3-28.5-28.5c0,0,0-0.1,0-0.1
			l-6.4-32c-1.3-6.5-5.9-11.9-12.1-14.4c-6.3-2.6-13.1-1.9-18.8,1.9l-26.4,17.6c-12.4,8.2-27.7,8.2-40.1,0L203,42.5
			c-5.9-3.9-12.9-4.7-19.2-2.1c-6.1,2.5-10.4,7.8-11.8,14.6l-6.4,32c0,0,0,0.1,0,0.1c-3.1,14.3-14.3,25.5-28.5,28.5c0,0-0.1,0-0.1,0
			l-32,6.4c-6.5,1.4-11.9,5.9-14.4,12.1c-2.6,6.3-1.9,13.1,1.9,18.8l17.6,26.4c8.2,12.4,8.2,27.7,0,40.1l-17.6,26.4
			c-3.9,5.9-4.7,12.9-2.1,19.2c2.5,6.1,7.8,10.4,14.6,11.8l32,6.4c0,0,0.1,0,0.1,0c14.3,3.1,25.5,14.3,28.5,28.5c0,0,0,0.1,0,0.1
			l6.4,32c1.3,6.5,5.9,11.9,12.1,14.4c6.3,2.6,13.1,1.9,18.8-1.9l26.4-17.6C235.5,334.6,242.5,332.6,249.4,332.6z"/>
	</g>
	<g>
		<path d="M173,478.2c-1.2,0-2.4-0.3-3.6-0.8c-2.7-1.4-4.4-4.1-4.4-7.2v-82.4c0-4.4,3.6-8,8-8s8,3.6,8,8v66.4l63.2-47.2
			c2.8-2.1,6.6-2.1,9.5-0.1l65.7,47.6v-66.7c0-4.4,3.6-8,8-8s8,3.6,8,8v82.4c0,3-1.7,5.8-4.4,7.1c-2.7,1.4-5.9,1.1-8.3-0.6
			l-73.6-53.3l-71.3,53.3C176.4,477.7,174.7,478.2,173,478.2z"/>
	</g>
	<g>
		<path d="M250.6,395.8c-4.4,0-8-3.6-8-8v-20c0-4.4,3.6-8,8-8c4.4,0,8,3.6,8,8v20C258.6,392.2,255,395.8,250.6,395.8z"/>
	</g>
	<g>
		<path d="M243.4,261.4C243.4,261.4,243.4,261.4,243.4,261.4c-2.2,0-4.2-0.9-5.7-2.4l-61.6-63.2c-3.1-3.2-3-8.2,0.1-11.3
			c3.2-3.1,8.2-3,11.3,0.1l55.9,57.3l94.3-96.5c3.1-3.2,8.2-3.2,11.3-0.1c3.2,3.1,3.2,8.2,0.1,11.3L249.1,259
			C247.6,260.5,245.6,261.4,243.4,261.4z"/>
	</g>
</g>
</svg>
