<?xml version="1.0" encoding="utf-8"?>
<!-- Generator: Adobe Illustrator 21.0.1, SVG Export Plug-In . SVG Version: 6.00 Build 0)  -->
<svg version="1.1" id="Layer_1" xmlns="http://www.w3.org/2000/svg" xmlns:xlink="http://www.w3.org/1999/xlink" x="0px" y="0px"
	 viewBox="0 0 4.34 3.05" enable-background="new 0 0 4.34 3.05" xml:space="preserve">
<title>quotes</title>
<g id="ae41d6c9-6529-4021-8390-7b2b5b660ba0">
	<g id="cae2c9e7-f14a-4637-81f0-35240f254d29">
		<path fill="#f5f7f8" d="M0.54,1.76C0.28,1.6,0.12,1.31,0.14,1c0-0.27,0.1-0.53,0.29-0.72C0.62,0.1,0.87,0,1.13,0
			c0.26-0.01,0.52,0.08,0.71,0.26c0.19,0.18,0.29,0.42,0.28,0.68c0,0.3-0.09,0.58-0.26,0.83L1,3H0L0.54,1.76z M2.76,1.76
			C2.5,1.6,2.34,1.31,2.36,1c0-0.27,0.1-0.53,0.29-0.72C2.84,0.1,3.09,0,3.35,0c0.26-0.01,0.52,0.08,0.71,0.26
			c0.19,0.18,0.29,0.42,0.28,0.68c0,0.3-0.09,0.58-0.26,0.83L3.2,3h-1L2.76,1.76z"/>
	</g>
</g>
</svg>
